<?xml version="1.0"?>
<svg xmlns="http://www.w3.org/2000/svg" version="1.2" baseProfile="tiny" width="1200" height="1535" viewBox="0 0 1200 1535" stroke-linecap="round" stroke-linejoin="round">
<g id="gyeongbu" fill="none" stroke="black" stroke-width="1">
<path d="M 576.14 448.46 571.72 447.1" id="way/32501462"/>
<path d="M 567.97 440.59 565.96 430.79" id="way/32501464"/>
<path d="M 629.16 459.83 620.86 459.38" id="way/32606809"/>
<path d="M 629.78 459.78 629.16 459.83" id="way/32606810"/>
<path d="M 812.47 593.59 812.54 602.55" id="way/32826263"/>
<path d="M 1.5 1.5 5.62 11.31 9.96 38.35 8.41 45.38 8.37 51.99 8.03 53.58 6.98 57.27 6.91 58.14 6.94 58.91 7.36 60.66 13.02 67.98 13.65 71.88" id="way/51808279"/>
<path d="M 141.81 128.55 143.86 129.67" id="way/51811850"/>
<path d="M 28.51 112.54 36.14 114.92" id="way/51811855"/>
<path d="M 140.66 127.87 141.81 128.55" id="way/51811856"/>
<path d="M 27.77 111.56 28.51 112.54" id="way/51811872"/>
<path d="M 149.72 132.14 152.48 132.46" id="way/51812232"/>
<path d="M 97.76 119.87 114.75 113.35" id="way/51812234"/>
<path d="M 145.17 130.28 148.4 131.6" id="way/51812238"/>
<path d="M 97.19 120.08 97.76 119.87" id="way/51812240"/>
<path d="M 204.32 111.6 205.91 110.12 206.65 108.99 207.49 106.46 207.78 99.5 208.13 98.02 208.46 97.11 208.84 96.26 213.82 87.35 217.72 83.5 230.05 75.93 233.49 74.81 246.12 74.3 248.14 74.3 252.54 74.87 255.36 75.34" id="way/58872886"/>
<path d="M 203.34 112.2 204.32 111.6" id="way/58872896"/>
<path d="M 472.5 322.23 478.35 323.47 484.47 327.6 502.5 336.48 505.97 340.38" id="way/58872897"/>
<path d="M 822.82 539.03 826.79 549.87" id="way/153512944"/>
<path d="M 822.72 538.77 822.82 539.03" id="way/153512978"/>
<path d="M 123.38 114.19 135.02 124.55" id="way/157047675"/>
<path d="M 114.75 113.35 115.27 113.15" id="way/157047676"/>
<path d="M 604.7 457.59 604.35 457.36" id="way/157212297"/>
<path d="M 604.35 457.36 576.14 448.46" id="way/157212298"/>
<path d="M 1144.22 1345.34 1153.16 1299.85" id="way/164669538"/>
<path d="M 1148.54 1284.56 1146.28 1281.91" id="way/164669546"/>
<path d="M 1143.66 1349.04 1144.22 1345.34" id="way/164669562"/>
<path d="M 1146.32 1281.87 1148.59 1284.52" id="way/164669582"/>
<path d="M 1121.52 1422.17 1121.63 1421.6" id="way/164688978"/>
<path d="M 1121.63 1421.6 1121.97 1419.54" id="way/164688979"/>
<path d="M 1128.57 1399.14 1127.64 1400.22 1123.32 1412.36" id="way/164774190"/>
<path d="M 1135.82 1391.27 1136.31 1390.56" id="way/164774192"/>
<path d="M 1153.16 1299.85 1153.11 1299.68" id="way/164774193"/>
<path d="M 1148.94 1285.15 1148.77 1284.88" id="way/164774194"/>
<path d="M 1148.59 1284.52 1148.82 1284.85" id="way/164774195"/>
<path d="M 1150.52 1289.62 1150.48 1289.47" id="way/164774196"/>
<path d="M 1143.28 1351.58 1142.48 1356.57" id="way/164774197"/>
<path d="M 1136.37 1390.58 1135.87 1391.3" id="way/164774198"/>
<path d="M 1149.05 1285.21 1150.53 1289.46" id="way/164774200"/>
<path d="M 1143.38 1351.37 1142.74 1355.9" id="way/164774201"/>
<path d="M 1135.87 1391.3 1134.77 1392.51" id="way/164774203"/>
<path d="M 1153.19 1299.82 1144.29 1345.33" id="way/164774204"/>
<path d="M 1153.11 1299.68 1150.52 1289.62" id="way/164774205"/>
<path d="M 1144.29 1345.33 1143.71 1349.03" id="way/164774206"/>
<path d="M 1148.82 1284.85 1149.05 1285.21" id="way/164774207"/>
<path d="M 1143.71 1349.03 1143.44 1351.01 1143.38 1351.37 1142.59 1356.58" id="way/164774208"/>
<path d="M 1150.57 1289.62 1153.15 1299.66" id="way/164774209"/>
<path d="M 1136.31 1390.56 1142.52 1356.58" id="way/164774210"/>
<path d="M 1150.53 1289.46 1150.57 1289.62" id="way/164774211"/>
<path d="M 1148.77 1284.88 1148.54 1284.56" id="way/164774212"/>
<path d="M 1143.49 1350.2 1143.44 1351.01" id="way/164774213"/>
<path d="M 1153.15 1299.66 1153.19 1299.82" id="way/164774215"/>
<path d="M 1150.48 1289.47 1148.94 1285.15" id="way/164774216"/>
<path d="M 1128.53 1399.09 1132.37 1395" id="way/164774280"/>
<path d="M 1142.52 1356.58 1143.28 1351.58 1143.49 1350.2 1143.66 1349.04" id="way/164774374"/>
<path d="M 1142.59 1356.58 1136.37 1390.58" id="way/164774376"/>
<path d="M 1120.47 1433.59 1121.52 1422.17" id="way/164835548"/>
<path d="M 1162.54 1466.36 1162.33 1466.42" id="way/164835551"/>
<path d="M 1121.57 1422.23 1120.54 1433.61" id="way/164835555"/>
<path d="M 1120.53 1433.68 1120.41 1438.68" id="way/164835556"/>
<path d="M 1162.28 1466.36 1162.54 1466.31" id="way/164835557"/>
<path d="M 1123.26 1412.65 1122.05 1419.42" id="way/164835558"/>
<path d="M 1123.21 1412.65 1123.26 1412.34" id="way/164835560"/>
<path d="M 1119.52 1448.91 1119.46 1448.7" id="way/164835563"/>
<path d="M 1162.33 1466.42 1156.08 1468.28 1151.75 1469.39 1150.13 1469.56 1144.67 1469.59 1139.39 1470.74 1138.72 1470.89 1137.61 1470.97 1136.11 1470.85 1135.14 1470.62 1132.26 1469.72 1129.93 1468.74 1128.73 1467.83 1126.19 1465.38 1124.67 1463.86 1123.94 1462.95 1123.56 1462.32 1123.17 1461.5 1122.21 1458.32 1119.52 1448.91" id="way/164835564"/>
<path d="M 1120.33 1438.68 1120.46 1433.66" id="way/164835568"/>
<path d="M 1162.54 1466.31 1176.67 1463.35" id="way/164835569"/>
<path d="M 1120.46 1433.66 1120.47 1433.59" id="way/164835575"/>
<path d="M 1120.32 1438.76 1120.33 1438.68" id="way/164835577"/>
<path d="M 1119.59 1448.88 1122.84 1460.38 1123.53 1462.22 1124.08 1463.1 1126.18 1465.34 1128.81 1467.81 1130.04 1468.73 1132.15 1469.61 1135.16 1470.58 1137.19 1470.91 1138.58 1470.85 1144.16 1469.57 1150.05 1469.48 1154.04 1468.75 1162.28 1466.36" id="way/164835580"/>
<path d="M 1121.68 1421.65 1121.57 1422.23" id="way/164835584"/>
<path d="M 1120.41 1438.68 1120.4 1438.78" id="way/164835589"/>
<path d="M 1120.54 1433.61 1120.53 1433.68" id="way/164835593"/>
<path d="M 1120.4 1438.78 1119.51 1448.56" id="way/164835595"/>
<path d="M 1123.26 1412.34 1127.46 1400.33 1128.53 1399.09" id="way/164835600"/>
<path d="M 1123.32 1412.36 1123.26 1412.65" id="way/164835602"/>
<path d="M 1119.51 1448.56 1119.59 1448.88" id="way/164835604"/>
<path d="M 1119.46 1448.7 1120.32 1438.76" id="way/164835605"/>
<path d="M 1134.77 1392.51 1134.52 1392.79" id="way/164838652"/>
<path d="M 1134.49 1392.75 1134.74 1392.48" id="way/164838653"/>
<path d="M 1134.52 1392.79 1133.2 1394.25 1132.4 1395.05" id="way/164838655"/>
<path d="M 1134.74 1392.48 1135.82 1391.27" id="way/164838656"/>
<path d="M 1197.06 1495.33 1198.93 1490.73 1198.87 1485.4 1198.72 1479.66 1198.49 1478.62 1197.81 1477.24 1186.85 1464.32" id="way/165193274"/>
<path d="M 1176.8 1463.33 1177.77 1463.16" id="way/165195840"/>
<path d="M 1186.27 1463.66 1186.89 1464.29" id="way/165195843"/>
<path d="M 1186.85 1464.32 1186.22 1463.69" id="way/165195846"/>
<path d="M 1186.89 1464.29 1197.7 1476.99 1198.23 1477.84 1198.53 1478.57 1198.76 1479.47 1198.82 1480.33 1199 1490.12 1198.94 1491.19 1198.57 1492.83 1197.1 1495.37" id="way/165195848"/>
<path d="M 1176.67 1463.35 1176.8 1463.33" id="way/165195853"/>
<path d="M 1177.81 1463.27 1176.83 1463.45" id="way/165195857"/>
<path d="M 1177.93 1463.13 1186.27 1463.66" id="way/165195860"/>
<path d="M 1177.92 1463.26 1177.81 1463.27" id="way/165195867"/>
<path d="M 1177.77 1463.16 1177.93 1463.13" id="way/165195884"/>
<path d="M 1186.22 1463.69 1177.92 1463.26" id="way/165195885"/>
<path d="M 1176.83 1463.45 1176.68 1463.47" id="way/165195886"/>
<path d="M 1176.68 1463.47 1162.54 1466.36" id="way/165195887"/>
<path d="M 1181.06 1523.21 1181.65 1521.66" id="way/165345462"/>
<path d="M 1177.34 1534.14 1177.28 1534.28" id="way/165345471"/>
<path d="M 1181.2 1524.05 1181.44 1523.61 1182.07 1521.96" id="way/165345474"/>
<path d="M 1181.44 1523.61 1182.11 1521.97" id="way/165345477"/>
<path d="M 1182.82 1518.06 1183.75 1515.92" id="way/165345482"/>
<path d="M 1178.66 1529.99 1178.48 1530.31" id="way/165345491"/>
<path d="M 1177.39 1534.14 1177.38 1534.26" id="way/165345498"/>
<path d="M 1182.07 1521.96 1183.44 1518.28" id="way/165348345"/>
<path d="M 1182.11 1521.97 1183.48 1518.3" id="way/165348346"/>
<path d="M 1181.48 1521.6 1182.82 1518.06" id="way/165348348"/>
<path d="M 1181.65 1521.66 1182.96 1518.11" id="way/165348358"/>
<path d="M 1185.2 1512.19 1182.96 1518.11" id="way/165348359"/>
<path d="M 1180.93 1523.13 1181.48 1521.6" id="way/165348365"/>
<path d="M 1184.01 1515.28 1187.46 1506.05 1187.93 1505.19 1189.1 1503.79" id="way/165348370"/>
<path d="M 1181.39 1521.57 1182.73 1518.03" id="way/165348371"/>
<path d="M 1181.44 1521.59 1182.77 1518.04" id="way/165348375"/>
<path d="M 1197.1 1495.37 1188.88 1504.1 1187.81 1505.49 1185.2 1512.19" id="way/165359879"/>
<path d="M 1189.1 1503.79 1197.06 1495.33" id="way/165359881"/>
<path d="M 397.19 124.49 406.11 152.37" id="way/181210688"/>
<path d="M 396.75 124.17 397.19 124.49" id="way/181210689"/>
<path d="M 781.88 496.56 785.65 496.67 795.55 497.68" id="way/209953042"/>
<path d="M 803.32 502.54 805.97 504.66" id="way/209953043"/>
<path d="M 866.59 1011.63 869.7 1020.23" id="way/246008249"/>
<path d="M 851.77 802.39 855.64 804.48" id="way/254454936"/>
<path d="M 1104.94 1243.01 1110.15 1250.96 1133.78 1268.94 1146.32 1281.87" id="way/255773610"/>
<path d="M 1105.14 1234.71 1104.94 1243.01" id="way/255773611"/>
<path d="M 1100.54 1220.07 1070.5 1208.08 1041.06 1176.33" id="way/255774328"/>
<path d="M 816.24 732.95 812.62 727.67" id="way/304470651"/>
<path d="M 823.75 629.86 833.06 637.38" id="way/304470653"/>
<path d="M 823.71 629.9 821.84 627.61" id="way/304472411"/>
<path d="M 814.5 613.44 821.57 627.08" id="way/304472493"/>
<path d="M 255.36 75.34 256.71 75.52" id="way/305828526"/>
<path d="M 265.12 76.79 279.96 72.14" id="way/305828527"/>
<path d="M 200.03 113.74 201.23 113.23" id="way/305874457"/>
<path d="M 201.23 113.23 203.34 112.2" id="way/305874458"/>
<path d="M 553 403.38 550.24 396.01 551.29 391.19" id="way/306642478"/>
<path d="M 553.78 404.37 553 403.38" id="way/306642479"/>
<path d="M 551.29 391.19 551.33 391.03" id="way/306642480"/>
<path d="M 551.33 391.03 551.52 390.31" id="way/306642482"/>
<path d="M 819.91 624.58 814.45 613.45" id="way/307523804"/>
<path d="M 802.27 501.64 803.32 502.54" id="way/309605923"/>
<path d="M 800.18 500.17 802.27 501.64" id="way/309605926"/>
<path d="M 785.65 496.67 786.54 496.52" id="way/309668590"/>
<path d="M 790.99 498.41 790.29 498.29 782.01 496.8 781.24 496.64 780.85 496.56 780.12 496.4 779.63 496.26 779.05 496.09" id="way/309737875"/>
<path d="M 799.64 499.9 800.18 500.17" id="way/309737877"/>
<path d="M 759.62 479.03 769.87 490.06 773.1 494.18" id="way/309737878"/>
<path d="M 754.17 476.25 752.85 475.58" id="way/309737882"/>
<path d="M 803.28 502.58 802.21 501.7" id="way/309737883"/>
<path d="M 752.85 475.58 749.57 473.85" id="way/309737884"/>
<path d="M 756.95 477.75 754.17 476.25" id="way/309737885"/>
<path d="M 770.89 492.26 756.95 477.75" id="way/309737887"/>
<path d="M 507.49 341.99 510.03 344.08 512.44 345.04 513.91 345.2 515.18 345.1 516.1 344.89 524.23 342.15 525.51 341.81 527.05 341.63 528.45 341.67 529.69 341.88 533.37 342.73 534.69 343.27 535.76 343.96 537.02 345.19 537.78 346.32 540.92 353.18" id="way/333520952"/>
<path d="M 551.52 390.31 553.61 381.21" id="way/333520955"/>
<path d="M 550.35 395.95 553.11 403.29" id="way/333520956"/>
<path d="M 553.66 381.13 551.38 391.03" id="way/333520957"/>
<path d="M 551.38 391.03 551.33 391.21" id="way/333520966"/>
<path d="M 551.33 391.21 550.35 395.95" id="way/333520967"/>
<path d="M 555.29 376.77 561.43 362.44 558.73 356.13" id="way/333520968"/>
<path d="M 620.86 459.13 629.21 459.67" id="way/400847971"/>
<path d="M 629.76 459.62 649.35 456.59" id="way/400854129"/>
<path d="M 629.21 459.67 629.76 459.62" id="way/400854130"/>
<path d="M 649.28 456.7 629.78 459.78" id="way/400854139"/>
<path d="M 1182.77 1518.04 1183.75 1515.92" id="way/407197712"/>
<path d="M 1180.93 1522.92 1181.44 1521.59" id="way/407197714"/>
<path d="M 712.18 462.58 710.1 463.21" id="way/407698949"/>
<path d="M 705.64 463.94 705.06 464.03" id="way/407698963"/>
<path d="M 737.38 469.35 729.76 461.86" id="way/407699007"/>
<path d="M 705.06 464.03 704.65 464.11" id="way/407699029"/>
<path d="M 649.79 456.99 654.99 461.27" id="way/407699037"/>
<path d="M 690.54 468.77 686.51 469.58" id="way/407699039"/>
<path d="M 686.52 469.44 690.49 468.63" id="way/407699040"/>
<path d="M 654.95 461.4 649.69 457.09" id="way/407699041"/>
<path d="M 675.08 466.32 670.85 465.3" id="way/407699042"/>
<path d="M 667.48 464.33 670.52 465" id="way/407699044"/>
<path d="M 693.1 467.91 690.54 468.77" id="way/407699045"/>
<path d="M 681.85 468.13 682.19 468.24" id="way/407699046"/>
<path d="M 667.05 464.23 667.48 464.33" id="way/407699047"/>
<path d="M 658.83 462.26 667.05 464.23" id="way/407699048"/>
<path d="M 690.49 468.63 693.04 467.76" id="way/407699049"/>
<path d="M 667.45 464.47 667.01 464.36" id="way/407699050"/>
<path d="M 667.01 464.36 658.91 462.42" id="way/407699051"/>
<path d="M 658.32 462.13 658.83 462.26" id="way/407699052"/>
<path d="M 682.18 468.39 681.85 468.27" id="way/407699053"/>
<path d="M 658.91 462.42 658.39 462.29" id="way/407699054"/>
<path d="M 693.04 467.76 698.87 465.79" id="way/407699055"/>
<path d="M 686.51 469.58 685.85 469.52" id="way/407699056"/>
<path d="M 655.7 461.63 654.95 461.4" id="way/407699057"/>
<path d="M 655.74 461.5 658.32 462.13" id="way/407699058"/>
<path d="M 658.39 462.29 655.7 461.63" id="way/407699059"/>
<path d="M 654.99 461.27 655.74 461.5" id="way/407699060"/>
<path d="M 685.87 469.38 686.52 469.44" id="way/407699061"/>
<path d="M 685.85 469.52 682.18 468.39" id="way/407699062"/>
<path d="M 682.19 468.24 685.87 469.38" id="way/407699063"/>
<path d="M 649.69 457.09 649.28 456.7" id="way/407699078"/>
<path d="M 649.35 456.59 649.79 456.99" id="way/407699079"/>
<path d="M 717.18 460.72 714.87 461.72" id="way/407720350"/>
<path d="M 716.75 460.13 721.72 458.58" id="way/407720381"/>
<path d="M 773.1 494.18 777.71 495.8" id="way/407720383"/>
<path d="M 769.54 489.64 769.87 490.06" id="way/407720385"/>
<path d="M 777.71 495.8 778.7 496.04" id="way/407720386"/>
<path d="M 711.03 461.92 712.91 461.35" id="way/407720388"/>
<path d="M 789.77 498.57 780.21 496.79" id="way/407720392"/>
<path d="M 780.85 496.56 780.05 496.45 779.67 496.39 775.58 495.64 775.09 495.49 774.56 495.3" id="way/407720394"/>
<path d="M 772.91 494.56 775.16 495.79 778.33 496.45" id="way/407720397"/>
<path d="M 789.31 498.05 790 498.11" id="way/407720398"/>
<path d="M 793.78 498.65 793.04 498.58" id="way/407720400"/>
<path d="M 789.32 497.99 790 498.17" id="way/407720401"/>
<path d="M 790.3 498.22 790.61 498.31 790.99 498.41 792.05 498.66" id="way/407720403"/>
<path d="M 790.76 498.52 780.18 496.58" id="way/407720404"/>
<path d="M 782.01 496.8 783.07 497.08" id="way/407720405"/>
<path d="M 791.03 498.78 790.67 498.68 790.12 498.54 789.69 498.43 789.24 498.31" id="way/407720407"/>
<path d="M 778.54 496.47 779.08 496.57 790.67 498.68" id="way/407720408"/>
<path d="M 775.58 495.64 779.67 496.39" id="way/407720409"/>
<path d="M 790.88 498.33 790.3 498.22 790 498.17 789.31 498.05 780.12 496.4" id="way/407720412"/>
<path d="M 790.12 498.54 789.22 498.37 779.62 496.59" id="way/407720413"/>
<path d="M 781.24 496.64 779.75 496.54" id="way/407720415"/>
<path d="M 790.29 498.29 790.61 498.31 790.88 498.33 791.32 498.36 792.09 498.42" id="way/407720416"/>
<path d="M 791.32 498.36 798.89 499.71" id="way/407720418"/>
<path d="M 779.63 496.26 789.32 497.99 790 498.11 791.49 498.32" id="way/407720419"/>
<path d="M 791.53 498.57 790.76 498.52 790.06 498.46 789.69 498.43 789.22 498.37" id="way/407720420"/>
<path d="M 779.08 496.57 779.62 496.59 789.24 498.31 790.06 498.46" id="way/407720422"/>
<path d="M 780.05 496.45 775.09 495.49" id="way/407720424"/>
<path d="M 671.77 465.24 675.14 466.07" id="way/407735103"/>
<path d="M 674.89 466.34 672.08 465.66" id="way/407735105"/>
<path d="M 671.8 465.15 675.13 465.93" id="way/407735107"/>
<path d="M 677.62 466.69 679.45 467.3" id="way/407735113"/>
<path d="M 795.55 497.68 802.07 497.21" id="way/407753278"/>
<path d="M 867.27 991.24 867.34 995.82" id="way/446636883"/>
<path d="M 867.5 1003.45 866.59 1011.63" id="way/446636884"/>
<path d="M 871.45 1021.41 882.6 1028.82 884.66 1030.34 888.93 1034.57" id="way/446636885"/>
<path d="M 866.47 1011.61 867.4 1003.43" id="way/446636886"/>
<path d="M 968.08 1127.4 935.5 1126.36" id="way/452878636"/>
<path d="M 869.87 1020.43 867.59 1018.29 866.5 1016.12 866.47 1011.61" id="way/452905455"/>
<path d="M 1146.28 1281.91 1121.09 1259.43" id="way/452905468"/>
<path d="M 1132.37 1395 1133.16 1394.2 1134.49 1392.75" id="way/452905469"/>
<path d="M 1127.64 1400.22 1128.65 1399.15" id="way/452905470"/>
<path d="M 1133.16 1394.2 1132.38 1394.87" id="way/452905471"/>
<path d="M 1132.4 1395.05 1128.57 1399.14" id="way/452905472"/>
<path d="M 1132.52 1395.03 1133.2 1394.25" id="way/452905473"/>
<path d="M 1128.34 1399.13 1127.46 1400.33" id="way/452905474"/>
<path d="M 844.63 792.18 850.12 800.94" id="way/453042769"/>
<path d="M 863.01 862.67 867.76 852.79" id="way/453042775"/>
<path d="M 819.09 697.5 810.25 707.18" id="way/453042781"/>
<path d="M 812.41 593.59 812.47 593.15" id="way/453049221"/>
<path d="M 814.45 613.45 812.55 602.97" id="way/453049224"/>
<path d="M 812.47 593.15 819.86 585.21" id="way/453049227"/>
<path d="M 812.53 593.15 812.47 593.59" id="way/453049228"/>
<path d="M 830.93 668.08 819.09 697.5" id="way/453049229"/>
<path d="M 778.7 496.04 779.05 496.09 791.49 498.32 792.09 498.42 793.04 498.58 798.25 499.49 799.64 499.9" id="way/456367393"/>
<path d="M 559.95 366.22 559.32 367.72" id="way/456377203"/>
<path d="M 559.32 367.72 555.77 375.82" id="way/456377204"/>
<path d="M 861.67 925.76 869.29 947.93" id="way/465883296"/>
<path d="M 861.67 916.19 863.39 903.56" id="way/465883297"/>
<path d="M 861.73 916.2 861.23 919.8" id="way/465883298"/>
<path d="M 869.25 947.96 861.63 925.79" id="way/465883299"/>
<path d="M 863.44 903.57 861.73 916.2" id="way/465883305"/>
<path d="M 863.83 899.17 863.44 903.57" id="way/465883309"/>
<path d="M 863.83 898.66 863.83 899.17" id="way/465884928"/>
<path d="M 863.77 899.18 863.78 898.68" id="way/465884929"/>
<path d="M 863.78 898.68 862.79 890.19" id="way/465884931"/>
<path d="M 862.83 890.18 863.83 898.66" id="way/465884934"/>
<path d="M 862.76 889.64 862.83 890.18" id="way/465884935"/>
<path d="M 862.79 890.19 862.71 889.64" id="way/465884936"/>
<path d="M 862.38 887.02 862.76 889.64" id="way/465884937"/>
<path d="M 862.37 886.95 862.38 887.02" id="way/465884938"/>
<path d="M 862.33 887.03 862.32 886.94" id="way/465884939"/>
<path d="M 862.71 889.64 862.33 887.03" id="way/465884940"/>
<path d="M 862.32 886.94 861.42 869.12" id="way/465884942"/>
<path d="M 861.49 869.14 862.37 886.95" id="way/465887140"/>
<path d="M 861.65 868.16 861.49 869.14" id="way/465887141"/>
<path d="M 861.42 869.12 861.58 868.16" id="way/465887142"/>
<path d="M 863.06 862.69 861.65 868.16" id="way/465887143"/>
<path d="M 861.58 868.16 863.01 862.67" id="way/465887144"/>
<path d="M 867.82 833.38 868.22 833.9" id="way/465890503"/>
<path d="M 867.07 832.48 867.82 833.38" id="way/465890504"/>
<path d="M 866.93 832.6 864.43 818.87" id="way/465890506"/>
<path d="M 867.64 833.51 866.93 832.6" id="way/465890507"/>
<path d="M 815.55 516.47 815.9 517.22" id="way/465894486"/>
<path d="M 815.9 517.22 822.63 538.53" id="way/465894487"/>
<path d="M 815.85 517.25 815.5 516.49" id="way/465894490"/>
<path d="M 813.48 512.11 806.02 504.81" id="way/465894493"/>
<path d="M 822.77 539.05 822.67 538.79" id="way/466005128"/>
<path d="M 822.67 538.79 815.85 517.25" id="way/466005129"/>
<path d="M 826.79 549.87 826.93 550.23" id="way/466005135"/>
<path d="M 826.74 549.89 822.89 539.38" id="way/466005146"/>
<path d="M 826.93 550.23 832.23 568.82" id="way/466005147"/>
<path d="M 826.87 550.26 826.74 549.89" id="way/466005148"/>
<path d="M 821.83 584.02 819.89 585.25" id="way/466005149"/>
<path d="M 819.86 585.21 821.8 583.96" id="way/466005150"/>
<path d="M 832.17 568.85 826.87 550.26" id="way/466005151"/>
<path d="M 819.89 585.25 812.53 593.15" id="way/466005152"/>
<path d="M 812.61 602.95 814.5 613.44" id="way/467506143"/>
<path d="M 812.54 602.55 812.61 602.95" id="way/467506144"/>
<path d="M 812.49 602.56 812.41 593.59" id="way/467506145"/>
<path d="M 812.55 602.97 812.49 602.56" id="way/467506146"/>
<path d="M 143.86 129.67 145.17 130.28" id="way/470598543"/>
<path d="M 505.93 340.46 501.84 336.21 484.41 327.65 477.63 323.36 459.51 319.37" id="way/471394358"/>
<path d="M 451.53 292.65 453.43 295.04" id="way/471394364"/>
<path d="M 453.43 295.04 454.26 298.27" id="way/471394366"/>
<path d="M 451.4 292.92 449.92 291.91" id="way/471394368"/>
<path d="M 453.24 295.08 451.4 292.92" id="way/471394371"/>
<path d="M 454.21 298.64 454.2 298.27" id="way/471394373"/>
<path d="M 454.2 298.27 453.24 295.08" id="way/471394375"/>
<path d="M 454.27 298.63 454.42 311.25" id="way/471394379"/>
<path d="M 454.26 298.27 454.27 298.63" id="way/471394381"/>
<path d="M 449.92 291.91 444.28 288.63" id="way/471394384"/>
<path d="M 444.45 288.36 450.08 291.6" id="way/471394386"/>
<path d="M 450.08 291.6 451.53 292.65" id="way/471394388"/>
<path d="M 444.28 288.63 440.69 284.96" id="way/471394389"/>
<path d="M 440.89 284.6 441.01 284.85" id="way/471397725"/>
<path d="M 441.01 284.85 444.45 288.36" id="way/471397726"/>
<path d="M 440.69 284.96 440.55 284.63" id="way/471397727"/>
<path d="M 440.55 284.63 440.19 279.96" id="way/471397728"/>
<path d="M 440.19 279.96 440.29 279.58" id="way/471397730"/>
<path d="M 440.36 280.06 440.89 284.6" id="way/471397731"/>
<path d="M 440.43 279.75 440.36 280.06" id="way/471397732"/>
<path d="M 36.14 114.92 37.45 114.74" id="way/473824826"/>
<path d="M 54.85 126.86 97.19 120.08" id="way/473824827"/>
<path d="M 833.02 637.41 823.71 629.9" id="way/481185221"/>
<path d="M 833.06 637.38 833.84 638.66" id="way/481185222"/>
<path d="M 833.79 638.68 833.02 637.41" id="way/481185223"/>
<path d="M 833.84 638.66 834.04 639.1" id="way/481185224"/>
<path d="M 834.61 645.75 833.39 653.79" id="way/481185225"/>
<path d="M 834 639.12 833.79 638.68" id="way/481185226"/>
<path d="M 833.34 653.81 834.61 645.51" id="way/481185231"/>
<path d="M 833.39 653.79 833.38 653.98" id="way/481185232"/>
<path d="M 833.38 653.98 833.15 657.59" id="way/481185233"/>
<path d="M 833.33 654.03 833.34 653.81" id="way/481185234"/>
<path d="M 833.1 657.62 833.33 654.03" id="way/481185236"/>
<path d="M 833.15 657.59 833.14 657.75" id="way/481185237"/>
<path d="M 833.14 657.75 832.67 663.27 830.93 668.08" id="way/481185238"/>
<path d="M 833.09 657.77 833.1 657.62" id="way/481185239"/>
<path d="M 832.16 662.39 833.09 657.77" id="way/481185247"/>
<path d="M 829.73 667.09 832.16 662.39" id="way/481185248"/>
<path d="M 828.89 669.03 829.73 667.09" id="way/481185249"/>
<path d="M 819.07 696.48 828.89 669.03" id="way/481185250"/>
<path d="M 812.59 727.19 812.75 727.62" id="way/481193223"/>
<path d="M 812.62 727.67 812.46 727.24" id="way/481193224"/>
<path d="M 812.46 727.24 810.59 715.89" id="way/481193225"/>
<path d="M 816.79 733.45 821.82 745.82" id="way/481193226"/>
<path d="M 440.29 279.58 441.13 277.15" id="way/491855371"/>
<path d="M 391.96 207.98 392.93 225.65" id="way/491855380"/>
<path d="M 430.92 257.19 441.78 275.87" id="way/491855381"/>
<path d="M 430.88 257.23 430.65 256.96" id="way/491855382"/>
<path d="M 430.65 256.96 419.38 246.56" id="way/491855383"/>
<path d="M 430.7 256.93 430.92 257.19" id="way/491855384"/>
<path d="M 407.83 236.18 393.22 226.44" id="way/491855387"/>
<path d="M 418.88 246 419.5 246.54" id="way/491855388"/>
<path d="M 419.5 246.54 430.7 256.93" id="way/491855389"/>
<path d="M 419.38 246.56 418.83 246.05" id="way/491855390"/>
<path d="M 392.93 225.65 393.27 226.43" id="way/491859090"/>
<path d="M 393.27 226.43 407.9 236.17" id="way/491859091"/>
<path d="M 393.22 226.44 392.87 225.67" id="way/491859092"/>
<path d="M 544.4 355.27 544.63 355.31" id="way/491861729"/>
<path d="M 544.63 355.31 558.69 356.05" id="way/491861730"/>
<path d="M 544.61 355.36 544.43 355.31" id="way/491861731"/>
<path d="M 540.86 353.2 539.57 351.37 538.08 347.07 536.93 345.16 534.44 343.2 532.21 342.48 528.47 341.74 527.3 341.68 525.69 341.83 516.62 344.77 515.79 345.02 514.59 345.22 513.61 345.24 512.48 345.1 511.76 344.92 510.21 344.25 507.08 341.75" id="way/491861732"/>
<path d="M 457.93 318.46 457.35 317.99" id="way/491902234"/>
<path d="M 459.5 319.3 472.5 322.23" id="way/491902235"/>
<path d="M 454.37 311.27 454.21 298.64" id="way/491902236"/>
<path d="M 457.39 317.94 458.01 318.45" id="way/491902237"/>
<path d="M 556.38 409.89 556.32 409.73" id="way/549213989"/>
<path d="M 556.32 409.73 553.78 404.37" id="way/549213990"/>
<path d="M 561.12 421.03 556.38 409.89" id="way/549345176"/>
<path d="M 561.31 421.38 561.12 421.03" id="way/549345177"/>
<path d="M 553.81 404.21 556.39 409.71" id="way/549345178"/>
<path d="M 553.11 403.29 553.81 404.21" id="way/549345179"/>
<path d="M 556.44 409.85 561.19 421.01" id="way/549345180"/>
<path d="M 556.39 409.71 556.44 409.85" id="way/549345181"/>
<path d="M 561.41 421.39 564.55 426.82" id="way/549345182"/>
<path d="M 561.19 421.01 561.41 421.39" id="way/549345183"/>
<path d="M 564.55 426.82 564.65 426.96" id="way/549345190"/>
<path d="M 566 430.69 568.12 440.99" id="way/549345191"/>
<path d="M 564.6 426.99 564.51 426.86" id="way/549345192"/>
<path d="M 564.51 426.86 561.31 421.38" id="way/549345193"/>
<path d="M 441.41 277.01 440.43 279.75" id="way/549711564"/>
<path d="M 441.78 275.87 441.41 277.01" id="way/549711565"/>
<path d="M 441.54 275.82 430.88 257.23" id="way/549711566"/>
<path d="M 441.13 277.15 441.54 275.82" id="way/549711567"/>
<path d="M 403.01 177.99 404.18 180.82" id="way/550080950"/>
<path d="M 404.18 180.82 395.57 202.52" id="way/550080951"/>
<path d="M 704.65 464.11 698.95 465.92" id="way/553541440"/>
<path d="M 712.91 461.35 713.12 461.28" id="way/553543377"/>
<path d="M 713.12 461.28 714.63 460.82" id="way/553543378"/>
<path d="M 709.83 462.28 711.03 461.92" id="way/553543382"/>
<path d="M 714.87 461.72 712.18 462.58" id="way/553543386"/>
<path d="M 710.1 463.21 705.64 463.94" id="way/553543387"/>
<path d="M 698.87 465.79 706.72 463.28" id="way/553543913"/>
<path d="M 979.7 1127.96 981.18 1128.94 984.9 1133.01 985.94 1134.54 989.34 1142.05 990.6 1145.71 992.91 1154.82 994.39 1157.19 998.14 1161.21 1000.42 1163.52 1001.93 1164.54 1005.78 1165.71 1033.48 1171.02 1034.52 1171.19 1036.08 1171.7 1037.67 1172.61 1039.6 1174.6" id="way/565585311"/>
<path d="M 927.16 1124.4 929.87 1125.28" id="way/565585312"/>
<path d="M 921.84 1121.69 927.16 1124.4" id="way/565585313"/>
<path d="M 911.57 1116.31 916.29 1118.81 920.35 1120.98 921.84 1121.69" id="way/565585314"/>
<path d="M 604.42 457.28 604.74 457.48" id="way/583607029"/>
<path d="M 603.29 456.45 604.42 457.28" id="way/583607030"/>
<path d="M 576.29 448.33 603.29 456.45" id="way/583607031"/>
<path d="M 571.77 447.06 576.29 448.33" id="way/583607032"/>
<path d="M 406.06 152.37 397.17 124.54" id="way/583860532"/>
<path d="M 6.01 19.69 1 1" id="way/583881372"/>
<path d="M 393.12 226.47 392.87 225.67" id="way/584308602"/>
<path d="M 417.01 244.39 393.12 226.47" id="way/584308603"/>
<path d="M 255.49 75.4 249.69 74.52 246.12 74.33 234.32 74.86 230.55 75.79 217.31 83.93 214.33 86.89 209.63 95.01 208.54 97.03 208.29 97.62 207.94 99.03 207.87 99.8 207.61 105.93 207.44 107.04 206.91 108.62 206.23 109.81 205.01 111.17 203.28 112.29 201.3 113.21" id="way/584308604"/>
<path d="M 256.79 75.59 255.49 75.4" id="way/584308605"/>
<path d="M 200.12 113.75 188.43 122.18 179 126.3 156.04 131.66" id="way/584308606"/>
<path d="M 201.3 113.21 200.12 113.75" id="way/584308607"/>
<path d="M 134.97 124.54 123.21 114.11" id="way/584308608"/>
<path d="M 148.35 131.91 145.16 130.35" id="way/584308609"/>
<path d="M 13.43 71.91 12.83 67.81 8.34 62.41 7.49 61.19 7.07 60.06 6.89 59.11 6.86 57.98 6.94 57.27 7.1 56.63 7.97 53.7 8.34 51.54 8.19 46.5 9.8 38.12 6.01 19.69" id="way/584308610"/>
<path d="M 28.41 112.56 27.8 111.72" id="way/584308611"/>
<path d="M 380.87 117.01 366.77 109.96" id="way/584317169"/>
<path d="M 382.82 118.03 381.44 117.31" id="way/584317170"/>
<path d="M 365.08 109.11 342.98 97.83" id="way/584317171"/>
<path d="M 366.77 109.96 365.08 109.11" id="way/584317172"/>
<path d="M 54.53 126.78 54.85 126.86" id="way/584317173"/>
<path d="M 37.45 114.74 54.53 126.78" id="way/584317174"/>
<path d="M 867.5 989.28 869.22 976.71" id="way/585070713"/>
<path d="M 869.7 1020.23 871.45 1021.41" id="way/585070715"/>
<path d="M 877.32 1025.33 869.87 1020.43" id="way/585070716"/>
<path d="M 867.4 1003.43 867.24 996.47" id="way/585070717"/>
<path d="M 861.18 919.79 861.67 916.19" id="way/585070718"/>
<path d="M 888.9 1034.62 884.64 1030.37 877.32 1025.33" id="way/585070719"/>
<path d="M 927.14 1124.43 920.35 1120.98 916.29 1118.81 911.54 1116.34" id="way/585070720"/>
<path d="M 935.5 1126.36 929.88 1125.33" id="way/585070721"/>
<path d="M 929.88 1125.33 927.14 1124.43" id="way/585070722"/>
<path d="M 1183.75 1515.92 1184.01 1515.28" id="way/585074789"/>
<path d="M 54.52 126.86 37.48 114.81" id="way/585267661"/>
<path d="M 1041.27 1176.26 1070.21 1207.69 1100.61 1219.98" id="way/601804163"/>
<path d="M 1039.6 1174.6 1041.27 1176.26" id="way/601804164"/>
<path d="M 1039.63 1174.91 1037.46 1172.64 1036.33 1171.94 1034.48 1171.25 1005.64 1165.73 1001.84 1164.57 1000.53 1163.71 999.54 1162.82 994.26 1157.24 992.79 1155.14 991.65 1152.21 989.95 1144.17 985.47 1133.86 981.33 1129.27 979.58 1128.13" id="way/601804165"/>
<path d="M 1041.06 1176.33 1039.63 1174.91" id="way/601804166"/>
<path d="M 864.48 819.02 867.07 832.48" id="way/604526957"/>
<path d="M 861.4 810.17 861.52 810.35" id="way/604526961"/>
<path d="M 861.48 810.39 861.35 810.2" id="way/604526962"/>
<path d="M 861.35 810.2 855.76 804.62" id="way/604526963"/>
<path d="M 821.86 627.53 823.75 629.86" id="way/604526988"/>
<path d="M 821.57 627.08 821.86 627.53" id="way/604526989"/>
<path d="M 821.55 627.16 819.91 624.58 814.45 613.45" id="way/604526990"/>
<path d="M 821.84 627.61 821.55 627.16" id="way/604526991"/>
<path d="M 279.98 72.21 265.11 76.88" id="way/724726523"/>
<path d="M 279.96 72.14 280.23 72.03" id="way/724726524"/>
<path d="M 280.23 72.03 285.27 70.84" id="way/724726525"/>
<path d="M 280.27 72.1 279.98 72.21" id="way/724726526"/>
<path d="M 315.56 81.6 285.86 70.96" id="way/724726529"/>
<path d="M 315.75 81.75 315.56 81.6" id="way/724726530"/>
<path d="M 315.78 81.72 333.44 94.23" id="way/724726531"/>
<path d="M 315.58 81.57 315.78 81.72" id="way/724726532"/>
<path d="M 285.86 70.96 285.27 70.89" id="way/724726558"/>
<path d="M 285.87 70.91 315.58 81.57" id="way/724726559"/>
<path d="M 285.27 70.84 285.87 70.91" id="way/724726560"/>
<path d="M 285.27 70.89 280.27 72.1" id="way/724726561"/>
<path d="M 333.44 94.23 342.66 97.65" id="way/762852391"/>
<path d="M 365.12 109.09 366.81 109.93" id="way/762852393"/>
<path d="M 382.82 117.97 396.75 124.17" id="way/762852396"/>
<path d="M 381.46 117.26 382.82 117.97" id="way/762852398"/>
<path d="M 366.81 109.93 380.87 116.96" id="way/762852400"/>
<path d="M 457.11 317.68 457.39 317.94" id="way/786406938"/>
<path d="M 456.78 317.35 457.11 317.68" id="way/786406939"/>
<path d="M 457.1 317.74 456.74 317.38" id="way/786406940"/>
<path d="M 457.35 317.99 457.1 317.74" id="way/786406941"/>
<path d="M 54.81 126.92 54.52 126.86" id="way/787918143"/>
<path d="M 97.2 120.15 54.81 126.92" id="way/787918144"/>
<path d="M 97.78 119.91 97.2 120.15" id="way/787918145"/>
<path d="M 156.08 131.35 166.8 126.2 180.06 125.84 200.03 113.74" id="way/787918150"/>
<path d="M 155.47 131.66 156.08 131.35" id="way/787918151"/>
<path d="M 155.67 131.82 152.82 132.79" id="way/787918152"/>
<path d="M 156.04 131.66 155.67 131.82" id="way/787918153"/>
<path d="M 706.72 463.28 709.83 462.28" id="way/822846458"/>
<path d="M 806.07 504.75 813.53 512.09" id="way/824119724"/>
<path d="M 805.97 504.66 806.07 504.75" id="way/824119725"/>
<path d="M 805.92 504.73 803.28 502.58" id="way/824119726"/>
<path d="M 806.02 504.81 805.92 504.73" id="way/824119727"/>
<path d="M 810.79 716.29 812.59 727.19" id="way/825406346"/>
<path d="M 810.25 707.18 810.18 707.37" id="way/825406347"/>
<path d="M 810.2 707.18 819.07 696.48" id="way/825406348"/>
<path d="M 810.13 707.34 810.2 707.18" id="way/825406349"/>
<path d="M 843.18 778.02 842.68 786.53" id="way/825406354"/>
<path d="M 843.27 776.62 843.18 778.02" id="way/825406355"/>
<path d="M 837.87 756.1 821.32 745.51" id="way/825406356"/>
<path d="M 843.01 777.98 843.1 776.4" id="way/825406357"/>
<path d="M 855.79 804.57 861.4 810.17" id="way/825406358"/>
<path d="M 855.64 804.48 855.79 804.57" id="way/825406359"/>
<path d="M 851.78 802.44 850.26 801.18 849.45 800.13 843.95 791.18" id="way/825406360"/>
<path d="M 855.76 804.62 855.62 804.55" id="way/825406361"/>
<path d="M 868.22 833.9 868.36 834.08" id="way/825406364"/>
<path d="M 868.36 834.08 871.13 844.3" id="way/825406365"/>
<path d="M 868.17 834.18 867.98 833.94" id="way/825406366"/>
<path d="M 867.98 833.94 867.64 833.51" id="way/825406367"/>
<path d="M 867.79 852.84 863.06 862.69" id="way/825406370"/>
<path d="M 867.87 852.7 867.79 852.84" id="way/825406371"/>
<path d="M 871.04 844.26 868.17 834.18" id="way/825406372"/>
<path d="M 867.76 852.79 867.82 852.68" id="way/825406373"/>
<path d="M 867.4 996.48 867.5 1003.45" id="way/825406374"/>
<path d="M 867.34 995.82 867.4 996.48" id="way/825406375"/>
<path d="M 867.19 995.84 867.14 991.83 867.5 989.28" id="way/825406376"/>
<path d="M 867.24 996.47 867.19 995.84" id="way/825406377"/>
<path d="M 1122.02 1419.55 1121.68 1421.65" id="way/826409753"/>
<path d="M 1122.05 1419.42 1122.02 1419.55" id="way/826409754"/>
<path d="M 1121.99 1419.41 1123.21 1412.65" id="way/826409755"/>
<path d="M 1121.97 1419.54 1121.99 1419.41" id="way/826409756"/>
<path d="M 342.66 97.65 365.12 109.09" id="way/851368399"/>
<path d="M 342.98 97.83 334.39 94.93 315.75 81.75" id="way/851368400"/>
<path d="M 607.76 458.27 612.17 458.56" id="way/885741662"/>
<path d="M 612.17 458.56 612.75 458.59" id="way/885741663"/>
<path d="M 612.15 458.82 607.59 458.5" id="way/885741667"/>
<path d="M 612.69 458.85 612.15 458.82" id="way/885741668"/>
<path d="M 620.86 459.38 612.69 458.85" id="way/888333753"/>
<path d="M 1101.04 1220.36 1105.14 1234.71" id="way/891155785"/>
<path d="M 1100.61 1219.98 1101.04 1220.36" id="way/891155786"/>
<path d="M 1121.09 1259.43 1110.11 1251.04 1105.11 1243.91 1104.34 1241.69 1100.98 1220.43" id="way/891155787"/>
<path d="M 1100.98 1220.43 1100.55 1220.08" id="way/891155788"/>
<path d="M 1100.55 1220.08 1100.54 1220.07" id="way/891155789"/>
<path d="M 392.87 225.67 391.9 207.95" id="way/897829791"/>
<path d="M 391.9 207.95 392.05 207.65" id="way/897829792"/>
<path d="M 392.05 207.65 403.91 180.83" id="way/897829793"/>
<path d="M 399.96 169.85 399.9 169.25" id="way/897829794"/>
<path d="M 400.1 169.84 403.01 177.99" id="way/897829795"/>
<path d="M 400.03 169.24 400.1 169.84" id="way/897829796"/>
<path d="M 402.82 178.05 399.96 169.85" id="way/897829797"/>
<path d="M 403.91 180.83 402.82 178.05" id="way/897829798"/>
<path d="M 396.71 124.19 382.82 118.03" id="way/897851208"/>
<path d="M 397.17 124.54 396.71 124.19" id="way/897851209"/>
<path d="M 403.47 157.85 400.03 169.24" id="way/897851213"/>
<path d="M 399.9 169.25 403.44 157.83" id="way/897851214"/>
<path d="M 405.87 152.74 406.06 152.37" id="way/897851215"/>
<path d="M 406.11 152.37 405.92 152.76" id="way/897851216"/>
<path d="M 405.23 154.09 405.87 152.74" id="way/897851217"/>
<path d="M 405.92 152.76 405.27 154.09" id="way/897851218"/>
<path d="M 405.13 154.28 405.23 154.09" id="way/897851219"/>
<path d="M 405.27 154.09 405.18 154.28" id="way/897851220"/>
<path d="M 395.57 202.52 392.11 207.67" id="way/924973466"/>
<path d="M 392.11 207.67 391.96 207.98" id="way/924973467"/>
<path d="M 906.34 1073.51 907.83 1081.7" id="way/1002889769"/>
<path d="M 906.16 1073.1 906.34 1073.51" id="way/1002889770"/>
<path d="M 907.74 1081.68 906.31 1073.53" id="way/1002889771"/>
<path d="M 906.31 1073.53 906.13 1073.12" id="way/1002889772"/>
<path d="M 979.33 1128 968.08 1127.4" id="way/1006461384"/>
<path d="M 979.58 1128.13 979.33 1128" id="way/1006461385"/>
<path d="M 929.87 1125.28 979.43 1127.82" id="way/1006461386"/>
<path d="M 979.43 1127.82 979.7 1127.96" id="way/1006461387"/>
<path d="M 264.83 76.84 256.79 75.59" id="way/1013220766"/>
<path d="M 265.11 76.88 264.83 76.84" id="way/1013220767"/>
<path d="M 256.71 75.52 264.79 76.75" id="way/1013220768"/>
<path d="M 264.79 76.75 265.12 76.79" id="way/1013220769"/>
<path d="M 14.03 76.07 15.72 89.55" id="way/1135127639"/>
<path d="M 15.56 89.59 13.92 75.89" id="way/1135127640"/>
<path d="M 13.92 75.89 13.43 71.91" id="way/1135127641"/>
<path d="M 13.65 71.88 14.03 76.07" id="way/1135127642"/>
<path d="M 863.39 903.56 863.77 899.18" id="way/1149610487"/>
<path d="M 867.54 989.3 867.27 991.24" id="way/1254083415"/>
<path d="M 869.33 976.72 867.54 989.3" id="way/1254083416"/>
<path d="M 405.12 154.41 403.47 157.85" id="way/1254087594"/>
<path d="M 403.44 157.83 405.07 154.4" id="way/1254087595"/>
<path d="M 407.9 236.17 418.35 245.54" id="way/1254215905"/>
<path d="M 418.32 245.59 417.01 244.39 407.83 236.18" id="way/1254215906"/>
<path d="M 418.35 245.54 418.88 246" id="way/1254215907"/>
<path d="M 418.83 246.05 418.32 245.59" id="way/1254215908"/>
<path d="M 454.42 311.25 456.78 317.35" id="way/1254215909"/>
<path d="M 456.74 317.38 454.37 311.27" id="way/1254215910"/>
<path d="M 505.97 340.38 507.49 341.99" id="way/1254215911"/>
<path d="M 507.08 341.75 505.93 340.46" id="way/1254215912"/>
<path d="M 558.69 356.05 561.73 360.21 561.46 362.49 559.95 366.22" id="way/1254215913"/>
<path d="M 558.73 356.13 544.61 355.36" id="way/1254215914"/>
<path d="M 564.65 426.96 566 430.69" id="way/1254215915"/>
<path d="M 565.96 430.79 564.6 426.99" id="way/1254215916"/>
<path d="M 571.72 447.1 570.79 446.4 569.77 445.29 569.07 444.18 568.57 443.08 567.97 440.59" id="way/1254215917"/>
<path d="M 568.12 440.99 568.54 442.83 569.32 444.5 570.84 446.37 571.77 447.06" id="way/1254215918"/>
<path d="M 721.77 458.84 717.18 460.72" id="way/1254364849"/>
<path d="M 810.59 715.89 810.13 707.34" id="way/1254364850"/>
<path d="M 810.18 707.37 810.79 716.29" id="way/1254364851"/>
<path d="M 844.01 791.16 844.63 792.18" id="way/1254364852"/>
<path d="M 842.6 786.54 843.01 777.98" id="way/1254364853"/>
<path d="M 135.02 124.55 140.66 127.87" id="way/1264835467"/>
<path d="M 145.16 130.35 142.62 129.05 134.97 124.54" id="way/1264835468"/>
<path d="M 148.4 131.6 149.43 132.04" id="way/1264835469"/>
<path d="M 149.43 132.04 149.72 132.14" id="way/1264835470"/>
<path d="M 149.34 132.33 148.35 131.91" id="way/1264835471"/>
<path d="M 149.68 132.46 149.34 132.33" id="way/1264835472"/>
<path d="M 114.77 113.41 97.78 119.91" id="way/1266446731"/>
<path d="M 115.27 113.23 114.77 113.41" id="way/1266446732"/>
<path d="M 115.27 113.15 118.69 112.45 120.37 112.68 123.38 114.19" id="way/1266446733"/>
<path d="M 123.21 114.11 115.27 113.23" id="way/1266446734"/>
<path d="M 36.13 114.98 28.41 112.56" id="way/1266446735"/>
<path d="M 37.48 114.81 36.13 114.98" id="way/1266446736"/>
<path d="M 905.15 1109.89 911.57 1116.31" id="way/1305286892"/>
<path d="M 911.54 1116.34 905.11 1109.92" id="way/1305286893"/>
<path d="M 905.11 1109.92 904.24 1105.34" id="way/1305286894"/>
<path d="M 904.27 1105.34 905.15 1109.89" id="way/1305286895"/>
<path d="M 904.24 1105.34 904.6 1092.27" id="way/1305286896"/>
<path d="M 904.65 1092.28 904.27 1105.34" id="way/1305286897"/>
<path d="M 907.71 1084.43 905.93 1089.26" id="way/1305286898"/>
<path d="M 905.93 1088.97 907.63 1084.39" id="way/1305286899"/>
<path d="M 905.93 1089.26 904.65 1092.28" id="way/1305286900"/>
<path d="M 904.6 1092.27 905.93 1088.97" id="way/1305286901"/>
<path d="M 907.83 1081.7 907.71 1084.43" id="way/1305286902"/>
<path d="M 907.63 1084.39 907.74 1081.68" id="way/1305286903"/>
<path d="M 891.88 1049.15 902.53 1066.74 906.16 1073.1" id="way/1305286904"/>
<path d="M 906.13 1073.12 902.53 1066.74 891.8 1049.17" id="way/1305286905"/>
<path d="M 891.03 1043.95 891.88 1049.15" id="way/1305286906"/>
<path d="M 891.8 1049.17 890.95 1043.94" id="way/1305286907"/>
<path d="M 890.95 1043.94 888.9 1034.62" id="way/1305286908"/>
<path d="M 888.93 1034.57 891.03 1043.95" id="way/1305286909"/>
<path d="M 870.19 969.92 869.33 976.72" id="way/1305286910"/>
<path d="M 869.22 976.71 870.14 969.63" id="way/1305286911"/>
<path d="M 870.14 969.63 869.92 965.91" id="way/1305286912"/>
<path d="M 869.95 965.81 870.19 969.92" id="way/1305286913"/>
<path d="M 869.6 950.15 869.95 965.81" id="way/1305286914"/>
<path d="M 869.92 965.91 869.57 950.13" id="way/1305286915"/>
<path d="M 869.29 947.93 869.6 950.15" id="way/1305286916"/>
<path d="M 869.57 950.13 869.25 947.96" id="way/1305286917"/>
<path d="M 861.23 919.8 861.67 925.76" id="way/1305286918"/>
<path d="M 861.63 925.79 861.18 919.79" id="way/1305286919"/>
<path d="M 870.56 847.55 867.87 852.7" id="way/1305286920"/>
<path d="M 867.82 852.68 870.39 847.6" id="way/1305286921"/>
<path d="M 871.13 844.3 870.56 847.55" id="way/1305286922"/>
<path d="M 870.39 847.6 871.04 844.26" id="way/1305286923"/>
<path d="M 861.52 810.35 864.08 815.96" id="way/1305286924"/>
<path d="M 864.05 816.04 861.48 810.39" id="way/1305286925"/>
<path d="M 864.08 815.96 864.48 819.02" id="way/1305286926"/>
<path d="M 864.43 818.87 864.05 816.04" id="way/1305286927"/>
<path d="M 850.12 800.94 851.77 802.39" id="way/1305286928"/>
<path d="M 855.62 804.55 851.78 802.44" id="way/1305286929"/>
<path d="M 842.68 786.53 844.01 791.16" id="way/1305286930"/>
<path d="M 843.95 791.18 842.6 786.54" id="way/1305286931"/>
<path d="M 843.1 776.4 843.86 764.28" id="way/1305286932"/>
<path d="M 844.09 764.2 843.27 776.62" id="way/1305286933"/>
<path d="M 843.86 764.28 837.87 756.1" id="way/1305286934"/>
<path d="M 837.85 755.92 844.09 764.2" id="way/1305286935"/>
<path d="M 821.82 745.82 837.85 755.92" id="way/1305286936"/>
<path d="M 821.32 745.51 816.77 733.68" id="way/1305286937"/>
<path d="M 812.75 727.62 816.79 733.45" id="way/1305286938"/>
<path d="M 816.77 733.68 816.24 732.95" id="way/1305286939"/>
<path d="M 834.04 639.1 834.93 643.23 834.61 645.75" id="way/1305286940"/>
<path d="M 834.61 645.51 834 639.12" id="way/1305286941"/>
<path d="M 830.87 574.43 821.83 584.02" id="way/1305286942"/>
<path d="M 821.8 583.96 830.85 574.36" id="way/1305286943"/>
<path d="M 832.23 568.82 830.87 574.43" id="way/1305286944"/>
<path d="M 830.85 574.36 832.17 568.85" id="way/1305286945"/>
<path d="M 813.53 512.09 815.55 516.47" id="way/1305286946"/>
<path d="M 815.5 516.49 813.48 512.11" id="way/1305286947"/>
<path d="M 802.21 501.7 798.42 500.06" id="way/1305286948"/>
<path d="M 798.42 500.06 791.03 498.78 789.77 498.57 780.21 496.79 777.39 496.33" id="way/1305286949"/>
<path d="M 777.39 496.33 776.31 496.18 774.54 495.62 773.33 494.95 771.92 493.71 770.89 492.26" id="way/1305286950"/>
<path d="M 749.57 473.85 737.38 469.35" id="way/1305286951"/>
<path d="M 729.76 461.86 721.77 458.84" id="way/1305286952"/>
<path d="M 721.72 458.58 729.97 461.79" id="way/1305286953"/>
<path d="M 729.97 461.79 748.32 471.84" id="way/1305286954"/>
<path d="M 748.32 471.84 759.62 479.03" id="way/1305286955"/>
<path d="M 380.87 116.96 381.46 117.26" id="way/1342437520"/>
<path d="M 381.44 117.31 380.87 117.01" id="way/1342437521"/>
<path d="M 405.18 154.28 405.12 154.41" id="way/1348547097"/>
<path d="M 604.74 457.48 607.76 458.27" id="way/1348547100"/>
<path d="M 612.75 458.59 620.86 459.13" id="way/1348547103"/>
<path d="M 670.52 465 671.77 465.24" id="way/1348547104"/>
<path d="M 714.63 460.82 716.75 460.13" id="way/1348547110"/>
<path d="M 822.63 538.53 822.72 538.77" id="way/1348547115"/>
<path d="M 822.89 539.38 822.81 539.17" id="way/1348547116"/>
<path d="M 822.81 539.17 822.77 539.05" id="way/1348547117"/>
<path d="M 681.85 468.27 679.39 467.44" id="way/1348726453"/>
<path d="M 670.85 465.3 667.45 464.47" id="way/1348726454"/>
<path d="M 607.59 458.5 604.7 457.59" id="way/1348726455"/>
<path d="M 405.07 154.4 405.13 154.28" id="way/1348726457"/>
<path d="M 679.45 467.3 681.85 468.13" id="way/1348802965"/>
<path d="M 698.95 465.92 693.1 467.91" id="way/1368015998"/>
<path d="M 679.39 467.44 677.54 466.98" id="way/1417141838"/>
<path d="M 677.54 466.98 674.89 466.34" id="way/1417141839"/>
<path d="M 679.39 467.44 677.56 466.92" id="way/1417141840"/>
<path d="M 677.56 466.92 675.08 466.32" id="way/1417141841"/>
<path d="M 675.14 466.07 677.62 466.69" id="way/1417141845"/>
<path d="M 675.13 465.93 677.65 466.55" id="way/1417141846"/>
<path d="M 152.53 132.81 149.68 132.46" id="way/1451858009"/>
<path d="M 152.82 132.79 152.53 132.81" id="way/1451858010"/>
<path d="M 152.82 132.43 155.47 131.66" id="way/1451858011"/>
<path d="M 152.48 132.46 152.82 132.43" id="way/1451858012"/>
<path d="M 27.8 111.72 16.78 97.14" id="way/1451943010"/>
<path d="M 16.98 97.11 27.77 111.56" id="way/1451943011"/>
<path d="M 15.72 89.55 16.98 97.11" id="way/1451943012"/>
<path d="M 16.78 97.14 15.56 89.59" id="way/1451943013"/>
<path d="M 459.17 319.21 457.93 318.46" id="way/1456887485"/>
<path d="M 459.51 319.37 459.17 319.21" id="way/1456887486"/>
<path d="M 458.01 318.45 459.26 319.2" id="way/1456887487"/>
<path d="M 459.26 319.2 459.5 319.3" id="way/1456887488"/>
<path d="M 540.92 353.18 544.4 355.27" id="way/1460278731"/>
<path d="M 544.43 355.31 540.86 353.2" id="way/1460278732"/>
<path d="M 555.77 375.82 555.19 377.13" id="way/1460278733"/>
<path d="M 555.13 377.11 555.29 376.77" id="way/1460278734"/>
<path d="M 555.19 377.13 553.66 381.13" id="way/1460278735"/>
<path d="M 553.61 381.21 555.13 377.11" id="way/1460278736"/>
</g>
</svg>