<?xml version="1.0"?>
<svg xmlns="http://www.w3.org/2000/svg" version="1.2" baseProfile="tiny" width="1200" height="1189" viewBox="0 0 1200 1189" stroke-linecap="round" stroke-linejoin="round">
<g id="gyeongbu_high" fill="none" stroke="black" stroke-width="1">
<path d="M 495.29 172.23 490.84 168.81" id="way/32607907"/>
<path d="M 509.48 183.09 501.85 177.17" id="way/32607908"/>
<path d="M 526.65 196.17 509.48 183.09" id="way/32607909"/>
<path d="M 528.25 197.43 526.65 196.17" id="way/32607910"/>
<path d="M 531.92 200.26 528.25 197.43" id="way/32607911"/>
<path d="M 533.12 201.18 531.92 200.26" id="way/32607912"/>
<path d="M 537.18 204.34 533.12 201.18" id="way/32607913"/>
<path d="M 490.84 168.81 484.62 163.97" id="way/32608119"/>
<path d="M 331.76 66.92 330.59 66.47" id="way/32608121"/>
<path d="M 377.12 85.51 331.76 66.92" id="way/32608122"/>
<path d="M 381.02 87.92 380.27 87.46" id="way/32608123"/>
<path d="M 386.21 91.38 381.02 87.92" id="way/32608124"/>
<path d="M 422.14 116.03 394.39 96.79" id="way/32608125"/>
<path d="M 460.99 145.76 438.45 128.52" id="way/32608126"/>
<path d="M 462.07 146.59 460.99 145.76" id="way/32608127"/>
<path d="M 323.41 63.78 306.39 57.51" id="way/32608425"/>
<path d="M 237.45 32.01 234.92 31.04" id="way/32608427"/>
<path d="M 241.81 33.62 237.45 32.01" id="way/32608428"/>
<path d="M 261.55 40.92 259.35 40.1" id="way/32608429"/>
<path d="M 278.57 47.16 261.55 40.92" id="way/32608430"/>
<path d="M 291.52 51.99 286.16 49.99" id="way/32608431"/>
<path d="M 304.66 56.86 291.52 51.99" id="way/32608432"/>
<path d="M 306.39 57.51 304.66 56.86" id="way/32608433"/>
<path d="M 105.05 7.28 1.1 1" id="way/32608550"/>
<path d="M 194.63 19.54 193.34 19.3" id="way/38560784"/>
<path d="M 157.5 12.62 143.46 10" id="way/38560785"/>
<path d="M 481.24 161.38 479.39 159.98" id="way/44668755"/>
<path d="M 484.62 163.97 481.24 161.38" id="way/44668756"/>
<path d="M 196.55 19.89 194.63 19.54" id="way/51810364"/>
<path d="M 116.78 7.63 115.69 7.6" id="way/51811865"/>
<path d="M 115.69 7.6 107.56 7.42" id="way/51811866"/>
<path d="M 107.56 7.42 105.05 7.28" id="way/51811867"/>
<path d="M 192.51 19.14 157.5 12.62" id="way/51811883"/>
<path d="M 218.09 24.93 196.55 19.89" id="way/51811889"/>
<path d="M 193.34 19.3 192.51 19.14" id="way/51811891"/>
<path d="M 328.49 65.67 326.11 64.82" id="way/56180287"/>
<path d="M 326.11 64.82 323.41 63.78" id="way/56180293"/>
<path d="M 243.83 34.37 241.81 33.62" id="way/58872117"/>
<path d="M 243.83 34.37 259.35 40.1" id="way/58872124"/>
<path d="M 234.92 31.04 229.16 28.93" id="way/58872146"/>
<path d="M 229.16 28.93 218.09 24.93" id="way/58872148"/>
<path d="M 746.09 336.29 729.27 335.51" id="way/84526791"/>
<path d="M 927.48 341.65 926.2 341.83" id="way/128250835"/>
<path d="M 935.56 340.61 934.57 340.76" id="way/128250836"/>
<path d="M 916 343.03 914.83 343.21" id="way/128250837"/>
<path d="M 936.27 340.53 935.77 340.58" id="way/128250838"/>
<path d="M 918.77 342.7 918.16 342.77" id="way/128250840"/>
<path d="M 961.76 337.35 952.87 338.33" id="way/128250841"/>
<path d="M 934.57 340.76 930.61 341.25" id="way/128250842"/>
<path d="M 914.83 343.21 896.42 343.91" id="way/128250843"/>
<path d="M 952.87 338.33 951.68 338.5" id="way/128250844"/>
<path d="M 935.77 340.58 935.56 340.61" id="way/128250845"/>
<path d="M 926.2 341.83 922.47 342.32" id="way/128250846"/>
<path d="M 930.61 341.25 930.16 341.31" id="way/128250847"/>
<path d="M 922.47 342.32 919.15 342.67" id="way/128250848"/>
<path d="M 919.15 342.67 918.77 342.7" id="way/128250849"/>
<path d="M 930.16 341.31 927.48 341.65" id="way/128250850"/>
<path d="M 918.16 342.77 916 343.03" id="way/128250851"/>
<path d="M 943.86 339.51 936.27 340.53" id="way/128250853"/>
<path d="M 1150.93 696.87 1150.93 696.59 1151.17 691.24" id="way/128255575"/>
<path d="M 1156.93 641.81 1157.46 639.93" id="way/128255578"/>
<path d="M 1136.15 942.37 1137.14 938.99" id="way/128255581"/>
<path d="M 1151.17 691.24 1151.64 682.47" id="way/128255583"/>
<path d="M 1198.79 476.39 1198.77 476.65" id="way/128255584"/>
<path d="M 1195.58 507.05 1195.68 506.15" id="way/128255585"/>
<path d="M 1195.08 511.84 1195.18 511" id="way/128255586"/>
<path d="M 1186.52 568.44 1186.65 568.12" id="way/128255587"/>
<path d="M 1190.11 556.11 1190.18 555.74" id="way/128255588"/>
<path d="M 1149.97 715.31 1149.99 714.97" id="way/128255589"/>
<path d="M 1148.45 745.32 1148.52 744.19" id="way/128255590"/>
<path d="M 1161.46 626.01 1162.31 623.02" id="way/128255591"/>
<path d="M 1193 442.63 1192.3 441.08" id="way/128255593"/>
<path d="M 1191.42 546.54 1195.05 512.13" id="way/128255594"/>
<path d="M 1162.31 623.02 1163.16 620.06" id="way/128255595"/>
<path d="M 1154.5 402.67 1160.49 406.69" id="way/128255596"/>
<path d="M 1183.87 574.32 1185.19 571.54" id="way/128255597"/>
<path d="M 1195.05 512.13 1195.08 511.84" id="way/128255598"/>
<path d="M 1188.22 563.54 1188.5 562.62" id="way/128255599"/>
<path d="M 1139.64 920.14 1139.91 914.63" id="way/128255600"/>
<path d="M 1198.39 462.58 1198.29 461.95" id="way/128255601"/>
<path d="M 1159.72 632.06 1161.46 626.01" id="way/128255602"/>
<path d="M 1113.52 374.02 1096.27 362.16" id="way/128255603"/>
<path d="M 1150.26 709.6 1150.34 707.9" id="way/128255604"/>
<path d="M 1149 734.66 1149.09 732.6" id="way/128255607"/>
<path d="M 1195.18 511 1195.34 509.53" id="way/128255608"/>
<path d="M 1151.64 682.47 1151.96 675.77 1152.1 673.79" id="way/128255609"/>
<path d="M 1137.14 938.99 1138.2 934.33" id="way/128255610"/>
<path d="M 1171.22 598.09 1172.84 594.93" id="way/128255611"/>
<path d="M 1138.2 934.33 1139.24 926.78" id="way/128255612"/>
<path d="M 1116.33 375.85 1113.52 374.02" id="way/128255613"/>
<path d="M 1113.1 980.86 1115.9 976.93" id="way/128255614"/>
<path d="M 1195.47 508.19 1195.58 507.05" id="way/128255616"/>
<path d="M 1190.77 551.99 1190.87 551.31" id="way/128255617"/>
<path d="M 1149.94 715.91 1149.97 715.31" id="way/128255618"/>
<path d="M 1153.44 656.41 1153.47 656.23" id="way/128255619"/>
<path d="M 1149.2 730.46 1149.26 729.07" id="way/128255621"/>
<path d="M 1153.54 655.69 1153.56 655.57" id="way/128255622"/>
<path d="M 1188.5 562.62 1189.28 559.75" id="way/128255623"/>
<path d="M 1185.9 569.93 1185.98 569.76" id="way/128255624"/>
<path d="M 1198.29 461.95 1197.49 457.02" id="way/128255625"/>
<path d="M 1153.56 655.57 1153.98 653.43" id="way/128255626"/>
<path d="M 1149.75 719.73 1149.88 717.23" id="way/128255627"/>
<path d="M 1141.35 886.25 1141.51 883.24" id="way/128255628"/>
<path d="M 1177.93 585.57 1178.64 584.24" id="way/128255629"/>
<path d="M 1116.41 976.19 1128.4 959.12" id="way/128255630"/>
<path d="M 1150.2 710.7 1150.26 709.6" id="way/128255631"/>
<path d="M 1191.11 549.52 1191.42 546.54" id="way/128255632"/>
<path d="M 1149.26 729.07 1149.58 722.86" id="way/128255633"/>
<path d="M 1190.41 437.28 1185.48 429.32" id="way/128255634"/>
<path d="M 1095.91 361.97 1093.57 360.66" id="way/128255635"/>
<path d="M 1148.52 744.19 1148.64 741.63" id="way/128255637"/>
<path d="M 1148.99 735.01 1149 734.66" id="way/128255638"/>
<path d="M 1096.27 362.16 1095.91 361.97" id="way/128255639"/>
<path d="M 1165.51 611.96 1166.59 608.58" id="way/128255640"/>
<path d="M 1167.99 604.94 1169.92 600.65" id="way/128255641"/>
<path d="M 1139.24 926.78 1139.53 922.27" id="way/128255642"/>
<path d="M 1198.79 476.39 1198.95 471.49" id="way/128255643"/>
<path d="M 1193.67 444.29 1193 442.63" id="way/128255644"/>
<path d="M 1145.24 395.88 1150.25 399.65" id="way/128255645"/>
<path d="M 1153.47 656.23 1153.54 655.69" id="way/128255646"/>
<path d="M 1197.49 457.02 1196.96 454.66" id="way/128255647"/>
<path d="M 1185.39 571.12 1185.9 569.93" id="way/128255648"/>
<path d="M 1150.34 707.9 1150.5 704.72" id="way/128255649"/>
<path d="M 1139.53 922.27 1139.64 920.14" id="way/128255650"/>
<path d="M 1149.99 714.97 1150.2 710.7" id="way/128255651"/>
<path d="M 1182.24 577.5 1182.46 577.13" id="way/128255652"/>
<path d="M 1186.65 568.12 1187.96 564.39" id="way/128255653"/>
<path d="M 1173.72 593.29 1174.04 592.83" id="way/128255654"/>
<path d="M 1190.87 551.31 1191.11 549.52" id="way/128255655"/>
<path d="M 1182.24 425.16 1177.23 419.75" id="way/128255658"/>
<path d="M 1196.96 454.66 1193.67 444.29" id="way/128255659"/>
<path d="M 1152.1 673.64 1152.71 663.07" id="way/128255661"/>
<path d="M 1177.23 419.75 1160.49 406.69" id="way/128255662"/>
<path d="M 1192.3 441.08 1190.41 437.28" id="way/128255663"/>
<path d="M 1167.61 605.87 1167.99 604.94" id="way/128255664"/>
<path d="M 1028.51 336 1024.13 334.98" id="way/128255665"/>
<path d="M 1141.31 886.82 1141.35 886.25" id="way/128255666"/>
<path d="M 1185.48 429.32 1183.98 427.33" id="way/128255667"/>
<path d="M 1195.68 506.15 1195.83 504.75" id="way/128255668"/>
<path d="M 1093.57 360.66 1091.93 359.71" id="way/128255669"/>
<path d="M 1150.5 704.72 1150.94 697.18" id="way/128255670"/>
<path d="M 1195.83 504.75 1198.5 480.94" id="way/128255671"/>
<path d="M 1111.19 983.45 1111.47 983.07" id="way/128255672"/>
<path d="M 1145.24 395.88 1144.51 395.39 1124 381.27" id="way/128255673"/>
<path d="M 1187.96 564.39 1188.22 563.54" id="way/128255674"/>
<path d="M 1152.1 673.79 1152.1 673.64" id="way/128255675"/>
<path d="M 1190.58 553.38 1190.77 551.99" id="way/128255677"/>
<path d="M 1182.46 577.13 1182.9 576.28" id="way/128255678"/>
<path d="M 1182.9 576.28 1183.87 574.32" id="way/128255679"/>
<path d="M 1195.34 509.53 1195.47 508.19" id="way/128255680"/>
<path d="M 1149.1 732.34 1149.2 730.46" id="way/128255681"/>
<path d="M 1185.98 569.76 1186.52 568.44" id="way/128255682"/>
<path d="M 1124 381.27 1119.53 378.1" id="way/128255683"/>
<path d="M 1109.77 985.49 1111.19 983.45" id="way/128255684"/>
<path d="M 1157.99 638.08 1159.72 632.06" id="way/128255685"/>
<path d="M 1154.5 402.67 1150.25 399.65" id="way/128255686"/>
<path d="M 1139.91 914.63 1141.31 886.82" id="way/128255687"/>
<path d="M 1153.98 653.43 1156.93 641.81" id="way/128255688"/>
<path d="M 1150.94 697.18 1150.93 696.87" id="way/128255689"/>
<path d="M 1152.9 660.38 1152.91 660.22" id="way/128255692"/>
<path d="M 1198.95 471.49 1198.94 470.06" id="way/128255693"/>
<path d="M 1157.46 639.93 1157.68 639.15" id="way/128255694"/>
<path d="M 1185.19 571.54 1185.39 571.12" id="way/128255695"/>
<path d="M 1190.18 555.74 1190.58 553.38" id="way/128255696"/>
<path d="M 1189.93 556.97 1190.11 556.11" id="way/128255697"/>
<path d="M 1119.53 378.1 1116.33 375.85" id="way/128255698"/>
<path d="M 1152.91 660.22 1153.44 656.41" id="way/128255699"/>
<path d="M 1148.7 740.54 1148.99 735.01" id="way/128255700"/>
<path d="M 1198.94 470.06 1198.39 462.58" id="way/128255701"/>
<path d="M 1149.09 732.6 1149.1 732.34" id="way/128255702"/>
<path d="M 1010.51 333.03 961.76 337.35" id="way/128255703"/>
<path d="M 1115.9 976.93 1116.41 976.19" id="way/128255705"/>
<path d="M 1128.4 959.12 1130.55 955.5" id="way/128255706"/>
<path d="M 1141.53 882.75 1148.45 745.32" id="way/128255707"/>
<path d="M 1198.58 478.93 1198.77 476.65" id="way/128255708"/>
<path d="M 1178.64 584.24 1182.24 577.5" id="way/128255709"/>
<path d="M 1166.59 608.58 1167.61 605.87" id="way/128255710"/>
<path d="M 1198.5 480.94 1198.58 478.93" id="way/128255711"/>
<path d="M 1163.16 620.06 1165.51 611.96" id="way/128255712"/>
<path d="M 1091.93 359.71 1028.51 336" id="way/128255713"/>
<path d="M 1149.58 722.86 1149.75 719.73" id="way/128255714"/>
<path d="M 1174.04 592.83 1177.93 585.57" id="way/128255715"/>
<path d="M 1172.84 594.93 1173.72 593.29" id="way/128255716"/>
<path d="M 1189.28 559.75 1189.93 556.97" id="way/128255717"/>
<path d="M 1169.92 600.65 1171.22 598.09" id="way/128255718"/>
<path d="M 1141.51 883.24 1141.53 882.75" id="way/128255719"/>
<path d="M 1183.98 427.33 1182.24 425.16" id="way/128255720"/>
<path d="M 1109.33 986.16 1109.77 985.49" id="way/128255721"/>
<path d="M 1157.68 639.15 1157.99 638.08" id="way/128255722"/>
<path d="M 1149.88 717.23 1149.94 715.91" id="way/128255723"/>
<path d="M 1148.64 741.63 1148.7 740.54" id="way/128255724"/>
<path d="M 1062.48 1183.57 1063.26 1181.84" id="way/165348353"/>
<path d="M 1062.62 1183.62 1063.26 1181.84" id="way/165348354"/>
<path d="M 1061.39 1186.51 1062.48 1183.57" id="way/165348360"/>
<path d="M 1062.7 1183.65 1063.61 1181.04" id="way/165348374"/>
<path d="M 1068.88 1170.59 1066.71 1173.06" id="way/165359870"/>
<path d="M 1063.65 1180.81 1063.92 1180.12" id="way/165359874"/>
<path d="M 1068.85 1170.57 1070.26 1169.1" id="way/165360176"/>
<path d="M 1068.88 1170.59 1070.29 1169.12" id="way/165360177"/>
<path d="M 1070.26 1169.1 1073.7 1132.27 1084.72 1120.4" id="way/165360828"/>
<path d="M 557.01 221.91 556.19 220.81" id="way/167980995"/>
<path d="M 729.27 335.51 727.88 335.35" id="way/168403659"/>
<path d="M 755.22 336.73 751.33 336.54" id="way/168404024"/>
<path d="M 772.12 337.57 762.83 337.11" id="way/168404025"/>
<path d="M 727.88 335.35 725.04 334.5" id="way/168404680"/>
<path d="M 703.34 317.49 680.05 305.2" id="way/168404682"/>
<path d="M 705.29 318.52 703.34 317.49" id="way/168404683"/>
<path d="M 721.46 332.12 718.99 329.01" id="way/168404684"/>
<path d="M 725.04 334.5 722.09 332.67" id="way/168404685"/>
<path d="M 1150.28 399.61 1154.54 402.63" id="way/175745974"/>
<path d="M 1063.92 1180.12 1066.67 1173.04" id="way/245426791"/>
<path d="M 718.99 329.01 707.67 319.81" id="way/309737879"/>
<path d="M 707.67 319.81 705.29 318.52" id="way/309737880"/>
<path d="M 721.86 332.48 721.46 332.12" id="way/311776906"/>
<path d="M 722.09 332.67 721.86 332.48" id="way/311776907"/>
<path d="M 1066.71 1173.06 1063.81 1180.5" id="way/314204935"/>
<path d="M 1066.67 1173.04 1068.85 1170.57" id="way/314204936"/>
<path d="M 775.99 337.76 772.12 337.57" id="way/334273926"/>
<path d="M 784.61 338.16 779.75 337.92" id="way/334273927"/>
<path d="M 779.75 337.92 777.85 337.86" id="way/334273928"/>
<path d="M 776.39 337.78 775.99 337.76" id="way/334273929"/>
<path d="M 777.85 337.86 776.39 337.78" id="way/334273930"/>
<path d="M 896.42 343.91 888.67 343.53" id="way/334273931"/>
<path d="M 563.89 297.07 563.19 296.28" id="way/339646729"/>
<path d="M 558.21 285.12 558.63 287.34" id="way/339646736"/>
<path d="M 563.23 296.24 563.93 297.02" id="way/339646741"/>
<path d="M 558.63 287.34 558.81 288.02" id="way/339646746"/>
<path d="M 558.57 287.36 558.13 285.13" id="way/339646755"/>
<path d="M 558.81 288.02 563.23 296.24" id="way/339646759"/>
<path d="M 558.74 288.03 558.57 287.36" id="way/339646765"/>
<path d="M 563.19 296.28 558.74 288.03" id="way/339646769"/>
<path d="M 619.96 303.46 603.76 305.99" id="way/339646774"/>
<path d="M 563.93 297.02 589.38 305.12" id="way/339646775"/>
<path d="M 589.37 305.18 563.89 297.07" id="way/339646776"/>
<path d="M 589.38 305.12 595.54 305.54" id="way/339646777"/>
<path d="M 558.13 285.13 559.11 268.02" id="way/339669444"/>
<path d="M 559.81 260.87 559.78 261.25" id="way/339669445"/>
<path d="M 559.18 267.14 559.21 265.92" id="way/339669446"/>
<path d="M 559.27 267.15 559.19 268.03" id="way/339669448"/>
<path d="M 559.27 265.91 559.27 267.15" id="way/339669449"/>
<path d="M 559.21 265.92 559.7 261.24" id="way/339669450"/>
<path d="M 559.78 261.25 559.27 265.91" id="way/339669451"/>
<path d="M 559.7 261.24 559.73 260.86" id="way/339669452"/>
<path d="M 559.19 268.03 558.21 285.12" id="way/339671208"/>
<path d="M 559.11 268.02 559.18 267.14" id="way/339671210"/>
<path d="M 479.43 159.93 481.28 161.34" id="way/367208211"/>
<path d="M 545.1 210.47 542.73 208.63" id="way/367208212"/>
<path d="M 556.23 220.77 557.08 221.9" id="way/367208215"/>
<path d="M 556.19 220.81 553.96 218.02" id="way/367208216"/>
<path d="M 554.02 217.99 556.23 220.77" id="way/367208217"/>
<path d="M 553.96 218.02 549.87 214.12" id="way/367208218"/>
<path d="M 549.91 214.07 554.02 217.99" id="way/367208219"/>
<path d="M 549.87 214.12 545.1 210.47" id="way/367208220"/>
<path d="M 545.14 210.41 549.91 214.07" id="way/367208221"/>
<path d="M 557.08 221.9 559.81 260.87" id="way/367208752"/>
<path d="M 559.73 260.86 557.01 221.91" id="way/367208754"/>
<path d="M 595.54 305.54 603.29 305.99" id="way/400847974"/>
<path d="M 595.53 305.59 589.37 305.18" id="way/400847975"/>
<path d="M 603.76 305.95 619.98 303.42" id="way/400854131"/>
<path d="M 603.29 305.99 603.76 305.95" id="way/400854135"/>
<path d="M 603.76 305.99 603.28 306.04" id="way/400854136"/>
<path d="M 603.28 306.04 595.53 305.59" id="way/400854137"/>
<path d="M 707.73 319.77 719.04 328.97" id="way/407197523"/>
<path d="M 1177.97 585.59 1174.11 592.87" id="way/407197524"/>
<path d="M 1153.51 656.24 1153.49 656.42" id="way/407197525"/>
<path d="M 1116.37 375.8 1119.57 378.05" id="way/407197527"/>
<path d="M 1150.02 715.31 1149.98 715.91" id="way/407197528"/>
<path d="M 1149.98 715.91 1149.92 717.23" id="way/407197529"/>
<path d="M 1119.57 378.05 1124.04 381.22" id="way/407197530"/>
<path d="M 1191.16 549.52 1190.92 551.32" id="way/407197531"/>
<path d="M 930.15 341.25 930.6 341.19" id="way/407197532"/>
<path d="M 1149.31 729.08 1149.25 730.46" id="way/407197534"/>
<path d="M 926.2 341.77 927.47 341.59" id="way/407197535"/>
<path d="M 1152.19 673.64 1152.17 673.79" id="way/407197537"/>
<path d="M 1148.74 740.54 1148.68 741.64" id="way/407197538"/>
<path d="M 1188.55 562.63 1188.26 563.56" id="way/407197539"/>
<path d="M 1197.01 454.65 1197.53 457.01" id="way/407197540"/>
<path d="M 1195.63 507.05 1195.52 508.2" id="way/407197542"/>
<path d="M 1115.94 976.96 1113.15 980.89" id="way/407197543"/>
<path d="M 1195.22 511.01 1195.13 511.84" id="way/407197544"/>
<path d="M 777.85 337.8 779.75 337.86" id="way/407197545"/>
<path d="M 1145.22 395.93 1144.51 395.39" id="way/407197546"/>
<path d="M 1111.24 983.48 1109.82 985.51" id="way/407197547"/>
<path d="M 1165.55 611.97 1163.2 620.07" id="way/407197548"/>
<path d="M 1095.94 361.92 1096.3 362.11" id="way/407197549"/>
<path d="M 1186.56 568.46 1186.02 569.78" id="way/407197550"/>
<path d="M 1195.1 512.14 1191.46 546.55" id="way/407197551"/>
<path d="M 1192.34 441.06 1193.04 442.61" id="way/407197552"/>
<path d="M 1153.61 655.58 1153.59 655.7" id="way/407197553"/>
<path d="M 775.99 337.7 776.39 337.72" id="way/407197554"/>
<path d="M 1198.34 461.94 1198.43 462.57" id="way/407197555"/>
<path d="M 918.15 342.71 918.77 342.64" id="way/407197556"/>
<path d="M 1151 696.88 1151 697.19" id="way/407197557"/>
<path d="M 727.89 335.29 729.27 335.45" id="way/407197559"/>
<path d="M 1189.32 559.76 1188.55 562.63" id="way/407197560"/>
<path d="M 1173.79 593.31 1172.9 594.97" id="way/407197561"/>
<path d="M 1198.82 476.66 1198.84 476.4" id="way/407197562"/>
<path d="M 1091.96 359.66 1093.6 360.6" id="way/407197563"/>
<path d="M 1188.26 563.56 1188 564.4" id="way/407197564"/>
<path d="M 1150.31 709.6 1150.25 710.7" id="way/407197565"/>
<path d="M 1153.59 655.7 1153.51 656.24" id="way/407197566"/>
<path d="M 1150.25 710.7 1150.04 714.97" id="way/407197567"/>
<path d="M 1149.25 730.46 1149.15 732.34" id="way/407197568"/>
<path d="M 1151 697.19 1150.55 704.72" id="way/407197569"/>
<path d="M 1151.22 691.24 1151.08 694.25 1151 696.88" id="way/407197570"/>
<path d="M 1149.05 734.66 1149.04 735.01" id="way/407197571"/>
<path d="M 1093.6 360.6 1095.94 361.92" id="way/407197572"/>
<path d="M 1152.17 673.79 1152.03 675.5 1151.69 682.47" id="way/407197573"/>
<path d="M 1178.68 584.27 1177.97 585.59" id="way/407197575"/>
<path d="M 1139.69 920.15 1139.58 922.28" id="way/407197576"/>
<path d="M 1198.82 476.66 1198.62 478.94" id="way/407197577"/>
<path d="M 703.37 317.44 705.3 318.47" id="way/407197578"/>
<path d="M 1182.28 577.52 1178.68 584.27" id="way/407197579"/>
<path d="M 1109.82 985.51 1109.37 986.19" id="way/407197581"/>
<path d="M 1157.51 639.94 1156.97 641.82" id="way/407197582"/>
<path d="M 1183.91 574.34 1182.95 576.3" id="way/407197583"/>
<path d="M 772.13 337.51 775.99 337.7" id="way/407197584"/>
<path d="M 1199 471.49 1198.84 476.4" id="way/407197585"/>
<path d="M 1137.19 939 1136.2 942.38" id="way/407197586"/>
<path d="M 1141.58 882.76 1141.55 883.24" id="way/407197587"/>
<path d="M 1161.51 626.03 1159.76 632.07" id="way/407197588"/>
<path d="M 1144.53 395.34 1145.3 395.79" id="way/407197589"/>
<path d="M 935.55 340.55 935.76 340.52" id="way/407197590"/>
<path d="M 1166.63 608.6 1165.55 611.97" id="way/407197591"/>
<path d="M 1190.82 551.99 1190.63 553.39" id="way/407197594"/>
<path d="M 1182.28 425.13 1184.05 427.34" id="way/407197595"/>
<path d="M 762.79 337.04 772.13 337.51" id="way/407197596"/>
<path d="M 721.51 332.08 721.9 332.44" id="way/407197597"/>
<path d="M 1186.69 568.14 1186.56 568.46" id="way/407197598"/>
<path d="M 1150.39 707.9 1150.31 709.6" id="way/407197599"/>
<path d="M 1145.28 395.84 1150.28 399.61" id="way/407197600"/>
<path d="M 1172.9 594.97 1171.26 598.11" id="way/407197601"/>
<path d="M 1152.96 660.22 1152.94 660.38" id="way/407197602"/>
<path d="M 1198.6 480.95 1195.88 504.75" id="way/407197603"/>
<path d="M 776.39 337.72 777.85 337.8" id="way/407197604"/>
<path d="M 1139.96 914.64 1139.69 920.15" id="way/407197605"/>
<path d="M 1198.62 478.94 1198.6 480.95" id="way/407197606"/>
<path d="M 1159.76 632.07 1158.03 638.09" id="way/407197607"/>
<path d="M 1149.04 735.01 1148.74 740.54" id="way/407197608"/>
<path d="M 721.9 332.44 722.13 332.62" id="way/407197609"/>
<path d="M 1195.73 506.16 1195.63 507.05" id="way/407197610"/>
<path d="M 1141.4 886.25 1141.36 886.82" id="way/407197611"/>
<path d="M 1182.95 576.3 1182.5 577.15" id="way/407197612"/>
<path d="M 1152.94 660.38 1152.83 661.63" id="way/407197613"/>
<path d="M 1154.02 653.44 1153.61 655.58" id="way/407197614"/>
<path d="M 918.77 342.64 919.14 342.61" id="way/407197615"/>
<path d="M 1149.15 732.34 1149.14 732.6" id="way/407197616"/>
<path d="M 1171.26 598.11 1169.96 600.67" id="way/407197617"/>
<path d="M 1190.23 555.75 1190.15 556.12" id="way/407197618"/>
<path d="M 1148.56 744.2 1148.5 745.32" id="way/407197620"/>
<path d="M 916 342.97 918.15 342.71" id="way/407197621"/>
<path d="M 1152.76 663.07 1152.19 673.64" id="way/407197622"/>
<path d="M 1188 564.4 1186.69 568.14" id="way/407197623"/>
<path d="M 1150.04 714.97 1150.02 715.31" id="way/407197624"/>
<path d="M 1190.92 551.32 1190.82 551.99" id="way/407197625"/>
<path d="M 1198.99 470.06 1199 471.49" id="way/407197626"/>
<path d="M 936.27 340.46 943.85 339.45" id="way/407197627"/>
<path d="M 1174.11 592.87 1173.79 593.31" id="way/407197628"/>
<path d="M 1191.46 546.55 1191.16 549.52" id="way/407197629"/>
<path d="M 1185.24 571.56 1183.91 574.34" id="way/407197630"/>
<path d="M 1162.36 623.03 1161.51 626.03" id="way/407197631"/>
<path d="M 1149.63 722.86 1149.31 729.08" id="way/407197632"/>
<path d="M 1141.55 883.24 1141.4 886.25" id="way/407197633"/>
<path d="M 1189.98 556.98 1189.32 559.76" id="way/407197634"/>
<path d="M 1185.94 569.95 1185.43 571.14" id="way/407197635"/>
<path d="M 1163.2 620.07 1162.36 623.03" id="way/407197636"/>
<path d="M 952.86 338.28 962.18 337.24" id="way/407197637"/>
<path d="M 1193.04 442.61 1193.71 444.28" id="way/407197638"/>
<path d="M 1149.14 732.6 1149.05 734.66" id="way/407197639"/>
<path d="M 1185.43 571.14 1185.24 571.56" id="way/407197640"/>
<path d="M 1150.55 704.72 1150.39 707.9" id="way/407197641"/>
<path d="M 1148.68 741.64 1148.56 744.2" id="way/407197642"/>
<path d="M 930.6 341.19 934.56 340.7" id="way/407197643"/>
<path d="M 1195.52 508.2 1195.39 509.53" id="way/407197644"/>
<path d="M 1182.5 577.15 1182.28 577.52" id="way/407197645"/>
<path d="M 1153.49 656.42 1152.96 660.22" id="way/407197646"/>
<path d="M 1149.92 717.23 1149.79 719.73" id="way/407197647"/>
<path d="M 934.56 340.7 935.55 340.55" id="way/407197648"/>
<path d="M 1190.63 553.39 1190.23 555.75" id="way/407197650"/>
<path d="M 1149.79 719.73 1149.63 722.86" id="way/407197651"/>
<path d="M 1168.03 604.96 1167.65 605.89" id="way/407197652"/>
<path d="M 914.83 343.15 916 342.97" id="way/407197653"/>
<path d="M 1158.03 638.09 1157.73 639.16" id="way/407197654"/>
<path d="M 1190.15 556.12 1189.98 556.98" id="way/407197655"/>
<path d="M 1152.83 661.63 1152.76 663.07" id="way/407197656"/>
<path d="M 1195.39 509.53 1195.22 511.01" id="way/407197657"/>
<path d="M 1113.53 373.96 1116.37 375.8" id="way/407197658"/>
<path d="M 1141.36 886.82 1139.96 914.64" id="way/407197659"/>
<path d="M 1195.88 504.75 1195.73 506.16" id="way/407197660"/>
<path d="M 1148.5 745.32 1141.58 882.76" id="way/407197661"/>
<path d="M 1195.13 511.84 1195.1 512.14" id="way/407197662"/>
<path d="M 1116.45 976.22 1115.94 976.96" id="way/407197663"/>
<path d="M 935.76 340.52 936.27 340.46" id="way/407197664"/>
<path d="M 1190.45 437.26 1192.34 441.06" id="way/407197665"/>
<path d="M 1157.73 639.16 1157.51 639.94" id="way/407197666"/>
<path d="M 1186.02 569.78 1185.94 569.95" id="way/407197667"/>
<path d="M 1124.04 381.22 1144.53 395.34 1145.28 395.84" id="way/407197668"/>
<path d="M 729.27 335.45 746.09 336.23" id="way/407197669"/>
<path d="M 943.85 339.45 944.78 339.33" id="way/407197670"/>
<path d="M 1197.53 457.01 1198.34 461.94" id="way/407197671"/>
<path d="M 1198.43 462.57 1198.99 470.06" id="way/407197673"/>
<path d="M 1169.96 600.67 1168.03 604.96" id="way/407197674"/>
<path d="M 1138.24 934.34 1137.19 939" id="way/407197675"/>
<path d="M 896.42 343.84 914.83 343.15" id="way/407197676"/>
<path d="M 1139.58 922.28 1139.28 926.79" id="way/407197677"/>
<path d="M 922.47 342.26 926.2 341.77" id="way/407197678"/>
<path d="M 1177.26 419.71 1182.28 425.13" id="way/407197679"/>
<path d="M 751.33 336.47 755.22 336.67" id="way/407197680"/>
<path d="M 705.3 318.47 707.73 319.77" id="way/407197681"/>
<path d="M 927.47 341.59 930.15 341.25" id="way/407197682"/>
<path d="M 1167.65 605.89 1166.63 608.6" id="way/407197683"/>
<path d="M 1113.15 980.89 1112.99 981.09" id="way/407197684"/>
<path d="M 1096.3 362.11 1113.53 373.96" id="way/407197685"/>
<path d="M 1160.52 406.64 1177.26 419.71" id="way/407197687"/>
<path d="M 1139.28 926.79 1138.24 934.34" id="way/407197688"/>
<path d="M 1185.52 429.29 1190.45 437.26" id="way/407197689"/>
<path d="M 680.03 305.13 703.37 317.44" id="way/407197690"/>
<path d="M 1145.3 395.79 1147.87 397.78" id="way/407197691"/>
<path d="M 1156.97 641.82 1154.02 653.44" id="way/407197692"/>
<path d="M 784.61 338.09 822.57 340.07" id="way/407197693"/>
<path d="M 1154.54 402.63 1160.52 406.64" id="way/407197694"/>
<path d="M 1028.53 335.94 1091.96 359.66" id="way/407197695"/>
<path d="M 962.18 337.24 1010.52 332.97" id="way/407197696"/>
<path d="M 725.06 334.44 727.89 335.29" id="way/407197697"/>
<path d="M 719.04 328.97 721.51 332.08" id="way/407197699"/>
<path d="M 1010.52 332.97 1011.1 333.01" id="way/407197700"/>
<path d="M 1193.71 444.28 1197.01 454.65" id="way/407197701"/>
<path d="M 722.13 332.62 725.06 334.44" id="way/407197702"/>
<path d="M 919.14 342.61 922.47 342.26" id="way/407197703"/>
<path d="M 1136.2 942.38 1133.6 949.39" id="way/407197704"/>
<path d="M 1128.44 959.14 1116.45 976.22" id="way/407197707"/>
<path d="M 1084.76 1120.4 1073.73 1132.31 1070.29 1169.12" id="way/407197708"/>
<path d="M 1060.92 1187.76 1061.39 1186.51" id="way/407197709"/>
<path d="M 1063.26 1181.84 1063.65 1180.81" id="way/407197710"/>
<path d="M 1061.25 1187.54 1062.7 1183.65" id="way/407197711"/>
<path d="M 1151.15 689.9 1151.04 689.01 1150.94 688.07 1151.01 686.56" id="way/407204557"/>
<path d="M 1151.27 688.66 1151.51 684.31" id="way/407204558"/>
<path d="M 1151.67 684.32 1151.45 688.67" id="way/407204562"/>
<path d="M 1151.45 688.67 1151.29 691.25" id="way/407204564"/>
<path d="M 1151.29 691.25 1151.08 694.25" id="way/407204565"/>
<path d="M 1151.12 688.67 1151.37 684.31" id="way/407204566"/>
<path d="M 1151.37 684.31 1151.56 683.14" id="way/407204567"/>
<path d="M 1152.03 675.5 1151.76 682.47" id="way/407204568"/>
<path d="M 1151.1 691.24 1151.15 690.58 1151.27 688.66" id="way/407204569"/>
<path d="M 1151.07 686.56 1151.02 688.6" id="way/407204570"/>
<path d="M 1151.69 682.47 1151.22 691.24" id="way/407204571"/>
<path d="M 1151.15 690.58 1151.15 689.9 1151.12 688.67" id="way/407204572"/>
<path d="M 1150.93 696.59 1151.1 691.24" id="way/407204573"/>
<path d="M 1151.58 682.47 1151.96 675.77" id="way/407204574"/>
<path d="M 1151.04 689.01 1151.02 688.6 1151.24 684.53" id="way/407204575"/>
<path d="M 1151.76 682.47 1151.67 684.32" id="way/407205005"/>
<path d="M 1151.51 684.31 1151.56 683.14 1151.58 682.47" id="way/407205006"/>
<path d="M 678.54 305.61 678.81 305.45" id="way/407698898"/>
<path d="M 646.94 313.04 644.14 312.1" id="way/407698912"/>
<path d="M 650.82 314.09 654.13 313.42" id="way/407698915"/>
<path d="M 654.14 313.46 650.82 314.13" id="way/407698922"/>
<path d="M 635.03 309.85 638.58 310.62" id="way/407698984"/>
<path d="M 654.13 313.42 656.24 312.7" id="way/407698996"/>
<path d="M 647.23 313.14 646.94 313.04" id="way/407698997"/>
<path d="M 656.26 312.75 654.14 313.46" id="way/407698998"/>
<path d="M 646.95 313 647.23 313.1" id="way/407699004"/>
<path d="M 674.14 306.93 678.81 305.45 680.03 305.13" id="way/407699009"/>
<path d="M 665.92 309.52 666.5 309.38" id="way/407699010"/>
<path d="M 650.28 314.04 650.82 314.09" id="way/407699012"/>
<path d="M 650.82 314.13 650.27 314.08" id="way/407699013"/>
<path d="M 680.05 305.2 678.54 305.61 677.9 305.8 675.59 306.79 674.27 307.52" id="way/407699014"/>
<path d="M 650.27 314.08 647.23 313.14" id="way/407699027"/>
<path d="M 647.23 313.1 650.28 314.04" id="way/407699028"/>
<path d="M 668.09 308.83 670.21 308.32" id="way/407699034"/>
<path d="M 620.34 303.76 624.67 307.32" id="way/407699065"/>
<path d="M 624.66 307.35 620.31 303.79" id="way/407699066"/>
<path d="M 635.02 309.89 634.66 309.81" id="way/407699067"/>
<path d="M 634.66 309.81 627.91 308.19" id="way/407699068"/>
<path d="M 627.91 308.19 627.48 308.08" id="way/407699069"/>
<path d="M 627.45 308.04 627.88 308.14" id="way/407699070"/>
<path d="M 627.48 308.08 625.28 307.54" id="way/407699071"/>
<path d="M 624.67 307.32 625.29 307.51" id="way/407699072"/>
<path d="M 619.98 303.42 620.34 303.76" id="way/407699073"/>
<path d="M 620.31 303.79 619.96 303.46" id="way/407699074"/>
<path d="M 625.29 307.51 627.45 308.04" id="way/407699075"/>
<path d="M 627.88 308.14 634.67 309.77" id="way/407699076"/>
<path d="M 625.28 307.54 624.66 307.35" id="way/407699077"/>
<path d="M 656.24 312.7 661.07 311.06" id="way/407720291"/>
<path d="M 674.19 307.13 676.16 306.44 677.9 305.8" id="way/407720294"/>
<path d="M 675.33 306.73 676.16 306.44" id="way/407720301"/>
<path d="M 671.17 307.84 672.71 307.38" id="way/407720305"/>
<path d="M 675.59 306.79 675.2 306.96 674.27 307.37" id="way/407720307"/>
<path d="M 675.2 306.96 674.24 307.3" id="way/407720311"/>
<path d="M 665.55 309.63 665.14 309.79" id="way/407720317"/>
<path d="M 670.93 308.16 674.19 307.13" id="way/407720319"/>
<path d="M 671.11 308.05 674.19 307.09" id="way/407720323"/>
<path d="M 674.27 307.52 670.29 308.73" id="way/407720336"/>
<path d="M 670.98 308.3 670.23 308.51" id="way/407720346"/>
<path d="M 671.01 308.4 670.26 308.56" id="way/407720354"/>
<path d="M 634.67 309.77 635.03 309.85" id="way/407735115"/>
<path d="M 643.4 311.92 638.56 310.75" id="way/407735118"/>
<path d="M 638.56 310.75 635.02 309.89" id="way/407735120"/>
<path d="M 638.58 310.62 641.37 311.3" id="way/407735122"/>
<path d="M 644.16 312.04 646.95 313" id="way/407735125"/>
<path d="M 746.09 336.23 751.33 336.47" id="way/407753276"/>
<path d="M 751.33 336.54 746.09 336.29" id="way/407753277"/>
<path d="M 779.75 337.86 784.61 338.09" id="way/437524002"/>
<path d="M 438.45 128.52 434.84 125.77" id="way/454471715"/>
<path d="M 394.39 96.79 391.33 94.72" id="way/454471716"/>
<path d="M 1111.91 982.48 1112.95 981.05" id="way/456151904"/>
<path d="M 1111.95 982.51 1111.51 983.1" id="way/456151905"/>
<path d="M 1112.95 981.05 1113.1 980.86" id="way/456151906"/>
<path d="M 1112.99 981.09 1111.95 982.51" id="way/456151907"/>
<path d="M 1111.47 983.07 1111.91 982.48" id="way/456151908"/>
<path d="M 1111.51 983.1 1111.24 983.48" id="way/456151909"/>
<path d="M 1130.55 955.5 1130.83 954.98" id="way/456153961"/>
<path d="M 1130.57 955.56 1128.44 959.14" id="way/456153962"/>
<path d="M 1130.83 954.98 1131.51 953.68" id="way/456153963"/>
<path d="M 1130.86 955.03 1130.57 955.56" id="way/456153964"/>
<path d="M 1131.55 953.71 1130.86 955.03" id="way/456153965"/>
<path d="M 1131.51 953.68 1133.54 949.37" id="way/456153966"/>
<path d="M 1133.6 949.39 1131.55 953.71" id="way/456153967"/>
<path d="M 1133.54 949.37 1136.15 942.37" id="way/456153968"/>
<path d="M 537.21 204.3 542.78 208.59" id="way/470924080"/>
<path d="M 533.15 201.13 537.21 204.3" id="way/470924081"/>
<path d="M 531.95 200.22 533.15 201.13" id="way/470924085"/>
<path d="M 528.29 197.39 531.95 200.22" id="way/470924086"/>
<path d="M 479.39 159.98 462.02 146.62" id="way/490932444"/>
<path d="M 526.69 196.13 528.29 197.39" id="way/491720581"/>
<path d="M 509.51 183.06 526.69 196.13" id="way/491720582"/>
<path d="M 501.85 177.17 499.34 175.27" id="way/491720583"/>
<path d="M 501.89 177.12 509.51 183.06" id="way/491720584"/>
<path d="M 499.34 175.27 495.29 172.23" id="way/491720585"/>
<path d="M 499.38 175.22 501.89 177.12" id="way/491720586"/>
<path d="M 490.88 168.77 495.33 172.2" id="way/491852583"/>
<path d="M 481.28 161.34 484.64 163.93" id="way/491852589"/>
<path d="M 484.64 163.93 490.88 168.77" id="way/491852593"/>
<path d="M 495.33 172.2 499.38 175.22" id="way/491852594"/>
<path d="M 674.27 307.37 671.01 308.4" id="way/553541418"/>
<path d="M 674.24 307.3 674.13 307.34" id="way/553541421"/>
<path d="M 670.29 308.73 668.66 308.87" id="way/553541451"/>
<path d="M 668.66 308.87 666.5 309.38 665.14 309.79 661.1 311.09" id="way/553541456"/>
<path d="M 670.26 308.56 668.66 308.87" id="way/553541463"/>
<path d="M 666.98 309.18 669.1 308.68" id="way/553541470"/>
<path d="M 670.23 308.51 669.1 308.68" id="way/553541473"/>
<path d="M 672.71 307.38 672.9 307.32" id="way/553543379"/>
<path d="M 672.9 307.32 674.14 306.93" id="way/553543380"/>
<path d="M 674.19 307.09 675.33 306.73" id="way/553543381"/>
<path d="M 670.15 308.16 671.17 307.84" id="way/553543383"/>
<path d="M 670.21 308.32 671.11 308.05" id="way/553543384"/>
<path d="M 670.23 308.36 670.93 308.16" id="way/553543385"/>
<path d="M 661.07 311.06 665.55 309.63 665.92 309.52 666.98 309.18" id="way/553543914"/>
<path d="M 661.1 311.09 656.26 312.75" id="way/553543915"/>
<path d="M 105 7.36 1 1.06" id="way/587016537"/>
<path d="M 107.56 7.49 105 7.36" id="way/587016543"/>
<path d="M 115.71 7.68 107.56 7.49" id="way/587016544"/>
<path d="M 116.68 7.7 115.71 7.68" id="way/587016545"/>
<path d="M 127.1 7.91 116.78 7.63" id="way/587016546"/>
<path d="M 127.09 7.98 116.68 7.7" id="way/587016552"/>
<path d="M 142.59 9.84 136.71 8.83" id="way/587016555"/>
<path d="M 143.46 10 142.59 9.84" id="way/587016558"/>
<path d="M 142.56 9.89 136.68 8.9" id="way/587016559"/>
<path d="M 143.43 10.07 142.56 9.89" id="way/587016560"/>
<path d="M 157.48 12.69 143.43 10.07" id="way/587016561"/>
<path d="M 196.51 19.98 194.53 19.59" id="way/587016562"/>
<path d="M 194.53 19.59 157.48 12.69" id="way/587016563"/>
<path d="M 218.15 25.01 196.51 19.98" id="way/587016566"/>
<path d="M 229.12 28.99 218.15 25.01" id="way/587016571"/>
<path d="M 234.91 31.09 229.12 28.99" id="way/587016573"/>
<path d="M 237.39 32.07 234.91 31.09" id="way/587016574"/>
<path d="M 241.79 33.69 237.39 32.07" id="way/587016575"/>
<path d="M 243.81 34.42 241.79 33.69" id="way/587016576"/>
<path d="M 259.33 40.16 243.81 34.42" id="way/587016617"/>
<path d="M 261.51 40.98 259.33 40.16" id="way/587017993"/>
<path d="M 278.56 47.27 261.51 40.98" id="way/587024959"/>
<path d="M 285.04 49.65 278.56 47.27" id="way/587024960"/>
<path d="M 286.11 50.04 285.04 49.65" id="way/587024961"/>
<path d="M 286.16 49.99 285.1 49.6" id="way/587024962"/>
<path d="M 285.1 49.6 278.57 47.16" id="way/587024963"/>
<path d="M 291.39 52.06 286.11 50.04" id="way/587024964"/>
<path d="M 306.36 57.56 304.62 56.92" id="way/587024965"/>
<path d="M 304.62 56.92 291.39 52.06" id="way/587024966"/>
<path d="M 330.24 66.34 328.49 65.67" id="way/587024967"/>
<path d="M 330.59 66.47 330.24 66.34" id="way/587024968"/>
<path d="M 331.69 66.97 330.57 66.54" id="way/587024970"/>
<path d="M 323.3 63.85 306.36 57.56" id="way/587024971"/>
<path d="M 326.06 64.89 323.3 63.85" id="way/587024972"/>
<path d="M 328.45 65.74 326.06 64.89" id="way/587024973"/>
<path d="M 330.23 66.41 328.45 65.74" id="way/587024974"/>
<path d="M 330.57 66.54 330.23 66.41" id="way/587024975"/>
<path d="M 380.96 87.98 380.25 87.53" id="way/587024978"/>
<path d="M 377.12 85.55 331.69 66.97" id="way/587024980"/>
<path d="M 379.27 86.89 377.12 85.55" id="way/587024982"/>
<path d="M 380.25 87.53 379.27 86.89" id="way/587024983"/>
<path d="M 379.31 86.87 377.12 85.51" id="way/587024984"/>
<path d="M 380.27 87.46 379.31 86.87" id="way/587024986"/>
<path d="M 386.16 91.46 380.96 87.98" id="way/587024987"/>
<path d="M 394.3 96.82 391.32 94.81" id="way/587024988"/>
<path d="M 422.01 116.02 394.3 96.82" id="way/587024993"/>
<path d="M 428.35 120.9 422.01 116.02" id="way/587024994"/>
<path d="M 428.71 121.15 428.35 120.9" id="way/587024995"/>
<path d="M 428.37 120.82 422.14 116.03" id="way/587024996"/>
<path d="M 428.72 121.09 428.37 120.82" id="way/587024997"/>
<path d="M 434.84 125.83 432.61 124.13" id="way/587024998"/>
<path d="M 432.61 124.13 428.71 121.15" id="way/587025003"/>
<path d="M 432.62 124.07 428.72 121.09" id="way/587025008"/>
<path d="M 434.84 125.77 432.62 124.07" id="way/587025013"/>
<path d="M 438.4 128.57 434.84 125.83" id="way/587025023"/>
<path d="M 460.98 145.87 438.4 128.57" id="way/587025037"/>
<path d="M 462.02 146.62 460.98 145.87" id="way/587025049"/>
<path d="M 479.43 159.93 462.07 146.59" id="way/587025062"/>
<path d="M 822.57 340.13 784.61 338.16" id="way/587213463"/>
<path d="M 822.57 340.07 833.35 340.63" id="way/587213469"/>
<path d="M 833.35 340.63 852.21 341.57" id="way/587213477"/>
<path d="M 833.35 340.69 822.57 340.13" id="way/587213487"/>
<path d="M 852.21 341.57 862.62 342.1" id="way/587213499"/>
<path d="M 852.21 341.65 833.35 340.69" id="way/587213509"/>
<path d="M 862.62 342.1 864.79 342.21" id="way/587213522"/>
<path d="M 862.62 342.19 852.21 341.65" id="way/587213532"/>
<path d="M 864.79 342.21 873.08 342.64" id="way/587213542"/>
<path d="M 864.75 342.3 862.62 342.19" id="way/587213551"/>
<path d="M 873.08 342.64 877.94 342.91" id="way/587213561"/>
<path d="M 873.08 342.72 864.75 342.3" id="way/587213571"/>
<path d="M 877.94 342.91 887.4 343.4" id="way/587213579"/>
<path d="M 877.93 342.97 873.08 342.72" id="way/587213587"/>
<path d="M 887.4 343.4 888.7 343.47" id="way/587213596"/>
<path d="M 888.7 343.47 896.42 343.84" id="way/587213604"/>
<path d="M 887.38 343.47 877.93 342.97" id="way/587213613"/>
<path d="M 888.67 343.53 887.38 343.47" id="way/587213620"/>
<path d="M 944.78 339.33 946.29 339.14" id="way/587239334"/>
<path d="M 946.29 339.14 949.2 338.75" id="way/587239335"/>
<path d="M 946.3 339.2 944.79 339.39" id="way/587239336"/>
<path d="M 944.79 339.39 943.86 339.51" id="way/587239337"/>
<path d="M 949.2 338.75 951.67 338.44" id="way/587239338"/>
<path d="M 949.19 338.81 946.3 339.2" id="way/587239339"/>
<path d="M 951.68 338.5 949.19 338.81" id="way/587239340"/>
<path d="M 951.67 338.44 952.86 338.28" id="way/587239341"/>
<path d="M 1011.1 333.01 1015.16 333.39" id="way/587239348"/>
<path d="M 1011.11 333.07 1010.51 333.03" id="way/587239352"/>
<path d="M 1015.16 333.39 1023.15 334.73" id="way/587239357"/>
<path d="M 1015.15 333.45 1011.11 333.07" id="way/587239361"/>
<path d="M 1023.15 334.73 1024.14 334.92" id="way/587239365"/>
<path d="M 1023.12 334.79 1015.15 333.45" id="way/587239366"/>
<path d="M 1024.14 334.92 1028.53 335.94" id="way/587239367"/>
<path d="M 1024.13 334.98 1023.12 334.79" id="way/587239368"/>
<path d="M 1152.79 661.64 1152.9 660.38" id="way/587239388"/>
<path d="M 1152.71 663.07 1152.79 661.64" id="way/587239389"/>
<path d="M 132.48 8.33 127.1 7.91" id="way/822837762"/>
<path d="M 132.6 8.34 132.48 8.33" id="way/822837763"/>
<path d="M 132.48 8.38 127.09 7.98" id="way/822837764"/>
<path d="M 132.6 8.39 132.48 8.38" id="way/822837765"/>
<path d="M 136.6 8.82 132.6 8.34" id="way/822837766"/>
<path d="M 136.71 8.83 136.6 8.82" id="way/822837767"/>
<path d="M 136.57 8.88 132.6 8.39" id="way/822837768"/>
<path d="M 136.68 8.9 136.57 8.88" id="way/822837769"/>
<path d="M 391.06 94.53 386.21 91.38" id="way/822837770"/>
<path d="M 391.33 94.72 391.06 94.53" id="way/822837771"/>
<path d="M 391.02 94.6 386.16 91.46" id="way/822837772"/>
<path d="M 391.32 94.81 391.02 94.6" id="way/822837773"/>
<path d="M 666.98 309.18 668.09 308.83 670.15 308.16" id="way/822843159"/>
<path d="M 669.1 308.68 670.23 308.36" id="way/822843160"/>
<path d="M 674.13 307.34 670.98 308.3" id="way/822843161"/>
<path d="M 1184.05 427.34 1185.52 429.29" id="way/825155416"/>
<path d="M 1063.61 1181.04 1063.81 1180.5" id="way/825155420"/>
<path d="M 542.73 208.63 537.18 204.34" id="way/968541476"/>
<path d="M 542.78 208.59 545.14 210.41" id="way/968541477"/>
<path d="M 1109.37 986.19 1096.42 1004.57 1085.5 1021.54 1083.63 1024.77 1082.1 1027.76 1079.02 1035.54 1069.41 1069.42 1070.88 1087.35" id="way/968558046"/>
<path d="M 1070.82 1087.39 1069.29 1069.77 1073.05 1053.6 1078.86 1035.68 1080.98 1030.06 1082.04 1027.73 1083.57 1024.76 1087.38 1018.34 1096.38 1004.55 1109.33 986.16" id="way/968558047"/>
<path d="M 644.14 312.1 643.4 311.92" id="way/1417141842"/>
<path d="M 643.43 311.82 644.16 312.04" id="way/1417141843"/>
<path d="M 641.37 311.3 643.43 311.82" id="way/1417141844"/>
<path d="M 1084.72 1120.4 1081.71 1112.43" id="way/1458729711"/>
<path d="M 1081.76 1112.41 1084.76 1120.4" id="way/1458729712"/>
<path d="M 1070.88 1087.35 1081.76 1112.41" id="way/1458729713"/>
<path d="M 1081.71 1112.43 1070.82 1087.39" id="way/1458729714"/>
<path d="M 755.22 336.67 762.79 337.04" id="way/1458916210"/>
<path d="M 762.83 337.11 755.22 336.73" id="way/1458916211"/>
</g>
</svg>