<?xml version="1.0"?>
<svg xmlns="http://www.w3.org/2000/svg" version="1.2" baseProfile="tiny" width="1200" height="4720" viewBox="0 0 1200 4720" stroke-linecap="round" stroke-linejoin="round">
<g id="donghae" fill="none" stroke="black" stroke-width="1">
<path d="M 1126.74 2845.02 1122.55 2859.73" id="way/143754685"/>
<path d="M 1127.16 2842.93 1126.74 2845.02" id="way/143754697"/>
<path d="M 1004.2 3042.79 992.25 3048.06" id="way/143756688"/>
<path d="M 1058.66 2999.61 1056.72 3003.03" id="way/143756689"/>
<path d="M 1021.33 3039.45 1014.3 3039.95" id="way/143756690"/>
<path d="M 1031.83 3036.7 1021.33 3039.45" id="way/143756691"/>
<path d="M 1014.3 3039.95 1004.2 3042.79" id="way/143756692"/>
<path d="M 1056.72 3003.03 1052.09 3010.99" id="way/143756693"/>
<path d="M 37.28 4658.26 37.39 4636.59" id="way/143764202"/>
<path d="M 617.9 4168.71 614.34 4192.69" id="way/154256858"/>
<path d="M 620.82 4157.78 618.87 4163.62 617.9 4168.71" id="way/154256868"/>
<path d="M 851.04 3460.21 833.72 3424.77" id="way/154256884"/>
<path d="M 1035.05 3034.76 1031.83 3036.7" id="way/154286450"/>
<path d="M 1116.67 2873.53 1105.22 2899.61" id="way/154286469"/>
<path d="M 1052.09 3010.99 1035.05 3034.76" id="way/154286485"/>
<path d="M 948.6 3066.55 932.82 3075.26" id="way/154286489"/>
<path d="M 661.6 4114.88 636.78 4135.33" id="way/155231897"/>
<path d="M 877.56 3766.84 881.59 3743.73" id="way/155232304"/>
<path d="M 34.75 4610 29.92 4600.05" id="way/164826797"/>
<path d="M 35.92 4612.5 34.75 4610" id="way/164826853"/>
<path d="M 29.92 4600.05 29.73 4599.66" id="way/165193261"/>
<path d="M 20.4 4579.57 28.28 4562.39" id="way/165193264"/>
<path d="M 21.05 4581.67 20.4 4579.57" id="way/165193266"/>
<path d="M 29.73 4599.66 21.05 4581.67" id="way/165193271"/>
<path d="M 28.95 4561.98 31.68 4560.37 48.57 4550.49" id="way/165267466"/>
<path d="M 28.28 4562.39 28.95 4561.98" id="way/165267472"/>
<path d="M 52.57 4548.31 50.41 4549.6" id="way/165267473"/>
<path d="M 23.37 4693.12 37.28 4658.26" id="way/165359880"/>
<path d="M 49.98 4549.85 36.13 4557.99" id="way/165736972"/>
<path d="M 48.57 4550.49 52.34 4548.25" id="way/165736982"/>
<path d="M 302.05 1761.94 308.26 1766.4" id="way/167600425"/>
<path d="M 308.26 1766.4 321.08 1775.45" id="way/167600426"/>
<path d="M 360.08 1802.13 423.52 1848.62" id="way/167600428"/>
<path d="M 337.47 1786.82 360.08 1802.13" id="way/167600561"/>
<path d="M 560.56 4436.43 586.04 4395.35" id="way/168450322"/>
<path d="M 548.73 4460.06 560.56 4436.43" id="way/168450874"/>
<path d="M 334.54 4529.17 416.05 4474.24 454.71 4472.41" id="way/173629417"/>
<path d="M 455.48 1888.56 453.17 1884.96" id="way/175745976"/>
<path d="M 1070.29 2979 1062.1 2993.44" id="way/183830068"/>
<path d="M 872.16 885.56 871.32 885.78" id="way/190598275"/>
<path d="M 474.33 4479.24 537.02 4478.37" id="way/215391461"/>
<path d="M 989.08 3049.07 992.17 3047.82" id="way/245188348"/>
<path d="M 1064.45 566.08 1083.15 526.65" id="way/333372698"/>
<path d="M 1039.31 619.71 1033.48 632.43" id="way/333372699"/>
<path d="M 1060.53 574.69 1039.31 619.71" id="way/333372700"/>
<path d="M 1033.48 632.43 1024.81 650.32" id="way/333372701"/>
<path d="M 1024.81 650.32 1015.83 666.68" id="way/333372702"/>
<path d="M 1012.97 670.15 1013.34 669.48" id="way/333372703"/>
<path d="M 1024.69 650.17 1033.06 632.32" id="way/333372705"/>
<path d="M 1033.06 632.32 1039.19 619.42" id="way/333372706"/>
<path d="M 1039.19 619.42 1062.36 570.54 1064.45 566.08" id="way/333372707"/>
<path d="M 1013.25 670.32 1006.91 677.45" id="way/333372708"/>
<path d="M 1006.6 677.4 1012.97 670.15" id="way/333372709"/>
<path d="M 934.67 758.98 931.31 764.91" id="way/333372711"/>
<path d="M 912.92 798.66 917.56 789.75" id="way/333372712"/>
<path d="M 924.43 776.83 917.68 789.88" id="way/333372713"/>
<path d="M 917.68 789.88 913.07 798.82" id="way/333372714"/>
<path d="M 917.56 789.75 924.18 776.75" id="way/333372715"/>
<path d="M 924.18 776.75 931.07 764.72" id="way/333372716"/>
<path d="M 931.07 764.72 934.46 758.81" id="way/333372717"/>
<path d="M 931.31 764.91 924.43 776.83" id="way/333372718"/>
<path d="M 1006.91 677.45 934.67 758.98" id="way/333372719"/>
<path d="M 934.46 758.81 1006.6 677.4" id="way/333372720"/>
<path d="M 913.07 798.82 912.08 801.03" id="way/333372721"/>
<path d="M 872.04 885.33 880.44 878.15" id="way/333372722"/>
<path d="M 809.19 886.3 741.06 925.05" id="way/337515020"/>
<path d="M 824.81 886.4 857.31 887.08" id="way/337515021"/>
<path d="M 740.93 924.95 809.13 886.15" id="way/337515023"/>
<path d="M 741.06 925.05 681.28 986.56" id="way/337515026"/>
<path d="M 650.37 1079.14 652.31 1072.75" id="way/341351222"/>
<path d="M 947.85 3065.94 950.3 3065.1" id="way/386006218"/>
<path d="M 960.51 3061.45 962.47 3060.7" id="way/386006219"/>
<path d="M 950.3 3065.1 960.51 3061.45" id="way/386006220"/>
<path d="M 950.36 3065.96 948.6 3066.55" id="way/386006221"/>
<path d="M 960.72 3062.05 950.36 3065.96" id="way/386006222"/>
<path d="M 962.87 3061.08 960.72 3062.05" id="way/386006223"/>
<path d="M 962.47 3060.7 989.08 3049.07" id="way/386006224"/>
<path d="M 1020.48 3038.76 1031.9 3036.04" id="way/386006225"/>
<path d="M 1013.31 3039.3 1020.48 3038.76" id="way/386006226"/>
<path d="M 1004.1 3041.99 1013.31 3039.3" id="way/386006227"/>
<path d="M 992.17 3047.82 1004.1 3041.99" id="way/386006228"/>
<path d="M 992.25 3048.06 989.05 3049.34" id="way/386006229"/>
<path d="M 989.05 3049.34 962.87 3061.08" id="way/386006230"/>
<path d="M 1031.9 3036.04 1034.75 3034.33" id="way/386006231"/>
<path d="M 1053.27 3008.42 1056.5 3002.9" id="way/386006232"/>
<path d="M 1058.3 2999.68 1061.95 2993.21" id="way/386006233"/>
<path d="M 1056.5 3002.9 1058.3 2999.68" id="way/386006234"/>
<path d="M 1059.99 2997.24 1058.66 2999.61" id="way/386006235"/>
<path d="M 1061.95 2993.21 1069.96 2979.16" id="way/386006236"/>
<path d="M 1013.34 669.48 1015.51 666.48" id="way/397641162"/>
<path d="M 1013.69 669.7 1013.25 670.32" id="way/397641163"/>
<path d="M 1015.51 666.48 1024.69 650.17" id="way/397641164"/>
<path d="M 1015.83 666.68 1013.69 669.7" id="way/397641165"/>
<path d="M 315.3 4518.09 304.1 4510.99" id="way/400584058"/>
<path d="M 52.34 4548.25 83.83 4461.22 85.36 4457.43 86.51 4455.36 88.6 4452.51 105.29 4432.64 135.03 4405.94 223.55 4419.07" id="way/400584059"/>
<path d="M 304.1 4510.99 301.92 4509.86" id="way/400584060"/>
<path d="M 304.23 4510.83 315.39 4517.95" id="way/400584064"/>
<path d="M 315.39 4517.95 324.23 4523.76" id="way/400584067"/>
<path d="M 301.59 4509.48 304.23 4510.83" id="way/400584068"/>
<path d="M 301.92 4509.86 288.55 4502.68" id="way/400584074"/>
<path d="M 288.43 4502.3 301.59 4509.48" id="way/400584075"/>
<path d="M 288.55 4502.68 285.7 4498.98" id="way/400584076"/>
<path d="M 268.43 4472.54 269.48 4474.13" id="way/400584079"/>
<path d="M 268.29 4472.62 261.48 4451.6" id="way/400584080"/>
<path d="M 285.7 4498.98 282.97 4494.86" id="way/400584081"/>
<path d="M 285.84 4498.89 288.43 4502.3" id="way/400584082"/>
<path d="M 283.11 4494.75 285.84 4498.89" id="way/400584085"/>
<path d="M 282.97 4494.86 282.02 4493.42" id="way/400584086"/>
<path d="M 282.17 4493.33 283.11 4494.75" id="way/400584089"/>
<path d="M 282.02 4493.42 270.5 4475.99" id="way/400584090"/>
<path d="M 270.65 4475.9 282.17 4493.33" id="way/400584097"/>
<path d="M 270.5 4475.99 269.34 4474.21" id="way/400584098"/>
<path d="M 269.48 4474.13 270.65 4475.9" id="way/400584099"/>
<path d="M 269.34 4474.21 268.29 4472.62" id="way/400584101"/>
<path d="M 261.48 4451.6 260.89 4444.98" id="way/400584104"/>
<path d="M 260.89 4444.98 260.79 4444.01" id="way/400584105"/>
<path d="M 260.79 4444.01 260.34 4438.76" id="way/400584106"/>
<path d="M 260.34 4438.76 260.25 4437.81" id="way/400584107"/>
<path d="M 260.49 4438.74 260.93 4444" id="way/400584108"/>
<path d="M 260.93 4444 261.01 4444.97" id="way/400584109"/>
<path d="M 261.6 4451.59 268.43 4472.54" id="way/400584110"/>
<path d="M 261.01 4444.97 261.6 4451.59" id="way/400584111"/>
<path d="M 334.52 4529.33 333.16 4528.97" id="way/400788737"/>
<path d="M 331.66 4528.23 332.86 4528.69" id="way/400788738"/>
<path d="M 332.86 4528.69 334.54 4529.17" id="way/400788739"/>
<path d="M 327.83 4526.08 331.66 4528.23" id="way/400788740"/>
<path d="M 324.23 4523.76 327.83 4526.08" id="way/400788741"/>
<path d="M 333.16 4528.97 331.62 4528.39" id="way/400788742"/>
<path d="M 331.62 4528.39 327.74 4526.21" id="way/400788744"/>
<path d="M 327.74 4526.21 324.13 4523.9" id="way/400788745"/>
<path d="M 324.13 4523.9 315.3 4518.09" id="way/400788746"/>
<path d="M 260.4 4437.81 260.49 4438.74" id="way/400788775"/>
<path d="M 252.09 4425.95 260.4 4437.81" id="way/400788778"/>
<path d="M 251.14 4425.69 252.09 4425.95" id="way/400788780"/>
<path d="M 252.05 4426.09 251.11 4425.84" id="way/400788784"/>
<path d="M 260.25 4437.81 252.05 4426.09" id="way/400788786"/>
<path d="M 251.11 4425.84 244.06 4424.68" id="way/401200034"/>
<path d="M 244.06 4424.68 236.93 4423.57" id="way/401200035"/>
<path d="M 244.08 4424.51 251.14 4425.69" id="way/401200036"/>
<path d="M 236.93 4423.57 223.48 4419.23" id="way/401200038"/>
<path d="M 236.95 4423.4 244.08 4424.51" id="way/401200040"/>
<path d="M 223.48 4419.23 134.17 4406.79 87.32 4454.44 86.06 4456.43 83.97 4461.32 74.05 4493.42 71.56 4527.96 54.34 4547.27" id="way/401200041"/>
<path d="M 223.55 4419.07 236.95 4423.4" id="way/401200042"/>
<path d="M 334.59 1788.01 319.27 1777.2" id="way/407204545"/>
<path d="M 323.87 1777.27 335.37 1785.4" id="way/407204547"/>
<path d="M 336.17 1789.02 334.59 1788.01" id="way/407204548"/>
<path d="M 335.37 1785.4 337.47 1786.82" id="way/407204549"/>
<path d="M 319.27 1777.2 301.12 1763.99" id="way/407204551"/>
<path d="M 358.61 1804 336.17 1789.02" id="way/407204552"/>
<path d="M 454.58 4472.68 334.52 4529.33" id="way/452086438"/>
<path d="M 461.86 4475.16 454.58 4472.68" id="way/452086442"/>
<path d="M 454.71 4472.41 461.87 4474.91" id="way/452086624"/>
<path d="M 538.54 4477.2 537.15 4478.51" id="way/452442219"/>
<path d="M 538.41 4477.07 548.73 4460.06" id="way/452442230"/>
<path d="M 537.02 4478.37 538.41 4477.07" id="way/452442231"/>
<path d="M 586.24 4395.37 560.69 4436.5" id="way/452442233"/>
<path d="M 537.15 4478.51 474.29 4479.52" id="way/452442234"/>
<path d="M 548.88 4460.15 538.54 4477.2" id="way/452442235"/>
<path d="M 560.69 4436.5 548.88 4460.15" id="way/452442236"/>
<path d="M 584.19 4370.23 586.24 4395.37" id="way/456016116"/>
<path d="M 586.04 4395.35 584.01 4370.25" id="way/456016117"/>
<path d="M 584.01 4370.25 584.05 4346.11" id="way/456016118"/>
<path d="M 584.21 4346.11 584.19 4370.23" id="way/456016121"/>
<path d="M 584.05 4346.11 584.06 4342.12" id="way/456016122"/>
<path d="M 584.06 4342.12 614.13 4193.91" id="way/456016123"/>
<path d="M 584.23 4342.14 584.21 4346.11" id="way/456016124"/>
<path d="M 614.13 4193.91 614.16 4192.7" id="way/456019449"/>
<path d="M 614.32 4193.91 584.23 4342.14" id="way/456019452"/>
<path d="M 614.16 4192.7 617.76 4168.73" id="way/456019457"/>
<path d="M 614.34 4192.69 614.32 4193.91" id="way/456019458"/>
<path d="M 1069.96 2979.16 1073.85 2970.93" id="way/458953629"/>
<path d="M 932.66 3075.14 947.85 3065.94" id="way/458953631"/>
<path d="M 1034.75 3034.33 1053.27 3008.42" id="way/458954058"/>
<path d="M 1006.72 2193.34 960.58 2168.27" id="way/463689087"/>
<path d="M 636.67 4135.26 661.4 4114.83" id="way/471697562"/>
<path d="M 419.61 1849.61 358.61 1804" id="way/483629188"/>
<path d="M 423.52 1848.62 431.01 1855.6" id="way/483629189"/>
<path d="M 573.59 2039.22 625.42 2055.32" id="way/483629893"/>
<path d="M 455.71 1888.45 475.71 1922.09" id="way/483629895"/>
<path d="M 573.48 2039.39 568.83 2036.95" id="way/483629896"/>
<path d="M 629.65 2055.52 638.14 2055.93" id="way/483629898"/>
<path d="M 629.67 2055.71 625.42 2055.5" id="way/483629899"/>
<path d="M 638.14 2055.93 640.19 2056.02" id="way/483629900"/>
<path d="M 638.14 2056.08 629.67 2055.71" id="way/483629901"/>
<path d="M 640.19 2056.02 645.62 2056.28" id="way/483629902"/>
<path d="M 640.19 2056.19 638.14 2056.08" id="way/483629903"/>
<path d="M 645.62 2056.28 647.94 2056.39" id="way/483629904"/>
<path d="M 645.62 2056.43 640.19 2056.19" id="way/483629905"/>
<path d="M 682.19 2061.54 675.59 2059.44" id="way/483629906"/>
<path d="M 875.96 2121.6 879.79 2123.69" id="way/483629907"/>
<path d="M 258.65 1739.27 252.81 1700.21" id="way/483635713"/>
<path d="M 464.07 1422.88 316.61 1605.42" id="way/483635714"/>
<path d="M 304.71 1621.89 309.53 1614.76" id="way/483635715"/>
<path d="M 261.72 1687.03 253.37 1700.63" id="way/483635716"/>
<path d="M 261.56 1686.91 263.97 1683.25" id="way/483635717"/>
<path d="M 263.97 1683.25 267.85 1677.45" id="way/483635718"/>
<path d="M 264.15 1683.36 261.72 1687.03" id="way/483635720"/>
<path d="M 268.03 1677.55 264.15 1683.36" id="way/483635721"/>
<path d="M 267.85 1677.45 304.71 1621.89" id="way/483635723"/>
<path d="M 304.84 1622.02 268.03 1677.55" id="way/483640396"/>
<path d="M 1097.95 496.23 1101.3 487.97" id="way/483641408"/>
<path d="M 253.37 1700.63 262.86 1734.07" id="way/483642077"/>
<path d="M 252.81 1700.21 261.56 1686.91" id="way/483642078"/>
<path d="M 463.86 1422.71 490.37 1387.83" id="way/483994614"/>
<path d="M 490.73 1388.07 464.07 1422.88" id="way/483994617"/>
<path d="M 490.37 1387.83 493.18 1384.5" id="way/483994619"/>
<path d="M 493.36 1384.63 490.73 1388.07" id="way/483994636"/>
<path d="M 493.18 1384.5 496.7 1379.94" id="way/483994640"/>
<path d="M 496.87 1380.1 493.36 1384.63" id="way/483994642"/>
<path d="M 496.7 1379.94 497.4 1378.93" id="way/483994644"/>
<path d="M 497.75 1378.96 496.87 1380.1" id="way/483994645"/>
<path d="M 497.4 1378.93 499.43 1376.34" id="way/483994648"/>
<path d="M 559.04 1298.24 613.97 1185.09" id="way/483994651"/>
<path d="M 554.3 1304.88 500.9 1374.91" id="way/483994652"/>
<path d="M 554.08 1304.75 555.54 1302.83" id="way/483994653"/>
<path d="M 500.69 1374.74 554.08 1304.75" id="way/483994654"/>
<path d="M 614.23 1185.22 559.24 1298.41" id="way/483994656"/>
<path d="M 650.54 1079.14 622.02 1164.87" id="way/483994658"/>
<path d="M 619.71 1170.57 616.83 1177.65" id="way/483994659"/>
<path d="M 619.5 1170.5 621.8 1164.79" id="way/483994660"/>
<path d="M 616.83 1177.65 614.23 1185.22" id="way/483994661"/>
<path d="M 616.61 1177.58 619.5 1170.5" id="way/483994662"/>
<path d="M 681.28 986.56 662.34 1039.63" id="way/484007740"/>
<path d="M 681.07 986.41 740.93 924.95" id="way/484007741"/>
<path d="M 655.85 1061.14 660.99 1044.24" id="way/484007742"/>
<path d="M 656.07 1061.33 653.29 1070.36" id="way/484007743"/>
<path d="M 662.1 1039.57 681.07 986.41" id="way/484007744"/>
<path d="M 662.34 1039.63 661.23 1044.29" id="way/484007747"/>
<path d="M 661.23 1044.29 656.07 1061.33" id="way/484007751"/>
<path d="M 660.99 1044.24 662.1 1039.57" id="way/484007755"/>
<path d="M 652.53 1072.82 650.54 1079.14" id="way/484007759"/>
<path d="M 652.31 1072.75 653.08 1070.3" id="way/484007763"/>
<path d="M 653.29 1070.36 652.53 1072.82" id="way/484007766"/>
<path d="M 653.08 1070.3 655.85 1061.14" id="way/484007769"/>
<path d="M 621.8 1164.79 650.37 1079.14" id="way/484007770"/>
<path d="M 622.02 1164.87 619.71 1170.57" id="way/484007771"/>
<path d="M 316.48 1605.3 463.86 1422.71" id="way/484011668"/>
<path d="M 316.61 1605.42 309.71 1614.88" id="way/484011670"/>
<path d="M 1083.15 526.65 1093.07 506.25" id="way/484012994"/>
<path d="M 1093.07 506.25 1095.3 501.68" id="way/484012999"/>
<path d="M 1095.3 501.68 1097.95 496.23" id="way/484013002"/>
<path d="M 960.64 2168.12 1006.79 2193.2" id="way/484014841"/>
<path d="M 948.64 2161.64 917.58 2144.69" id="way/484014843"/>
<path d="M 917.58 2144.69 911.39 2141.31" id="way/484014845"/>
<path d="M 917.72 2144.37 948.72 2161.48" id="way/484014846"/>
<path d="M 911.39 2141.31 886.39 2127.64" id="way/484014848"/>
<path d="M 911.57 2141.01 917.72 2144.37" id="way/484014850"/>
<path d="M 886.54 2127.37 911.57 2141.01" id="way/484014851"/>
<path d="M 886.39 2127.64 879.66 2123.95" id="way/484014853"/>
<path d="M 879.79 2123.69 886.54 2127.37" id="way/484014855"/>
<path d="M 879.66 2123.95 875.83 2121.86" id="way/484014857"/>
<path d="M 625.42 2055.32 629.65 2055.52" id="way/484017725"/>
<path d="M 625.42 2055.5 573.48 2039.39" id="way/484017726"/>
<path d="M 668.04 4088.32 668.17 4087.72" id="way/484022859"/>
<path d="M 672.32 4011.39 666.13 4052.17 666.68 4060.55 670.05 4080.26" id="way/484022862"/>
<path d="M 670.05 4080.26 669.17 4084.33" id="way/484025878"/>
<path d="M 669.87 4080.23 666.47 4060.34 665.87 4054.88 666.14 4049.64 668.21 4027.33 673.59 4005.68" id="way/484025880"/>
<path d="M 668.99 4084.3 669.87 4080.23" id="way/484025883"/>
<path d="M 669.17 4084.33 668.93 4085.27" id="way/484025886"/>
<path d="M 559.24 1298.41 556.76 1301.66" id="way/485655153"/>
<path d="M 613.97 1185.09 616.61 1177.58" id="way/485655154"/>
<path d="M 1105.07 2899.53 1105.8 2897.84 1116.6 2873.26" id="way/536667174"/>
<path d="M 1088.4 2937.75 1090.94 2931.84" id="way/536667223"/>
<path d="M 1105.8 2897.84 1105.14 2899.55" id="way/536667224"/>
<path d="M 1086.97 2940.96 1088.4 2937.75" id="way/536667225"/>
<path d="M 1075.21 2967.81 1086.97 2940.96" id="way/536667234"/>
<path d="M 1073.85 2970.93 1075.21 2967.81" id="way/536667236"/>
<path d="M 440.56 1866.14 453.39 1884.83" id="way/549026532"/>
<path d="M 440.33 1866.29 431.9 1857.64" id="way/549026533"/>
<path d="M 431.97 1856.5 440.56 1866.14" id="way/549026534"/>
<path d="M 431.01 1855.6 431.97 1856.5" id="way/549026535"/>
<path d="M 431.9 1857.64 430.55 1856.54" id="way/549026536"/>
<path d="M 430.55 1856.54 419.61 1849.61" id="way/549026537"/>
<path d="M 1138.97 174.62 1139.2 139.17" id="way/577202979"/>
<path d="M 1142.03 279 1138.96 225.07" id="way/577202980"/>
<path d="M 1139.2 139.17 1140.24 44.7" id="way/577202981"/>
<path d="M 499.62 1376.56 497.75 1378.96" id="way/587433860"/>
<path d="M 499.43 1376.34 500.69 1374.74" id="way/587433862"/>
<path d="M 500.9 1374.91 499.62 1376.56" id="way/587433869"/>
<path d="M 555.71 1303.02 554.3 1304.88" id="way/587433872"/>
<path d="M 556.76 1301.66 555.71 1303.02" id="way/587433877"/>
<path d="M 555.54 1302.83 556.52 1301.54" id="way/587433881"/>
<path d="M 556.52 1301.54 559.04 1298.24" id="way/587433886"/>
<path d="M 857.44 887.25 824.99 886.62" id="way/587433911"/>
<path d="M 863.55 887.07 871.15 885.58" id="way/587433912"/>
<path d="M 871.15 885.58 872.04 885.33" id="way/587433913"/>
<path d="M 871.32 885.78 863.57 887.26" id="way/587433914"/>
<path d="M 911.86 800.92 912.92 798.66" id="way/587438013"/>
<path d="M 880.48 878.6 872.16 885.56" id="way/587438014"/>
<path d="M 1101.3 487.97 1145.98 379.94 1143.97 312.57" id="way/587445930"/>
<path d="M 1143.2 299.23 1142.03 279" id="way/587445931"/>
<path d="M 668.21 4088.33 663.59 4107.6" id="way/611273923"/>
<path d="M 880.97 3237.56 867.84 3253.34" id="way/631447821"/>
<path d="M 1104.94 2900.25 1104.55 2901.09 1095.94 2920.84" id="way/636502838"/>
<path d="M 669.32 2057.93 673.61 2058.73" id="way/645166569"/>
<path d="M 669.3 2058.12 654.16 2056.84" id="way/645166570"/>
<path d="M 654.16 2056.7 669.32 2057.93" id="way/645166571"/>
<path d="M 654.16 2056.84 652.48 2056.76" id="way/645166572"/>
<path d="M 673.58 2058.93 669.3 2058.12" id="way/645166573"/>
<path d="M 673.61 2058.73 675.62 2059.23" id="way/645166574"/>
<path d="M 675.59 2059.44 673.58 2058.93" id="way/645166575"/>
<path d="M 675.62 2059.23 682.22 2061.33" id="way/645166576"/>
<path d="M 875.83 2121.86 852.71 2113.8" id="way/654458722"/>
<path d="M 682.22 2061.33 802.96 2112.93" id="way/654458723"/>
<path d="M 836.56 2112.09 839.47 2112.09" id="way/654461278"/>
<path d="M 836.58 2112.3 822.67 2112.74" id="way/654461279"/>
<path d="M 839.48 2112.3 836.58 2112.3" id="way/654461280"/>
<path d="M 839.47 2112.09 843.77 2112.31" id="way/654461281"/>
<path d="M 843.77 2112.56 839.48 2112.3" id="way/654461282"/>
<path d="M 843.77 2112.31 852.76 2113.58" id="way/654461283"/>
<path d="M 852.71 2113.8 843.77 2112.56" id="way/654464756"/>
<path d="M 852.76 2113.58 875.96 2121.6" id="way/654464757"/>
<path d="M 822.67 2112.74 815.73 2113.21" id="way/654464758"/>
<path d="M 822.67 2112.51 836.56 2112.09" id="way/654464759"/>
<path d="M 815.73 2113.21 809.86 2113.43" id="way/654464760"/>
<path d="M 815.7 2112.98 822.67 2112.51" id="way/654464761"/>
<path d="M 807.79 2113.18 809.84 2113.21" id="way/654464762"/>
<path d="M 809.84 2113.21 815.7 2112.98" id="way/654464763"/>
<path d="M 807.81 2113.39 802.94 2113.16" id="way/654464764"/>
<path d="M 809.86 2113.43 807.81 2113.39" id="way/654464765"/>
<path d="M 802.94 2113.16 682.19 2061.54" id="way/654464767"/>
<path d="M 802.96 2112.93 807.79 2113.18" id="way/654464768"/>
<path d="M 557.1 2030.25 551.15 2026.74" id="way/654466303"/>
<path d="M 557.21 2030.12 563.72 2033.89" id="way/654466308"/>
<path d="M 551.15 2026.74 527.21 2011.4" id="way/654466309"/>
<path d="M 551.25 2026.53 557.21 2030.12" id="way/654466310"/>
<path d="M 527.38 2011.2 551.25 2026.53" id="way/654466311"/>
<path d="M 527.21 2011.4 521.48 2006.51" id="way/654466312"/>
<path d="M 521.48 2006.51 489.64 1952.1" id="way/654466313"/>
<path d="M 521.63 2006.36 527.38 2011.2" id="way/654466314"/>
<path d="M 489.84 1952.05 521.63 2006.36" id="way/654466315"/>
<path d="M 489.06 1950.67 484.5 1940.23" id="way/654466316"/>
<path d="M 484.67 1940.13 489.25 1950.56" id="way/654466317"/>
<path d="M 484.5 1940.23 478.68 1928.16" id="way/654466318"/>
<path d="M 478.89 1928.11 484.67 1940.13" id="way/654466319"/>
<path d="M 478.68 1928.16 475.52 1922.16" id="way/654466320"/>
<path d="M 475.71 1922.09 478.89 1928.11" id="way/654466321"/>
<path d="M 475.52 1922.16 455.48 1888.56" id="way/654466322"/>
<path d="M 453.39 1884.83 455.71 1888.45" id="way/654466323"/>
<path d="M 453.17 1884.96 440.33 1866.29" id="way/654466324"/>
<path d="M 1127.32 2810.99 1155.11 2757.26" id="way/654476543"/>
<path d="M 1183.2 2744.99 1164.91 2753.68" id="way/654476547"/>
<path d="M 1173.09 2653.79 1171.35 2650.72" id="way/654478569"/>
<path d="M 901.9 3143.67 897.18 3172.71" id="way/691557295"/>
<path d="M 881.78 3743.74 877.71 3766.88" id="way/692104469"/>
<path d="M 680.89 3969.46 687.23 3931.02" id="way/692104471"/>
<path d="M 687.23 3931.02 715.66 3901.76" id="way/692104478"/>
<path d="M 687.36 3931.14 681.07 3969.45" id="way/692104479"/>
<path d="M 715.66 3901.76 720 3897.36" id="way/692104481"/>
<path d="M 748.88 3873.58 775.72 3866.31" id="way/692104482"/>
<path d="M 748.95 3873.78 721.96 3895.59" id="way/692104483"/>
<path d="M 775.73 3866.47 748.95 3873.78" id="way/692104484"/>
<path d="M 775.72 3866.31 802.33 3856.91" id="way/692104485"/>
<path d="M 834.84 3821.74 836.19 3820.37" id="way/692104496"/>
<path d="M 809.79 3850.4 816.67 3842.22" id="way/692104498"/>
<path d="M 835 3821.92 825.19 3832.82" id="way/692104499"/>
<path d="M 839.76 3817.22 836.41 3820.57" id="way/692104501"/>
<path d="M 848.04 3811.12 839.76 3817.22" id="way/692104502"/>
<path d="M 847.94 3810.94 855.29 3805.56" id="way/692104503"/>
<path d="M 839.58 3817.11 847.94 3810.94" id="way/692104504"/>
<path d="M 860.59 3802.1 855.42 3805.71" id="way/692104505"/>
<path d="M 860.51 3801.89 864.24 3799.24" id="way/692104506"/>
<path d="M 855.29 3805.56 860.51 3801.89" id="way/692104507"/>
<path d="M 855.42 3805.71 848.04 3811.12" id="way/692104508"/>
<path d="M 875.52 3779.9 875.51 3780.97" id="way/692104509"/>
<path d="M 875.35 3779.87 877.56 3766.84" id="way/692104510"/>
<path d="M 875.3 3780.97 875.35 3779.87" id="way/692104511"/>
<path d="M 875.51 3780.97 864.35 3799.39" id="way/692104512"/>
<path d="M 864.35 3799.39 860.59 3802.1" id="way/692104513"/>
<path d="M 864.24 3799.24 875.3 3780.97" id="way/692104514"/>
<path d="M 563.64 2034.02 557.1 2030.25" id="way/692532464"/>
<path d="M 563.72 2033.89 568.92 2036.8" id="way/692532465"/>
<path d="M 568.92 2036.8 573.59 2039.22" id="way/692532466"/>
<path d="M 568.83 2036.95 563.64 2034.02" id="way/692532467"/>
<path d="M 309.71 1614.88 304.84 1622.02" id="way/708858420"/>
<path d="M 309.53 1614.76 316.48 1605.3" id="way/708858421"/>
<path d="M 647.94 2056.39 650.85 2056.54" id="way/710474936"/>
<path d="M 647.94 2056.54 645.62 2056.43" id="way/710474937"/>
<path d="M 650.85 2056.69 647.94 2056.54" id="way/710474938"/>
<path d="M 650.85 2056.54 652.48 2056.62" id="way/710474939"/>
<path d="M 652.48 2056.76 650.85 2056.69" id="way/710474940"/>
<path d="M 652.48 2056.62 654.16 2056.7" id="way/710474941"/>
<path d="M 1016.48 2198.45 1100.65 2286.09 1154.63 2451.46 1158.72 2463.3 1159.88 2469.06 1160.93 2562.35" id="way/814236796"/>
<path d="M 681.07 3969.45 680.74 3977.12" id="way/816170122"/>
<path d="M 680.74 3977.12 672.32 4011.39" id="way/816170123"/>
<path d="M 680.56 3977.08 680.89 3969.46" id="way/816170124"/>
<path d="M 668.17 4087.72 668.99 4084.3" id="way/816170125"/>
<path d="M 668.93 4085.27 668.21 4088.33" id="way/816170127"/>
<path d="M 663.42 4107.53 668.04 4088.32" id="way/816170132"/>
<path d="M 663.59 4107.6 662.37 4112.51" id="way/816170133"/>
<path d="M 715.8 3901.87 687.36 3931.14" id="way/816170135"/>
<path d="M 720 3897.36 721.84 3895.46" id="way/816170136"/>
<path d="M 721.84 3895.46 748.88 3873.58" id="way/816170137"/>
<path d="M 720.12 3897.49 715.8 3901.87" id="way/816170138"/>
<path d="M 721.96 3895.59 720.12 3897.49" id="way/816170139"/>
<path d="M 802.54 3857.18 775.73 3866.47" id="way/816170140"/>
<path d="M 825.13 3832.69 834.84 3821.74" id="way/816170145"/>
<path d="M 816.79 3842.31 811.36 3848.89" id="way/816170156"/>
<path d="M 816.67 3842.22 822.58 3835.54" id="way/816170157"/>
<path d="M 822.68 3835.66 816.79 3842.31" id="way/816170159"/>
<path d="M 822.58 3835.54 825.13 3832.69" id="way/816170160"/>
<path d="M 836.19 3820.37 839.58 3817.11" id="way/816187649"/>
<path d="M 836.41 3820.57 835 3821.92" id="way/816187650"/>
<path d="M 877.71 3766.88 875.52 3779.9" id="way/816187658"/>
<path d="M 881.59 3743.73 860.62 3703.9" id="way/816187660"/>
<path d="M 854.9 3468.37 850.3 3496.23" id="way/816187661"/>
<path d="M 860.76 3703.79 881.78 3743.74" id="way/816187662"/>
<path d="M 860.62 3703.9 857.26 3697.69" id="way/816187663"/>
<path d="M 848.37 3663.93 847.22 3639.72" id="way/816187664"/>
<path d="M 848.53 3663.96 857.41 3697.63" id="way/816187665"/>
<path d="M 857.26 3697.69 848.37 3663.93" id="way/816187666"/>
<path d="M 857.41 3697.63 860.76 3703.79" id="way/816187667"/>
<path d="M 847.41 3639.76 848.53 3663.96" id="way/816187668"/>
<path d="M 847.22 3639.72 847.02 3597.59" id="way/816187669"/>
<path d="M 847.23 3597.67 847.41 3639.76" id="way/816187670"/>
<path d="M 850.6 3553.75 850.52 3529.84" id="way/816187671"/>
<path d="M 850.47 3519.28 850.78 3529.73" id="way/816187673"/>
<path d="M 850.29 3519.28 849.99 3505.57" id="way/816187674"/>
<path d="M 850.78 3529.73 850.73 3553.79" id="way/816187675"/>
<path d="M 850.52 3529.84 850.29 3519.28" id="way/816187676"/>
<path d="M 850.1 3496.21 854.74 3468.44" id="way/816187677"/>
<path d="M 850.3 3496.23 850.22 3498.68" id="way/816187678"/>
<path d="M 850.01 3498.69 850.1 3496.21" id="way/816187679"/>
<path d="M 850.25 3505.62 850.47 3519.28" id="way/816187680"/>
<path d="M 1102.66 2904.94 1095.76 2920.79" id="way/816493897"/>
<path d="M 1102.66 2904.94 1105.07 2899.53" id="way/816493900"/>
<path d="M 1088.68 2937.52 1088.58 2937.74" id="way/816493924"/>
<path d="M 1087.15 2940.96 1074.18 2970.75" id="way/816493925"/>
<path d="M 1074.18 2970.75 1070.29 2979" id="way/816493930"/>
<path d="M 1116.6 2873.26 1120.34 2864.66" id="way/816493934"/>
<path d="M 1120.34 2864.66 1120.87 2863.39" id="way/816493935"/>
<path d="M 1120.52 2864.73 1116.67 2873.53" id="way/816493936"/>
<path d="M 1121.04 2863.47 1120.52 2864.73" id="way/816493937"/>
<path d="M 1120.87 2863.39 1122.03 2860.35" id="way/816493938"/>
<path d="M 1122.03 2860.35 1122.3 2859.62" id="way/816493939"/>
<path d="M 1122.28 2860.43 1121.04 2863.47" id="way/816493940"/>
<path d="M 1122.3 2859.62 1126.27 2845.19" id="way/816493941"/>
<path d="M 1122.55 2859.73 1122.28 2860.43" id="way/816493942"/>
<path d="M 1127.76 2834.89 1128.04 2818.2" id="way/816493943"/>
<path d="M 1127.52 2811 1128.27 2818.18" id="way/816493946"/>
<path d="M 1128.43 2820.15 1128.2 2834.91" id="way/816493947"/>
<path d="M 1128.27 2818.18 1128.43 2820.15" id="way/816493948"/>
<path d="M 1128.04 2818.2 1127.32 2810.99" id="way/816493949"/>
<path d="M 1105.22 2899.61 1104.94 2900.25" id="way/816493952"/>
<path d="M 1105.14 2899.55 1104.55 2901.09" id="way/816493953"/>
<path d="M 1088.58 2937.74 1087.15 2940.96" id="way/816493960"/>
<path d="M 896.83 3172.73 900.39 3146.95 907.13 3131.03" id="way/816737197"/>
<path d="M 867.84 3253.34 865.46 3261.82" id="way/836306670"/>
<path d="M 1160.93 2562.35 1164.3 2603.61" id="way/842559018"/>
<path d="M 1160.78 2562.35 1159.47 2473.99 1158.34 2463.49 1102.34 2292.97 1016.39 2198.57" id="way/842559019"/>
<path d="M 1164.3 2603.61 1164.57 2607.16" id="way/842559020"/>
<path d="M 1164.98 2614.58 1164.4 2607.17" id="way/842559023"/>
<path d="M 1164.57 2607.16 1165.14 2614.55" id="way/842559024"/>
<path d="M 1164.4 2607.17 1164.12 2603.62" id="way/842559025"/>
<path d="M 1165.09 2616.09 1164.98 2614.58" id="way/842559026"/>
<path d="M 1165.14 2614.55 1165.24 2616.07" id="way/842559027"/>
<path d="M 1165.24 2616.07 1167.2 2638.11" id="way/842559028"/>
<path d="M 1167.2 2638.11 1169 2644.89" id="way/842559029"/>
<path d="M 1167.02 2638.13 1165.09 2616.09" id="way/842559030"/>
<path d="M 1171.35 2650.72 1168.83 2644.93" id="way/842559031"/>
<path d="M 1173.28 2653.73 1199 2712.96 1183.2 2744.99" id="way/842559032"/>
<path d="M 1168.83 2644.93 1167.02 2638.13" id="way/842559033"/>
<path d="M 1169 2644.89 1171.52 2650.61" id="way/842559034"/>
<path d="M 1155.11 2757.26 1162.66 2754.3" id="way/842561157"/>
<path d="M 1155.17 2757.4 1127.52 2811" id="way/842561158"/>
<path d="M 1162.72 2754.45 1155.17 2757.4" id="way/842561160"/>
<path d="M 1162.66 2754.3 1164.88 2753.52" id="way/842561161"/>
<path d="M 1164.88 2753.52 1198.81 2712.98 1173.09 2653.79" id="way/842561162"/>
<path d="M 1164.91 2753.68 1162.72 2754.45" id="way/842561163"/>
<path d="M 824.7 886.61 809.19 886.3" id="way/919678950"/>
<path d="M 824.99 886.62 824.7 886.61" id="way/919678951"/>
<path d="M 809.13 886.15 824.52 886.39" id="way/919678952"/>
<path d="M 824.52 886.39 824.81 886.4" id="way/919678953"/>
<path d="M 1140.38 37.77 1140.63 22.94" id="way/951994899"/>
<path d="M 1140.24 44.7 1140.38 37.77" id="way/955001564"/>
<path d="M 1138.64 214.96 1138.97 195.36" id="way/955001565"/>
<path d="M 1138.96 225.07 1138.64 214.96" id="way/955001566"/>
<path d="M 833.59 3424.86 851.73 3462.04" id="way/955739048"/>
<path d="M 829.44 3415.03 831.18 3419.5" id="way/955739062"/>
<path d="M 853.31 3464.83 854.9 3468.37" id="way/955739065"/>
<path d="M 854.74 3468.44 853.17 3464.91" id="way/955739066"/>
<path d="M 827.52 3409.73 827.18 3408.1" id="way/955739082"/>
<path d="M 827.43 3408.05 827.67 3409.66" id="way/955739083"/>
<path d="M 829.11 3414.64 827.52 3409.73" id="way/955739084"/>
<path d="M 827.67 3409.66 829.27 3414.57" id="way/955739085"/>
<path d="M 829.27 3415.1 829.11 3414.64" id="way/955739086"/>
<path d="M 829.27 3414.57 829.44 3415.03" id="way/955739087"/>
<path d="M 833.59 3424.86 831.07 3419.68 829.27 3415.1" id="way/955739088"/>
<path d="M 831.18 3419.5 833.72 3424.77" id="way/955739089"/>
<path d="M 849.09 3312.34 827.56 3406.56" id="way/955739090"/>
<path d="M 827.25 3406.63 848.91 3312.26" id="way/955739091"/>
<path d="M 827.18 3408.1 827.25 3406.63" id="way/955739092"/>
<path d="M 848.91 3312.26 865.29 3261.67" id="way/955739093"/>
<path d="M 827.56 3406.56 827.43 3408.05" id="way/955739094"/>
<path d="M 865.46 3261.82 849.09 3312.34" id="way/955739095"/>
<path d="M 31.68 4560.37 33.33 4559.6" id="way/956277504"/>
<path d="M 36.13 4557.99 34.16 4559.14" id="way/956277505"/>
<path d="M 468.68 4477.29 474.33 4479.24" id="way/956287330"/>
<path d="M 474.29 4479.52 468.57 4477.49" id="way/956287331"/>
<path d="M 1128.2 2834.91 1127.16 2842.93" id="way/968520983"/>
<path d="M 1164.12 2603.62 1160.78 2562.35" id="way/968520984"/>
<path d="M 1126.27 2845.19 1127.76 2834.89" id="way/968558037"/>
<path d="M 1062.1 2993.44 1059.99 2997.24" id="way/968558038"/>
<path d="M 932.82 3075.26 926.09 3089.25" id="way/968558039"/>
<path d="M 925.57 3089.77 932.66 3075.14" id="way/968558040"/>
<path d="M 865.29 3261.67 867.71 3253.29" id="way/968558041"/>
<path d="M 851.04 3460.21 853.31 3464.83" id="way/968558042"/>
<path d="M 853.17 3464.91 851.73 3462.04" id="way/968558043"/>
<path d="M 825.19 3832.82 822.68 3835.66" id="way/968558044"/>
<path d="M 673.59 4005.68 680.56 3977.08" id="way/968558045"/>
<path d="M 1140.63 22.94 1140.86 1" id="way/970681609"/>
<path d="M 1138.97 195.36 1138.97 174.62" id="way/970681610"/>
<path d="M 1060.53 574.69 1062.36 570.54" id="way/970681613"/>
<path d="M 617.76 4168.73 618.73 4163.57 620.68 4157.71 623.14 4152.08 626.28 4146.82 636.67 4135.26" id="way/979921316"/>
<path d="M 636.78 4135.33 626.37 4146.92 623.28 4152.12 620.82 4157.78" id="way/979921318"/>
<path d="M 661.74 4113.94 663.42 4107.53" id="way/979921320"/>
<path d="M 661.4 4114.83 661.74 4113.94" id="way/979921321"/>
<path d="M 662.37 4112.51 661.91 4114.01" id="way/979921322"/>
<path d="M 661.91 4114.01 661.6 4114.88" id="way/979921323"/>
<path d="M 896.07 3186.55 888.11 3228.97" id="way/987916162"/>
<path d="M 880.91 3237.41 895.95 3186.55" id="way/987916163"/>
<path d="M 867.71 3253.29 880.91 3237.41" id="way/987916164"/>
<path d="M 888.11 3228.97 880.97 3237.56" id="way/987916165"/>
<path d="M 895.95 3186.55 896.83 3172.73" id="way/987916170"/>
<path d="M 897.18 3172.71 896.07 3186.55" id="way/987916171"/>
<path d="M 803.84 3855.95 809.79 3850.4" id="way/989297133"/>
<path d="M 802.33 3856.91 803.84 3855.95" id="way/989297134"/>
<path d="M 811.36 3848.89 803.82 3856.34" id="way/989297135"/>
<path d="M 803.82 3856.34 802.54 3857.18" id="way/989297136"/>
<path d="M 926.09 3089.25 922.95 3096.3" id="way/989297142"/>
<path d="M 922.95 3096.3 921.63 3099.23" id="way/989297143"/>
<path d="M 922.78 3096.22 925.57 3089.77" id="way/989297144"/>
<path d="M 921.46 3099.15 922.78 3096.22" id="way/989297145"/>
<path d="M 907.31 3131.11 901.9 3143.67" id="way/993553507"/>
<path d="M 921.63 3099.23 907.31 3131.11" id="way/993553508"/>
<path d="M 907.13 3131.03 921.46 3099.15" id="way/993553513"/>
<path d="M 301.12 1763.99 258.65 1739.27" id="way/997749425"/>
<path d="M 262.86 1734.07 302.05 1761.94" id="way/997749426"/>
<path d="M 880.44 878.15 911.86 800.92" id="way/1000314976"/>
<path d="M 912.08 801.03 880.48 878.6" id="way/1000314977"/>
<path d="M 863.57 887.26 858.26 887.25" id="way/1005087379"/>
<path d="M 858.26 887.25 857.44 887.25" id="way/1005087380"/>
<path d="M 858.17 887.08 863.55 887.07" id="way/1005087381"/>
<path d="M 857.31 887.08 858.17 887.08" id="way/1005087382"/>
<path d="M 1095.76 2920.79 1090.94 2931.84" id="way/1016525261"/>
<path d="M 1095.94 2920.84 1090 2934.47" id="way/1016525262"/>
<path d="M 850.22 3498.68 850.21 3503.97" id="way/1016537967"/>
<path d="M 850.21 3503.97 850.25 3505.62" id="way/1016537968"/>
<path d="M 850.01 3503.99 850.01 3498.69" id="way/1016537969"/>
<path d="M 849.99 3505.57 850.01 3503.99" id="way/1016537970"/>
<path d="M 50.41 4549.6 49.98 4549.85" id="way/1016542932"/>
<path d="M 54.34 4547.27 52.57 4548.31" id="way/1016542933"/>
<path d="M 1012.59 2196.51 1006.72 2193.34" id="way/1018529798"/>
<path d="M 1006.79 2193.2 1012.67 2196.38" id="way/1018529799"/>
<path d="M 1016.39 2198.57 1012.59 2196.51" id="way/1018529800"/>
<path d="M 1012.67 2196.38 1016.48 2198.45" id="way/1018529801"/>
<path d="M 954.68 2164.8 960.64 2168.12" id="way/1018529831"/>
<path d="M 960.58 2168.27 954.61 2164.96" id="way/1018529832"/>
<path d="M 954.61 2164.96 948.64 2161.64" id="way/1018529833"/>
<path d="M 948.72 2161.48 954.68 2164.8" id="way/1018529834"/>
<path d="M 1090 2934.47 1088.68 2937.52" id="way/1099644453"/>
<path d="M 321.08 1775.45 323.87 1777.27" id="way/1279064569"/>
<path d="M 1171.52 2650.61 1173.28 2653.73" id="way/1369159421"/>
<path d="M 489.64 1952.1 489.23 1951.08" id="way/1369159427"/>
<path d="M 489.23 1951.08 489.06 1950.67" id="way/1369159428"/>
<path d="M 489.41 1950.97 489.84 1952.05" id="way/1369159429"/>
<path d="M 489.25 1950.56 489.41 1950.97" id="way/1369159430"/>
<path d="M 23.37 4693.12 10.78 4706.47" id="way/1373003962"/>
<path d="M 10.78 4706.47 1 4718.9" id="way/1373003965"/>
<path d="M 33.33 4559.6 34.16 4559.14" id="way/1373003966"/>
<path d="M 850.6 3565.5 847.23 3597.67" id="way/1389277092"/>
<path d="M 850.62 3565.16 850.6 3565.5" id="way/1389277093"/>
<path d="M 847.02 3597.59 850.39 3565.56" id="way/1389277094"/>
<path d="M 850.39 3565.56 850.43 3565.13" id="way/1389277095"/>
<path d="M 850.43 3565.13 850.6 3554.2" id="way/1389277096"/>
<path d="M 850.6 3554.2 850.6 3553.75" id="way/1389277097"/>
<path d="M 850.74 3554.23 850.62 3565.16" id="way/1389277098"/>
<path d="M 850.73 3553.79 850.74 3554.23" id="way/1389277099"/>
<path d="M 468.57 4477.49 461.86 4475.16" id="way/1411458388"/>
<path d="M 461.87 4474.91 468.68 4477.29" id="way/1411458389"/>
<path d="M 37.39 4636.59 35.92 4612.5" id="way/1458424914"/>
<path d="M 1143.97 312.57 1143.84 311.08" id="way/1475153441"/>
<path d="M 1143.84 311.08 1143.2 299.23" id="way/1475153442"/>
</g>
</svg>