<?xml version="1.0"?>
<svg xmlns="http://www.w3.org/2000/svg" version="1.2" baseProfile="tiny" width="1200" height="466" viewBox="0 0 1200 466" stroke-linecap="round" stroke-linejoin="round">
<g id="gaya" fill="none" stroke="black" stroke-width="1">
<path d="M 476.58 206.07 598.47 163.99" id="way/164832217"/>
<path d="M 788.69 78.79 608.53 160.86" id="way/164832218"/>
<path d="M 608.53 160.86 478.06 218.96 261.54 244.62" id="way/164833082"/>
<path d="M 261.54 244.62 228.12 242.02 135.18 209.22 48.65 128.07 16.28 50" id="way/164833083"/>
<path d="M 598.47 163.99 788.69 78.79 795.16 76.91" id="way/164836468"/>
<path d="M 1162.43 207.48 1184.99 253.69" id="way/165183213"/>
<path d="M 947.96 35.26 931.69 38.03" id="way/165187042"/>
<path d="M 1060.96 30.62 1073.67 39.79" id="way/165189840"/>
<path d="M 1060.96 30.62 1007.08 19.71 953.41 34.26" id="way/165189841"/>
<path d="M 1073.71 40.63 1061.14 31.61" id="way/165189842"/>
<path d="M 1061.14 31.61 967.1 31.45" id="way/165189843"/>
<path d="M 1197.64 464.54 1195.79 378.6" id="way/165192325"/>
<path d="M 1117.15 116.17 1161.44 205.55" id="way/165193262"/>
<path d="M 1087.08 55.51 1088.37 57.51" id="way/165193265"/>
<path d="M 1160.61 206.87 1116.24 116.39" id="way/165193267"/>
<path d="M 1073.67 39.79 1087.08 55.51" id="way/165193268"/>
<path d="M 1112.33 106.22 1117.15 116.17" id="way/165193269"/>
<path d="M 1161.44 205.55 1162.43 207.48" id="way/165193270"/>
<path d="M 1088.37 57.51 1112.33 106.22" id="way/165193272"/>
<path d="M 1161.49 208.72 1160.61 206.87" id="way/165193273"/>
<path d="M 1116.24 116.39 1111.5 106.29" id="way/165193275"/>
<path d="M 1111.5 106.29 1087.91 57.69" id="way/165193276"/>
<path d="M 1195.79 378.6 1189.69 267.06" id="way/165193277"/>
<path d="M 1086.46 55.56 1073.71 40.63" id="way/165193278"/>
<path d="M 1087.91 57.69 1086.46 55.56" id="way/165193280"/>
<path d="M 1191.03 266.99 1199 449.55" id="way/165193964"/>
<path d="M 1189.69 267.06 1183.05 253.09" id="way/165193965"/>
<path d="M 1183.05 253.09 1161.49 208.72" id="way/165193966"/>
<path d="M 1184.99 253.69 1191.03 266.99" id="way/165193967"/>
<path d="M 967.1 31.45 953.41 34.26 947.96 35.26" id="way/640191670"/>
<path d="M 6.14 1 54.41 130.93 239.04 240.05 346.75 220.16 476.58 206.07" id="way/826409757"/>
<path d="M 16.28 50 1 2.12" id="way/1151199820"/>
</g>
</svg>