<?xml version="1.0"?>
<svg xmlns="http://www.w3.org/2000/svg" version="1.2" baseProfile="tiny" width="1200" height="441" viewBox="0 0 1200 441" stroke-linecap="round" stroke-linejoin="round">
<g id="gyeongjeon" fill="none" stroke="black" stroke-width="1">
<path d="M 143.01 436.34 138.12 436.47" id="way/136280302"/>
<path d="M 18.51 438.83 1.02 440.26" id="way/136280305"/>
<path d="M 157.44 433.49 175.05 427.49" id="way/136280308"/>
<path d="M 800.99 295.83 801.69 295.34" id="way/155743869"/>
<path d="M 929.96 224.67 910.05 221.46" id="way/155743874"/>
<path d="M 933.21 226.37 929.96 224.67" id="way/155743876"/>
<path d="M 1164.58 23.92 1175.92 16.87" id="way/155743883"/>
<path d="M 316.91 392.59 271.31 405.25 247.5 417.89" id="way/191288515"/>
<path d="M 651.93 253.96 721.37 251.77" id="way/340420984"/>
<path d="M 651.93 253.96 649.27 254.63" id="way/340420985"/>
<path d="M 646.2 255.42 614.54 259.41" id="way/340420986"/>
<path d="M 614.52 259.31 646.19 255.34" id="way/340420989"/>
<path d="M 316.9 392.45 317.77 392.17" id="way/340420990"/>
<path d="M 614.54 259.41 609.21 259.47" id="way/340420992"/>
<path d="M 723.92 252.64 726.69 254.07" id="way/340946905"/>
<path d="M 95.9 439.3 92.5 439.69" id="way/341453039"/>
<path d="M 89.77 439.75 92.49 439.61" id="way/341453040"/>
<path d="M 175.05 427.49 177.03 426.82" id="way/341456710"/>
<path d="M 242.59 420.45 238.92 422.39" id="way/341456717"/>
<path d="M 238.92 422.39 231.74 425.83" id="way/341456718"/>
<path d="M 245.02 419.17 242.59 420.45" id="way/341456719"/>
<path d="M 238.9 422.28 242.54 420.39" id="way/341456720"/>
<path d="M 242.54 420.39 244.97 419.11" id="way/341456721"/>
<path d="M 244.97 419.11 247.47 417.82" id="way/341456722"/>
<path d="M 247.5 417.89 245.02 419.17" id="way/341456723"/>
<path d="M 247.47 417.82 271.29 405.14 316.9 392.45" id="way/341456724"/>
<path d="M 229.7 426.54 218.66 427.91" id="way/341456726"/>
<path d="M 229.68 426.44 231.71 425.75" id="way/341456727"/>
<path d="M 231.71 425.75 238.9 422.28" id="way/341456728"/>
<path d="M 231.74 425.83 229.7 426.54" id="way/341456729"/>
<path d="M 218.66 427.84 229.68 426.44" id="way/341456730"/>
<path d="M 218.66 427.91 212.42 427.23" id="way/341456733"/>
<path d="M 212.08 427.1 212.43 427.15" id="way/341456735"/>
<path d="M 212.42 427.23 212.07 427.19" id="way/341456736"/>
<path d="M 212.43 427.15 218.66 427.84" id="way/341456737"/>
<path d="M 212.07 427.19 207.95 426.71" id="way/341456738"/>
<path d="M 207.95 426.62 212.08 427.1" id="way/341456739"/>
<path d="M 207.36 426.55 207.95 426.62" id="way/341456740"/>
<path d="M 207.95 426.71 207.37 426.64" id="way/341456741"/>
<path d="M 207.37 426.64 204.69 426.32" id="way/341456742"/>
<path d="M 204.7 426.26 207.36 426.55" id="way/341456743"/>
<path d="M 204.69 426.32 198.1 425.56" id="way/341456744"/>
<path d="M 195.75 425.28 182.27 425.22" id="way/341456745"/>
<path d="M 195.76 425.21 198.1 425.49" id="way/341456746"/>
<path d="M 198.1 425.49 204.7 426.26" id="way/341456747"/>
<path d="M 198.1 425.56 195.75 425.28" id="way/341456748"/>
<path d="M 177.05 426.89 175.08 427.55" id="way/341456749"/>
<path d="M 177.03 426.82 179.05 426.15" id="way/341456750"/>
<path d="M 182.26 425.14 195.76 425.21" id="way/341456751"/>
<path d="M 182.27 425.22 179.66 426.03" id="way/341456752"/>
<path d="M 651.87 253.88 721.33 251.69" id="way/347544872"/>
<path d="M 646.19 255.34 648.82 254.66" id="way/347544879"/>
<path d="M 609.21 259.47 606.71 259.52" id="way/347898819"/>
<path d="M 609.21 259.42 614.52 259.31" id="way/347898822"/>
<path d="M 95.89 439.21 112.05 437.32" id="way/366903673"/>
<path d="M 146.3 436.26 143.01 436.34" id="way/366903674"/>
<path d="M 152.39 435.38 146.3 436.26" id="way/366903675"/>
<path d="M 146.31 436.21 152.36 435.32" id="way/366903676"/>
<path d="M 152.36 435.32 157.44 433.49" id="way/366903677"/>
<path d="M 157.52 433.59 152.39 435.38" id="way/366903678"/>
<path d="M 82.1 439.07 89.77 439.75" id="way/377308592"/>
<path d="M 89.76 439.83 82.1 439.18" id="way/377308594"/>
<path d="M 82.1 439.18 80.02 438.83" id="way/377308597"/>
<path d="M 64.46 436.55 80.03 438.72" id="way/377308602"/>
<path d="M 64.48 436.75 60.7 436.54" id="way/377308608"/>
<path d="M 60.7 436.34 64.46 436.55" id="way/377308609"/>
<path d="M 53.73 436.42 60.7 436.34" id="way/377308614"/>
<path d="M 60.7 436.54 53.75 436.58" id="way/377308618"/>
<path d="M 49.43 436.89 47.57 437.02" id="way/377308621"/>
<path d="M 47.58 436.83 49.4 436.71" id="way/377308624"/>
<path d="M 49.4 436.71 53.73 436.42" id="way/377308626"/>
<path d="M 53.75 436.58 49.43 436.89" id="way/377308628"/>
<path d="M 41.8 437.4 30.84 438.03" id="way/377308639"/>
<path d="M 30.87 437.83 41.78 437.21" id="way/377308640"/>
<path d="M 30.84 438.03 27.88 438.21" id="way/377308641"/>
<path d="M 18.66 438.72 23.71 438.35" id="way/377308642"/>
<path d="M 910.05 221.53 894.25 222.51" id="way/390096557"/>
<path d="M 933.15 226.44 929.93 224.76" id="way/390096561"/>
<path d="M 929.93 224.76 910.05 221.53" id="way/390096564"/>
<path d="M 1199 1 1197.17 1.37" id="way/452905448"/>
<path d="M 1197.17 1.37 1187.31 2.51" id="way/452905451"/>
<path d="M 143 436.28 146.31 436.21" id="way/456711768"/>
<path d="M 138.12 436.39 143 436.28" id="way/456711774"/>
<path d="M 138.12 436.47 136.2 436.51" id="way/456711777"/>
<path d="M 136.2 436.44 138.12 436.39" id="way/456711778"/>
<path d="M 136.2 436.51 135.88 436.51" id="way/456711779"/>
<path d="M 135.88 436.51 131.86 436.61" id="way/456711780"/>
<path d="M 135.88 436.45 136.2 436.44" id="way/456711781"/>
<path d="M 131.86 436.61 129.67 436.67" id="way/456711782"/>
<path d="M 131.86 436.55 135.88 436.45" id="way/456711783"/>
<path d="M 129.67 436.67 124.55 436.8" id="way/456711784"/>
<path d="M 129.67 436.62 131.86 436.55" id="way/456711785"/>
<path d="M 124.55 436.8 123.8 436.82" id="way/456711786"/>
<path d="M 124.55 436.73 129.67 436.62" id="way/456711787"/>
<path d="M 122.09 436.87 121.77 436.88" id="way/456711788"/>
<path d="M 122.09 436.79 123.79 436.74" id="way/456711789"/>
<path d="M 123.8 436.82 122.09 436.87" id="way/456711790"/>
<path d="M 123.79 436.74 124.55 436.73" id="way/456711791"/>
<path d="M 121.77 436.79 122.09 436.79" id="way/456711792"/>
<path d="M 121.77 436.88 118.28 436.95" id="way/456711793"/>
<path d="M 118.28 436.87 121.77 436.79" id="way/456711794"/>
<path d="M 118.28 436.95 117.83 436.96" id="way/456711795"/>
<path d="M 112.07 437.39 95.9 439.3" id="way/456711796"/>
<path d="M 112.05 437.32 117.82 436.88" id="way/456711797"/>
<path d="M 117.83 436.96 112.07 437.39" id="way/456711798"/>
<path d="M 117.82 436.88 118.28 436.87" id="way/456711799"/>
<path d="M 41.78 437.21 47.58 436.83" id="way/456711800"/>
<path d="M 47.57 437.02 41.8 437.4" id="way/456711801"/>
<path d="M 1 440.16 18.66 438.72" id="way/458028580"/>
<path d="M 1187.31 2.51 1197.17 1.37" id="way/459279839"/>
<path d="M 1182.78 3.14 1187.31 2.51" id="way/459279840"/>
<path d="M 1181.91 3.56 1182.78 3.14" id="way/459279841"/>
<path d="M 1179.68 5.93 1181.91 3.56" id="way/459279842"/>
<path d="M 1179.46 6.48 1179.68 5.93" id="way/459279843"/>
<path d="M 1162.65 25.05 1162.11 25.38" id="way/459279844"/>
<path d="M 1175.92 16.87 1164.58 23.92" id="way/459279845"/>
<path d="M 1175.92 16.87 1179.46 6.48" id="way/459279846"/>
<path d="M 933.21 226.37 981.11 257.68" id="way/459279847"/>
<path d="M 1162.65 25.05 1164 24.25" id="way/459279848"/>
<path d="M 1156.83 28.92 1158.88 27.31" id="way/459279864"/>
<path d="M 1156.88 28.97 1156.06 29.83" id="way/459279865"/>
<path d="M 1158.92 27.37 1156.88 28.97" id="way/459279866"/>
<path d="M 1158.88 27.31 1159.06 27.2" id="way/459279867"/>
<path d="M 1159.1 27.26 1158.92 27.37" id="way/459279868"/>
<path d="M 1159.06 27.2 1162.06 25.38" id="way/459279869"/>
<path d="M 1162.11 25.38 1159.1 27.26" id="way/459279871"/>
<path d="M 1162.06 25.38 1162.65 25.05" id="way/459279872"/>
<path d="M 1152.98 36.77 1150.47 52.62" id="way/459280036"/>
<path d="M 1156 29.78 1156.83 28.92" id="way/459280037"/>
<path d="M 1150.38 52.61 1152.82 37.2" id="way/459380968"/>
<path d="M 1150.47 52.62 1150.23 54.45" id="way/459380969"/>
<path d="M 1150.16 54.46 1150.38 52.61" id="way/459380970"/>
<path d="M 1150.23 54.45 1148.99 63.87" id="way/459380971"/>
<path d="M 1148.91 63.86 1150.16 54.46" id="way/459383898"/>
<path d="M 1148.99 63.87 1148.79 64.97" id="way/459383899"/>
<path d="M 1148.79 64.97 1148.21 68.91" id="way/459383900"/>
<path d="M 1148.72 64.93 1148.91 63.86" id="way/459383901"/>
<path d="M 1148.21 68.91 1147.92 71.12" id="way/459383902"/>
<path d="M 1148.11 68.9 1148.72 64.93" id="way/459383903"/>
<path d="M 1144.88 88.37 1147.83 71.11" id="way/459383904"/>
<path d="M 1144.96 88.39 1142.59 97.59" id="way/459383905"/>
<path d="M 1147.92 71.12 1144.96 88.39" id="way/459383906"/>
<path d="M 1147.83 71.11 1148.11 68.9" id="way/459383907"/>
<path d="M 1142.53 97.57 1144.88 88.37" id="way/459383908"/>
<path d="M 1142.59 97.59 1141.86 100.9" id="way/459383909"/>
<path d="M 1141.79 100.88 1142.53 97.57" id="way/459383910"/>
<path d="M 1141.86 100.9 1139.78 110.06" id="way/459383911"/>
<path d="M 1133.22 140.67 1137.46 120.16" id="way/459987832"/>
<path d="M 1133.29 140.68 1127.82 147.4" id="way/459987834"/>
<path d="M 1127.8 147.33 1133.22 140.67" id="way/459987835"/>
<path d="M 1127.82 147.4 1112.41 148.48" id="way/459987838"/>
<path d="M 1112.39 148.42 1127.8 147.33" id="way/459987851"/>
<path d="M 1111.73 148.67 1112.39 148.42" id="way/459987855"/>
<path d="M 1112.41 148.48 1111.76 148.74" id="way/459987858"/>
<path d="M 1111.76 148.74 1100.8 157.85" id="way/459987861"/>
<path d="M 1139.61 110.77 1139.05 113.13" id="way/459987900"/>
<path d="M 1139.54 110.76 1139.71 110.05" id="way/459987901"/>
<path d="M 1139.71 110.05 1141.79 100.88" id="way/459987902"/>
<path d="M 1139.78 110.06 1139.61 110.77" id="way/459987903"/>
<path d="M 1139.05 113.13 1138.9 113.81" id="way/459987904"/>
<path d="M 1138.99 113.12 1139.54 110.76" id="way/459987905"/>
<path d="M 1138.9 113.81 1137.66 119.46" id="way/459987906"/>
<path d="M 1138.84 113.8 1138.99 113.12" id="way/459987907"/>
<path d="M 1137.6 119.45 1138.84 113.8" id="way/459987909"/>
<path d="M 1137.66 119.46 1137.52 120.17" id="way/459987910"/>
<path d="M 1137.52 120.17 1133.29 140.68" id="way/459987911"/>
<path d="M 1137.46 120.16 1137.6 119.45" id="way/459987912"/>
<path d="M 1100.8 157.85 1096.79 165.26" id="way/459988744"/>
<path d="M 1100.72 157.82 1111.73 148.67" id="way/459988745"/>
<path d="M 743.67 266.64 780.26 294.52 789.68 298.34 800.99 295.83" id="way/459990647"/>
<path d="M 726.69 254.07 728.64 255.43" id="way/459990648"/>
<path d="M 726.67 254.15 723.88 252.71" id="way/459990649"/>
<path d="M 728.64 255.43 729.54 256.11" id="way/459990650"/>
<path d="M 728.59 255.48 726.67 254.15" id="way/459990651"/>
<path d="M 594.09 259.65 609.21 259.42" id="way/459996100"/>
<path d="M 594.1 259.72 590.19 259.78" id="way/459996101"/>
<path d="M 585.61 259.45 587.8 259.68" id="way/459996102"/>
<path d="M 585.6 259.51 584.18 259.3" id="way/459996103"/>
<path d="M 584.18 259.21 585.61 259.45" id="way/459996104"/>
<path d="M 584.18 259.3 583.17 259.12" id="way/459996105"/>
<path d="M 590.18 259.7 594.09 259.65" id="way/459996109"/>
<path d="M 587.77 259.73 585.6 259.51" id="way/459996126"/>
<path d="M 583.18 259.03 584.18 259.21" id="way/459996132"/>
<path d="M 583.17 259.12 581.74 258.8" id="way/459996137"/>
<path d="M 581.77 258.72 583.18 259.03" id="way/459996142"/>
<path d="M 581.74 258.8 578.53 257.79" id="way/459996148"/>
<path d="M 578.56 257.71 581.77 258.72" id="way/459996153"/>
<path d="M 578.53 257.79 576.64 257.07" id="way/459996157"/>
<path d="M 576.64 257.07 575.16 256.52" id="way/459996163"/>
<path d="M 576.69 256.99 578.56 257.71" id="way/459996164"/>
<path d="M 575.16 256.52 549.59 246.8" id="way/459996165"/>
<path d="M 575.21 256.38 576.69 256.99" id="way/459996166"/>
<path d="M 1096.79 165.26 1095.22 168.2" id="way/459998502"/>
<path d="M 1096.72 165.22 1100.72 157.82" id="way/459998503"/>
<path d="M 1088.73 180.42 1078.22 206.3" id="way/459998506"/>
<path d="M 1088.66 180.39 1089.36 179.08" id="way/459998509"/>
<path d="M 1078.22 206.3 1079.85 212.39" id="way/459998510"/>
<path d="M 1078.13 206.31 1088.66 180.39" id="way/459998511"/>
<path d="M 1079.79 212.41 1078.13 206.31" id="way/460004116"/>
<path d="M 1079.85 212.39 1080.17 220.45" id="way/460004117"/>
<path d="M 1080.1 220.43 1079.79 212.41" id="way/460004118"/>
<path d="M 1080.17 220.45 1079.94 221.22" id="way/460004119"/>
<path d="M 1079.94 221.22 1079.71 221.9" id="way/460004123"/>
<path d="M 1079.87 221.19 1080.1 220.43" id="way/460004124"/>
<path d="M 1079.59 221.88 1079.87 221.19" id="way/460004125"/>
<path d="M 1073.63 237.77 1070.75 246.73" id="way/460004126"/>
<path d="M 1070.65 246.72 1073.56 237.76" id="way/460004137"/>
<path d="M 1073.97 268.26 1077.5 278.84 1072.93 292.91" id="way/460004138"/>
<path d="M 1072.93 292.91 1066.5 298.33" id="way/460004151"/>
<path d="M 1072.87 292.88 1073.97 268.65" id="way/460004152"/>
<path d="M 1047.91 295.4 1012.44 288.5 994.64 277.5" id="way/460024379"/>
<path d="M 1066.38 298.29 1072.87 292.88" id="way/460024380"/>
<path d="M 994.69 277.46 1047.95 295.34" id="way/460024381"/>
<path d="M 994.64 277.5 981.06 257.72" id="way/460024382"/>
<path d="M 981.06 257.72 933.15 226.44" id="way/460029518"/>
<path d="M 981.11 257.68 994.69 277.46" id="way/460029519"/>
<path d="M 894.23 222.46 910.05 221.46" id="way/460047391"/>
<path d="M 883.54 223.58 873.64 229.51" id="way/460047392"/>
<path d="M 869.65 232.41 873.6 229.46" id="way/460047396"/>
<path d="M 869.69 232.47 850.33 251.78" id="way/460047400"/>
<path d="M 873.64 229.51 869.69 232.47" id="way/460047405"/>
<path d="M 873.6 229.46 883.49 223.52" id="way/460047408"/>
<path d="M 850.28 251.74 869.65 232.41" id="way/460047447"/>
<path d="M 849.69 252.41 850.28 251.74" id="way/460047450"/>
<path d="M 849.73 252.46 838.63 261.22" id="way/460047453"/>
<path d="M 850.33 251.78 849.73 252.46" id="way/460047456"/>
<path d="M 838.63 261.22 827.68 268.31" id="way/460047459"/>
<path d="M 838.6 261.16 849.69 252.41" id="way/460047460"/>
<path d="M 827.64 268.25 838.6 261.16" id="way/460047461"/>
<path d="M 827.68 268.31 824.34 270.95" id="way/460047462"/>
<path d="M 823.53 271.57 824.3 270.9" id="way/460047463"/>
<path d="M 823.59 271.63 818.82 276.66" id="way/460047464"/>
<path d="M 824.3 270.9 827.64 268.25" id="way/460047465"/>
<path d="M 824.34 270.95 823.59 271.63" id="way/460047466"/>
<path d="M 806.53 290.8 801.75 295.41" id="way/460050845"/>
<path d="M 818.77 276.63 818.85 276.53" id="way/460050846"/>
<path d="M 801.75 295.41 801.04 295.9" id="way/460050847"/>
<path d="M 801.69 295.34 806.47 290.73" id="way/460050848"/>
<path d="M 743.62 266.72 730.17 256.66" id="way/460052437"/>
<path d="M 801.04 295.9 789.87 298.49 784.31 296.91 779.36 294 743.62 266.72" id="way/460052438"/>
<path d="M 549.63 246.68 575.21 256.38" id="way/460069893"/>
<path d="M 549.59 246.8 545.15 245.17" id="way/460069897"/>
<path d="M 545.16 245.11 549.63 246.68" id="way/460069901"/>
<path d="M 545.15 245.17 537.44 242.63" id="way/460069907"/>
<path d="M 537.44 242.63 536.69 242.48" id="way/460069911"/>
<path d="M 537.46 242.55 545.16 245.11" id="way/460069916"/>
<path d="M 536.69 242.48 534.66 242.2" id="way/460069920"/>
<path d="M 536.71 242.41 537.46 242.55" id="way/460069924"/>
<path d="M 534.67 242.13 536.71 242.41" id="way/460069928"/>
<path d="M 534.66 242.2 532.74 242.09" id="way/460069933"/>
<path d="M 532.74 242.09 531.18 242.11" id="way/460069937"/>
<path d="M 532.74 242.01 534.67 242.13" id="way/460069942"/>
<path d="M 527.02 242.59 531.18 242.04" id="way/460069945"/>
<path d="M 527.03 242.67 524.25 243.52" id="way/460069946"/>
<path d="M 531.18 242.11 527.03 242.67" id="way/460069947"/>
<path d="M 531.18 242.04 532.74 242.01" id="way/460069948"/>
<path d="M 524.25 243.52 519.34 245.49" id="way/460069949"/>
<path d="M 524.22 243.45 527.02 242.59" id="way/460069950"/>
<path d="M 519.32 245.42 524.22 243.45" id="way/460069952"/>
<path d="M 519.34 245.49 513.73 247.97" id="way/460069953"/>
<path d="M 513.67 247.85 519.32 245.42" id="way/460069954"/>
<path d="M 513.73 247.97 502.74 252.55" id="way/460069955"/>
<path d="M 485.79 259.89 476.88 263.9" id="way/460069956"/>
<path d="M 485.73 259.76 487.74 258.95" id="way/460069957"/>
<path d="M 474.38 265.41 475.11 264.88" id="way/460069958"/>
<path d="M 474.47 265.51 471.71 267.9" id="way/460069959"/>
<path d="M 475.11 264.88 476.83 263.83" id="way/460069960"/>
<path d="M 475.21 265 474.47 265.51" id="way/460069961"/>
<path d="M 476.88 263.9 475.21 265" id="way/460069962"/>
<path d="M 476.83 263.83 485.73 259.76" id="way/460069963"/>
<path d="M 470.55 269.04 471.64 267.82" id="way/460069964"/>
<path d="M 470.63 269.09 469.64 270.33" id="way/460069965"/>
<path d="M 471.71 267.9 470.63 269.09" id="way/460069966"/>
<path d="M 471.64 267.82 474.38 265.41" id="way/460069967"/>
<path d="M 469.11 270.92 469.57 270.27" id="way/460069968"/>
<path d="M 469.18 270.98 468.45 272.13" id="way/460069969"/>
<path d="M 469.57 270.27 470.55 269.04" id="way/460069970"/>
<path d="M 469.64 270.33 469.18 270.98" id="way/460069971"/>
<path d="M 468.45 272.13 468.05 272.79" id="way/460069972"/>
<path d="M 468.37 272.09 469.11 270.92" id="way/460069973"/>
<path d="M 467.97 272.75 468.37 272.09" id="way/460069974"/>
<path d="M 468.05 272.79 460.38 302.24" id="way/460069975"/>
<path d="M 460.12 303.36 459.63 305.49" id="way/460069976"/>
<path d="M 460.03 303.33 460.29 302.21" id="way/460069977"/>
<path d="M 460.29 302.21 467.97 272.75" id="way/460069978"/>
<path d="M 460.38 302.24 460.12 303.36" id="way/460069979"/>
<path d="M 450.53 324.56 449.34 326.45" id="way/460071705"/>
<path d="M 450.38 324.53 459.5 305.44" id="way/460071706"/>
<path d="M 459.63 305.49 450.53 324.56" id="way/460071707"/>
<path d="M 459.5 305.44 460.03 303.33" id="way/460071708"/>
<path d="M 444.99 334.48 446.34 331.67" id="way/460071709"/>
<path d="M 445.05 334.5 438.69 346.15" id="way/460071710"/>
<path d="M 446.53 331.66 445.05 334.5" id="way/460071711"/>
<path d="M 446.34 331.67 449.21 326.48" id="way/460071712"/>
<path d="M 449.21 326.48 450.38 324.53" id="way/460071713"/>
<path d="M 449.34 326.45 446.53 331.66" id="way/460071714"/>
<path d="M 428.33 364.76 431.98 358.36" id="way/460072965"/>
<path d="M 428.37 364.92 426.12 368.81" id="way/460072966"/>
<path d="M 426.12 368.81 424.77 370.71" id="way/460072967"/>
<path d="M 426.05 368.73 428.33 364.76" id="way/460072968"/>
<path d="M 423.29 372.8 424.7 370.6" id="way/460072969"/>
<path d="M 423.36 372.87 422.43 373.92" id="way/460072970"/>
<path d="M 424.77 370.71 423.36 372.87" id="way/460072971"/>
<path d="M 424.7 370.6 426.05 368.73" id="way/460072972"/>
<path d="M 421.09 375.38 420.46 376.05" id="way/460072974"/>
<path d="M 422.43 373.92 421.09 375.38" id="way/460072979"/>
<path d="M 421.03 375.32 422.37 373.86" id="way/460072983"/>
<path d="M 422.37 373.86 423.29 372.8" id="way/460072988"/>
<path d="M 420.46 376.05 400.1 387.52" id="way/460072993"/>
<path d="M 420.39 376 421.03 375.32" id="way/460134930"/>
<path d="M 400.08 387.44 420.39 376" id="way/460134931"/>
<path d="M 400.1 387.52 398.37 387.89" id="way/460134932"/>
<path d="M 397.83 388 392.74 388.6" id="way/460134933"/>
<path d="M 398.37 387.89 397.83 388" id="way/460134934"/>
<path d="M 397.8 387.92 398.41 387.82" id="way/460134935"/>
<path d="M 398.41 387.82 400.08 387.44" id="way/460134936"/>
<path d="M 392.73 388.54 397.8 387.92" id="way/460134938"/>
<path d="M 391.86 388.59 392.73 388.54" id="way/460134939"/>
<path d="M 392.74 388.6 391.87 388.65" id="way/460134940"/>
<path d="M 391.87 388.65 389.28 388.7" id="way/460134941"/>
<path d="M 389.28 388.63 391.86 388.59" id="way/460134942"/>
<path d="M 389.28 388.7 383.45 388.51" id="way/460134943"/>
<path d="M 383.45 388.45 389.28 388.63" id="way/460134944"/>
<path d="M 373.72 388.06 383.45 388.45" id="way/460134945"/>
<path d="M 373.72 388.13 372.99 388.1" id="way/460134946"/>
<path d="M 373 388.04 373.72 388.06" id="way/460134947"/>
<path d="M 372.99 388.1 370.98 388.02 358.82 387.57" id="way/460134948"/>
<path d="M 383.45 388.51 373.72 388.13" id="way/460134949"/>
<path d="M 370.98 388.02 372.22 388.01" id="way/460134950"/>
<path d="M 357.22 387.46 358.39 387.56" id="way/460134951"/>
<path d="M 358.82 387.51 372.22 388.01 373 388.04" id="way/460134952"/>
<path d="M 358.82 387.57 358.39 387.56 356.2 387.49" id="way/460134953"/>
<path d="M 356.2 387.43 357.22 387.46 358.82 387.51" id="way/460134956"/>
<path d="M 356.2 387.49 351.71 387.35" id="way/460134959"/>
<path d="M 351.7 387.28 356.2 387.43" id="way/460134963"/>
<path d="M 351.71 387.35 323.49 390.73" id="way/460134966"/>
<path d="M 323.49 390.73 321.01 391.28" id="way/460134970"/>
<path d="M 323.43 390.58 351.7 387.28" id="way/460134975"/>
<path d="M 318.6 391.88 321 391.2" id="way/460134980"/>
<path d="M 318.64 391.96 317.82 392.29" id="way/460134985"/>
<path d="M 321 391.2 323.43 390.58" id="way/460134989"/>
<path d="M 321.01 391.28 318.64 391.96" id="way/460134994"/>
<path d="M 175.08 427.55 157.52 433.59" id="way/460141524"/>
<path d="M 179.58 425.98 182.26 425.14" id="way/475218378"/>
<path d="M 179.05 426.15 179.58 425.98" id="way/475218379"/>
<path d="M 179.11 426.21 177.05 426.89" id="way/475218380"/>
<path d="M 179.66 426.03 179.11 426.21" id="way/475218381"/>
<path d="M 492.59 256.83 501.2 253.14" id="way/565935349"/>
<path d="M 487.74 258.95 492.59 256.83" id="way/565935350"/>
<path d="M 487.77 259.05 485.79 259.89" id="way/565935351"/>
<path d="M 492.62 256.9 487.77 259.05" id="way/565935352"/>
<path d="M 502.7 252.47 513.67 247.85" id="way/565935359"/>
<path d="M 501.2 253.14 502.7 252.47" id="way/565935360"/>
<path d="M 501.23 253.2 492.62 256.9" id="way/565935361"/>
<path d="M 502.74 252.55 501.23 253.2" id="way/565935362"/>
<path d="M 818.47 276.96 818.77 276.63" id="way/574671119"/>
<path d="M 818.51 277.01 806.53 290.8" id="way/574671120"/>
<path d="M 818.82 276.66 818.51 277.01" id="way/574671121"/>
<path d="M 806.47 290.73 818.47 276.96" id="way/574671122"/>
<path d="M 1074.66 234.89 1079.59 221.88" id="way/574671123"/>
<path d="M 1073.56 237.76 1074.66 234.89" id="way/574671124"/>
<path d="M 1074.7 234.96 1073.63 237.77" id="way/574671125"/>
<path d="M 1079.71 221.9 1074.7 234.96" id="way/574671126"/>
<path d="M 648.68 254.78 646.2 255.42" id="way/575200128"/>
<path d="M 649.27 254.63 648.68 254.78" id="way/575200129"/>
<path d="M 649.25 254.55 651.87 253.88" id="way/575205444"/>
<path d="M 648.82 254.66 649.25 254.55" id="way/575205445"/>
<path d="M 722.98 252.25 723.92 252.64" id="way/589620781"/>
<path d="M 722.95 252.33 723.88 252.71" id="way/589620782"/>
<path d="M 721.33 251.69 722.98 252.25" id="way/589620783"/>
<path d="M 721.37 251.77 722.95 252.33" id="way/589620784"/>
<path d="M 595.85 259.66 606.71 259.52" id="way/589620789"/>
<path d="M 438.61 346.11 444.99 334.48" id="way/589626100"/>
<path d="M 438.69 346.15 432.56 357.43" id="way/589626101"/>
<path d="M 432.5 357.4 438.61 346.11" id="way/589626102"/>
<path d="M 431.98 358.36 432.5 357.4" id="way/589626103"/>
<path d="M 432.05 358.4 428.37 364.92" id="way/589626104"/>
<path d="M 432.56 357.43 432.05 358.4" id="way/589626106"/>
<path d="M 80.03 438.72 82.1 439.07" id="way/589626126"/>
<path d="M 80.02 438.83 64.48 436.75" id="way/589626130"/>
<path d="M 23.71 438.35 27.89 438.06" id="way/589626135"/>
<path d="M 23.71 438.49 18.51 438.83" id="way/589626139"/>
<path d="M 27.89 438.06 30.87 437.83" id="way/589626144"/>
<path d="M 27.88 438.21 23.71 438.49" id="way/589626147"/>
<path d="M 1089.66 178.52 1095.16 168.17" id="way/769061893"/>
<path d="M 1089.36 179.08 1089.66 178.52" id="way/769061894"/>
<path d="M 1089.43 179.09 1088.73 180.42" id="way/769061895"/>
<path d="M 1089.73 178.55 1089.43 179.09" id="way/769061896"/>
<path d="M 729.54 256.11 743.67 266.64" id="way/842048985"/>
<path d="M 595.85 259.66 594.1 259.72" id="way/842102732"/>
<path d="M 818.85 276.53 823.53 271.57" id="way/843121069"/>
<path d="M 730.17 256.66 728.59 255.48" id="way/845003879"/>
<path d="M 1095.16 168.17 1096.72 165.22" id="way/972224817"/>
<path d="M 1095.22 168.2 1089.73 178.55" id="way/972224818"/>
<path d="M 1047.95 295.34 1066.38 298.29" id="way/972224825"/>
<path d="M 1066.5 298.33 1047.91 295.4" id="way/972224826"/>
<path d="M 317.82 392.29 316.91 392.59" id="way/972224829"/>
<path d="M 317.77 392.17 318.6 391.88" id="way/972224830"/>
<path d="M 92.5 439.69 89.76 439.83" id="way/972224833"/>
<path d="M 92.49 439.61 95.89 439.21" id="way/972224834"/>
<path d="M 589.11 259.69 590.18 259.7" id="way/1065766356"/>
<path d="M 587.8 259.68 589.11 259.69" id="way/1065766357"/>
<path d="M 590.19 259.78 589.07 259.75" id="way/1065766358"/>
<path d="M 589.07 259.75 587.77 259.73" id="way/1065766359"/>
<path d="M 1164.32 24.06 1164.58 23.92" id="way/1149610492"/>
<path d="M 1164 24.25 1164.32 24.06" id="way/1149610493"/>
<path d="M 894.25 222.51 883.54 223.58" id="way/1305286884"/>
<path d="M 883.49 223.52 894.23 222.46" id="way/1305286885"/>
<path d="M 1073.97 268.65 1070.65 246.72" id="way/1305286886"/>
<path d="M 1070.75 246.73 1073.97 268.26" id="way/1305286887"/>
<path d="M 1156.06 29.83 1152.98 36.77" id="way/1305286888"/>
<path d="M 1152.82 37.2 1153.64 33.79 1156 29.78" id="way/1305286889"/>
</g>
</svg>