<?xml version="1.0"?>
<svg xmlns="http://www.w3.org/2000/svg" version="1.2" baseProfile="tiny" width="1200" height="1616" viewBox="0 0 1200 1616" stroke-linecap="round" stroke-linejoin="round">
<g id="jinhae" fill="none" stroke="black" stroke-width="1">
<path d="M 634.23 826.85 536.31 682" id="way/202918283"/>
<path d="M 1 122.09 1.07 120.65" id="way/202918284"/>
<path d="M 53.35 190.52 51 189.01" id="way/202918286"/>
<path d="M 493.95 436.78 379.46 369.42" id="way/202918287"/>
<path d="M 1139.69 1116.33 1130.52 1110.42" id="way/202918292"/>
<path d="M 1.07 120.65 10.97 90.58" id="way/202918300"/>
<path d="M 1158.17 1463.84 1199 1223.71" id="way/202918305"/>
<path d="M 371.34 367.78 129.51 247.97" id="way/202918308"/>
<path d="M 541.7 589.96 560.11 481.52" id="way/202918314"/>
<path d="M 1192.47 1182.24 1139.69 1116.33" id="way/202918315"/>
<path d="M 536.31 682 541.7 589.96" id="way/202918317"/>
<path d="M 1129.4 1502.06 1158.17 1463.84" id="way/202918318"/>
<path d="M 51 189.01 1 122.09" id="way/202918321"/>
<path d="M 379.46 369.42 371.34 367.78" id="way/202918323"/>
<path d="M 636.36 828.39 634.23 826.85" id="way/202918326"/>
<path d="M 1127.36 1502.92 1129.4 1502.06" id="way/202918329"/>
<path d="M 1130.52 1110.42 794.22 938.7" id="way/202918332"/>
<path d="M 504.77 443.71 493.95 436.78" id="way/202918334"/>
<path d="M 560.11 481.52 504.77 443.71" id="way/202918335"/>
<path d="M 854.98 1598.1 856.41 1597.16" id="way/203042528"/>
<path d="M 856.41 1597.16 967.09 1531.35 1127.36 1502.92" id="way/203042537"/>
<path d="M 825.01 1614.87 827.04 1614.26" id="way/203042541"/>
<path d="M 827.04 1614.26 854.98 1598.1" id="way/203042543"/>
<path d="M 697.8 1603.29 825.01 1614.87" id="way/203336253"/>
<path d="M 677.4 1600.45 695 1602.98" id="way/203336258"/>
<path d="M 695 1602.98 697.8 1603.29" id="way/203336260"/>
<path d="M 485.54 1613.96 677.4 1600.45" id="way/380239453"/>
<path d="M 123.82 242.13 53.35 190.52" id="way/573582778"/>
<path d="M 129.51 247.97 123.82 242.13" id="way/573582779"/>
<path d="M 791.09 936.57 636.36 828.39" id="way/574726290"/>
<path d="M 794.22 938.7 791.09 936.57" id="way/574726291"/>
<path d="M 32.21 66.77 89.65 1" id="way/849202061"/>
<path d="M 10.97 90.58 11.9 89.25" id="way/849202062"/>
<path d="M 1199 1223.71 1193.6 1183.8" id="way/881770619"/>
<path d="M 1193.6 1183.8 1192.47 1182.24" id="way/881770620"/>
<path d="M 11.9 89.25 32.21 66.77" id="way/1393200485"/>
</g>
</svg>